<mxfile host="Electron" agent="Mozilla/5.0 (Windows NT 10.0; Win64; x64) AppleWebKit/537.36 (KHTML, like Gecko) draw.io/26.1.1 Chrome/132.0.6834.210 Electron/34.3.3 Safari/537.36" version="26.1.1">
  <diagram name="Page-1" id="laKVtV4J7WN-F0R6rgHj">
    <mxGraphModel dx="1098" dy="820" grid="1" gridSize="24" guides="1" tooltips="1" connect="1" arrows="1" fold="1" page="1" pageScale="1" pageWidth="850" pageHeight="1100" math="0" shadow="0">
      <root>
        <mxCell id="0" />
        <mxCell id="1" parent="0" />
        <mxCell id="WWB7S82kn9Ua1kXxTO10-1" value="&#xa;&lt;b style=&quot;forced-color-adjust: none; color: rgb(0, 0, 0); font-family: Helvetica; font-size: 12px; font-style: normal; font-variant-ligatures: normal; font-variant-caps: normal; letter-spacing: normal; orphans: 2; text-align: center; text-indent: 0px; text-transform: none; widows: 2; word-spacing: 0px; -webkit-text-stroke-width: 0px; white-space: normal; background-color: rgb(251, 251, 251); text-decoration-thickness: initial; text-decoration-style: initial; text-decoration-color: initial;&quot;&gt;Object Type&lt;/b&gt;&lt;span style=&quot;color: rgb(0, 0, 0); font-family: Helvetica; font-size: 12px; font-style: normal; font-variant-ligatures: normal; font-variant-caps: normal; font-weight: 400; letter-spacing: normal; orphans: 2; text-align: center; text-indent: 0px; text-transform: none; widows: 2; word-spacing: 0px; -webkit-text-stroke-width: 0px; white-space: normal; background-color: rgb(251, 251, 251); text-decoration-thickness: initial; text-decoration-style: initial; text-decoration-color: initial; display: inline !important; float: none;&quot;&gt;: CSV Files&lt;/span&gt;&#xa;&#xa;" style="rounded=0;whiteSpace=wrap;html=1;fillColor=none;dashed=1;strokeColor=#4D4D4D;" vertex="1" parent="1">
          <mxGeometry x="48" y="170" width="142" height="612" as="geometry" />
        </mxCell>
        <mxCell id="WWB7S82kn9Ua1kXxTO10-3" value="&lt;font style=&quot;font-size: 24px;&quot;&gt;Sources&lt;/font&gt;" style="rounded=0;whiteSpace=wrap;html=1;strokeColor=none;" vertex="1" parent="1">
          <mxGeometry x="59" y="144" width="120" height="60" as="geometry" />
        </mxCell>
        <mxCell id="WWB7S82kn9Ua1kXxTO10-4" value="" style="rounded=0;whiteSpace=wrap;html=1;fillColor=none;dashed=1;strokeColor=#4D4D4D;" vertex="1" parent="1">
          <mxGeometry x="240" y="160" width="576" height="632" as="geometry" />
        </mxCell>
        <mxCell id="WWB7S82kn9Ua1kXxTO10-5" value="&lt;font style=&quot;font-size: 24px;&quot;&gt;Data Warehouse&lt;/font&gt;" style="rounded=0;whiteSpace=wrap;html=1;strokeColor=none;" vertex="1" parent="1">
          <mxGeometry x="425" y="120" width="264" height="60" as="geometry" />
        </mxCell>
        <mxCell id="WWB7S82kn9Ua1kXxTO10-7" value="" style="rounded=0;whiteSpace=wrap;html=1;fillColor=none;dashed=1;strokeColor=#4D4D4D;" vertex="1" parent="1">
          <mxGeometry x="850" y="160" width="206" height="632" as="geometry" />
        </mxCell>
        <mxCell id="WWB7S82kn9Ua1kXxTO10-8" value="&lt;font style=&quot;font-size: 24px;&quot;&gt;Consume&lt;/font&gt;" style="rounded=0;whiteSpace=wrap;html=1;strokeColor=none;" vertex="1" parent="1">
          <mxGeometry x="888" y="120" width="120" height="60" as="geometry" />
        </mxCell>
        <mxCell id="WWB7S82kn9Ua1kXxTO10-9" value="&lt;font style=&quot;font-size: 20px;&quot;&gt;&lt;b&gt;Bronze Layer&lt;/b&gt;&lt;/font&gt;" style="rounded=0;whiteSpace=wrap;html=1;fillColor=#ffe6cc;strokeColor=#d79b00;" vertex="1" parent="1">
          <mxGeometry x="250" y="180" width="175" height="60" as="geometry" />
        </mxCell>
        <mxCell id="WWB7S82kn9Ua1kXxTO10-10" value="" style="rounded=0;whiteSpace=wrap;html=1;fillColor=none;strokeColor=#d79b00;" vertex="1" parent="1">
          <mxGeometry x="250" y="264" width="175" height="504" as="geometry" />
        </mxCell>
        <mxCell id="WWB7S82kn9Ua1kXxTO10-11" value="&lt;font style=&quot;font-size: 20px;&quot;&gt;&lt;b&gt;Silver Layer&lt;/b&gt;&lt;/font&gt;" style="rounded=0;whiteSpace=wrap;html=1;fillColor=#f5f5f5;strokeColor=#666666;fontColor=#333333;" vertex="1" parent="1">
          <mxGeometry x="440.5" y="180" width="159.5" height="60" as="geometry" />
        </mxCell>
        <mxCell id="WWB7S82kn9Ua1kXxTO10-12" value="" style="rounded=0;whiteSpace=wrap;html=1;fillColor=none;strokeColor=#666666;fontColor=#333333;" vertex="1" parent="1">
          <mxGeometry x="440.5" y="264" width="183.5" height="504" as="geometry" />
        </mxCell>
        <mxCell id="WWB7S82kn9Ua1kXxTO10-13" value="&lt;font style=&quot;font-size: 20px;&quot;&gt;&lt;b&gt;Gold Layer&lt;/b&gt;&lt;/font&gt;" style="rounded=0;whiteSpace=wrap;html=1;fillColor=#fff2cc;strokeColor=#d6b656;" vertex="1" parent="1">
          <mxGeometry x="641" y="180" width="151" height="60" as="geometry" />
        </mxCell>
        <mxCell id="WWB7S82kn9Ua1kXxTO10-14" value="" style="rounded=0;whiteSpace=wrap;html=1;fillColor=none;strokeColor=#d6b656;" vertex="1" parent="1">
          <mxGeometry x="641" y="264" width="151" height="504" as="geometry" />
        </mxCell>
        <mxCell id="WWB7S82kn9Ua1kXxTO10-15" value="CRM" style="image;aspect=fixed;html=1;points=[];align=center;fontSize=12;image=img/lib/azure2/general/Folder_Blank.svg;fontStyle=1" vertex="1" parent="1">
          <mxGeometry x="72" y="208" width="69" height="56.00000000000001" as="geometry" />
        </mxCell>
        <mxCell id="WWB7S82kn9Ua1kXxTO10-16" value="" style="image;aspect=fixed;html=1;points=[];align=center;fontSize=12;image=img/lib/azure2/general/File.svg;" vertex="1" parent="1">
          <mxGeometry x="119.99999999999999" y="219" width="36.52" height="45" as="geometry" />
        </mxCell>
        <mxCell id="WWB7S82kn9Ua1kXxTO10-19" value="ERP" style="image;aspect=fixed;html=1;points=[];align=center;fontSize=12;image=img/lib/azure2/general/Folder_Blank.svg;fontStyle=1" vertex="1" parent="1">
          <mxGeometry x="67.74" y="312" width="69" height="56.00000000000001" as="geometry" />
        </mxCell>
        <mxCell id="WWB7S82kn9Ua1kXxTO10-20" value="" style="image;aspect=fixed;html=1;points=[];align=center;fontSize=12;image=img/lib/azure2/general/File.svg;" vertex="1" parent="1">
          <mxGeometry x="115.74" y="323" width="36.52" height="45" as="geometry" />
        </mxCell>
        <mxCell id="WWB7S82kn9Ua1kXxTO10-23" value="" style="endArrow=none;html=1;rounded=0;" edge="1" parent="1">
          <mxGeometry width="50" height="50" relative="1" as="geometry">
            <mxPoint x="74" y="408" as="sourcePoint" />
            <mxPoint x="146" y="408" as="targetPoint" />
            <Array as="points" />
          </mxGeometry>
        </mxCell>
        <mxCell id="WWB7S82kn9Ua1kXxTO10-24" value="&lt;b&gt;Interface&lt;/b&gt;: Files in Folder" style="text;html=1;align=center;verticalAlign=middle;whiteSpace=wrap;rounded=0;" vertex="1" parent="1">
          <mxGeometry x="48" y="429" width="144" height="30" as="geometry" />
        </mxCell>
        <mxCell id="WWB7S82kn9Ua1kXxTO10-27" value="" style="html=1;verticalLabelPosition=bottom;align=center;labelBackgroundColor=#ffffff;verticalAlign=top;strokeWidth=2;strokeColor=#d79b00;shadow=0;dashed=0;shape=mxgraph.ios7.icons.data;fillColor=#ffe6cc;" vertex="1" parent="1">
          <mxGeometry x="301.5" y="347.5" width="72" height="77" as="geometry" />
        </mxCell>
        <mxCell id="WWB7S82kn9Ua1kXxTO10-28" value="" style="html=1;verticalLabelPosition=bottom;align=center;labelBackgroundColor=#ffffff;verticalAlign=top;strokeWidth=2;strokeColor=#666666;shadow=0;dashed=0;shape=mxgraph.ios7.icons.data;fillColor=#f5f5f5;fontColor=#333333;" vertex="1" parent="1">
          <mxGeometry x="484.25" y="352" width="72" height="77" as="geometry" />
        </mxCell>
        <mxCell id="WWB7S82kn9Ua1kXxTO10-29" value="" style="html=1;verticalLabelPosition=bottom;align=center;labelBackgroundColor=#ffffff;verticalAlign=top;strokeWidth=2;strokeColor=#d6b656;shadow=0;dashed=0;shape=mxgraph.ios7.icons.data;fillColor=#fff2cc;" vertex="1" parent="1">
          <mxGeometry x="680.5" y="352" width="72" height="77" as="geometry" />
        </mxCell>
        <mxCell id="WWB7S82kn9Ua1kXxTO10-30" value="" style="shape=singleArrow;whiteSpace=wrap;html=1;fillColor=#b1ddf0;strokeColor=#10739e;" vertex="1" parent="1">
          <mxGeometry x="170" y="368" width="86" height="36" as="geometry" />
        </mxCell>
        <mxCell id="WWB7S82kn9Ua1kXxTO10-31" value="" style="shape=singleArrow;whiteSpace=wrap;html=1;fillColor=#b1ddf0;strokeColor=#10739e;" vertex="1" parent="1">
          <mxGeometry x="382" y="368" width="86" height="36" as="geometry" />
        </mxCell>
        <mxCell id="WWB7S82kn9Ua1kXxTO10-32" value="" style="shape=singleArrow;whiteSpace=wrap;html=1;fillColor=#b1ddf0;strokeColor=#10739e;" vertex="1" parent="1">
          <mxGeometry x="576" y="368" width="86" height="36" as="geometry" />
        </mxCell>
        <mxCell id="WWB7S82kn9Ua1kXxTO10-33" value="" style="shape=singleArrow;whiteSpace=wrap;html=1;fillColor=#b1ddf0;strokeColor=#10739e;" vertex="1" parent="1">
          <mxGeometry x="768" y="368" width="86" height="36" as="geometry" />
        </mxCell>
        <mxCell id="WWB7S82kn9Ua1kXxTO10-34" value="Raw Data" style="text;html=1;align=center;verticalAlign=middle;whiteSpace=wrap;rounded=0;" vertex="1" parent="1">
          <mxGeometry x="296.25" y="429" width="82.5" height="30" as="geometry" />
        </mxCell>
        <mxCell id="WWB7S82kn9Ua1kXxTO10-35" value="Cleaned, Standardized Data" style="text;html=1;align=center;verticalAlign=middle;whiteSpace=wrap;rounded=0;" vertex="1" parent="1">
          <mxGeometry x="460.25" y="437" width="144" height="30" as="geometry" />
        </mxCell>
        <mxCell id="WWB7S82kn9Ua1kXxTO10-36" value="Business-Ready Data" style="text;html=1;align=center;verticalAlign=middle;whiteSpace=wrap;rounded=0;" vertex="1" parent="1">
          <mxGeometry x="646.13" y="432" width="140.75" height="30" as="geometry" />
        </mxCell>
        <mxCell id="WWB7S82kn9Ua1kXxTO10-38" value="" style="endArrow=none;html=1;rounded=0;fillColor=#ffe6cc;strokeColor=#d79b00;" edge="1" parent="1">
          <mxGeometry width="50" height="50" relative="1" as="geometry">
            <mxPoint x="296.25" y="470.5" as="sourcePoint" />
            <mxPoint x="368.25" y="470.5" as="targetPoint" />
            <Array as="points" />
          </mxGeometry>
        </mxCell>
        <mxCell id="WWB7S82kn9Ua1kXxTO10-39" value="" style="endArrow=none;html=1;rounded=0;fillColor=#f5f5f5;strokeColor=#666666;" edge="1" parent="1">
          <mxGeometry width="50" height="50" relative="1" as="geometry">
            <mxPoint x="484.25" y="486" as="sourcePoint" />
            <mxPoint x="556.25" y="486" as="targetPoint" />
            <Array as="points">
              <mxPoint x="528" y="486" />
            </Array>
          </mxGeometry>
        </mxCell>
        <mxCell id="WWB7S82kn9Ua1kXxTO10-40" value="" style="endArrow=none;html=1;rounded=0;fillColor=#fff2cc;strokeColor=#d6b656;" edge="1" parent="1">
          <mxGeometry width="50" height="50" relative="1" as="geometry">
            <mxPoint x="677" y="462" as="sourcePoint" />
            <mxPoint x="749" y="462" as="targetPoint" />
            <Array as="points" />
          </mxGeometry>
        </mxCell>
        <mxCell id="WWB7S82kn9Ua1kXxTO10-42" value="&lt;b&gt;Object Type:&lt;/b&gt; Tables" style="text;html=1;align=center;verticalAlign=middle;whiteSpace=wrap;rounded=0;" vertex="1" parent="1">
          <mxGeometry x="240" y="486" width="144" height="30" as="geometry" />
        </mxCell>
        <mxCell id="WWB7S82kn9Ua1kXxTO10-44" value="&lt;b&gt;Load:&lt;/b&gt;" style="text;html=1;align=center;verticalAlign=middle;whiteSpace=wrap;rounded=0;" vertex="1" parent="1">
          <mxGeometry x="216" y="516" width="144" height="30" as="geometry" />
        </mxCell>
        <mxCell id="WWB7S82kn9Ua1kXxTO10-45" value="Batch Processing" style="text;html=1;align=center;verticalAlign=middle;whiteSpace=wrap;rounded=0;" vertex="1" parent="1">
          <mxGeometry x="264" y="546" width="120" height="30" as="geometry" />
        </mxCell>
        <mxCell id="WWB7S82kn9Ua1kXxTO10-46" value="Full Load" style="text;html=1;align=center;verticalAlign=middle;whiteSpace=wrap;rounded=0;" vertex="1" parent="1">
          <mxGeometry x="240" y="576" width="120" height="30" as="geometry" />
        </mxCell>
        <mxCell id="WWB7S82kn9Ua1kXxTO10-47" value="Truncate &amp;amp; Insert" style="text;html=1;align=center;verticalAlign=middle;whiteSpace=wrap;rounded=0;" vertex="1" parent="1">
          <mxGeometry x="258.75" y="606" width="120" height="30" as="geometry" />
        </mxCell>
        <mxCell id="WWB7S82kn9Ua1kXxTO10-48" value="No &lt;b&gt;Transformation&lt;/b&gt;" style="text;html=1;align=center;verticalAlign=middle;whiteSpace=wrap;rounded=0;" vertex="1" parent="1">
          <mxGeometry x="258.75" y="636" width="120" height="30" as="geometry" />
        </mxCell>
        <mxCell id="WWB7S82kn9Ua1kXxTO10-49" value="&lt;b&gt;Data Model:&lt;/b&gt; None (as-is)" style="text;html=1;align=center;verticalAlign=middle;whiteSpace=wrap;rounded=0;" vertex="1" parent="1">
          <mxGeometry x="258.75" y="666" width="149.25" height="30" as="geometry" />
        </mxCell>
        <mxCell id="WWB7S82kn9Ua1kXxTO10-50" value="Truncate &amp;amp; Insert" style="text;html=1;align=center;verticalAlign=middle;whiteSpace=wrap;rounded=0;" vertex="1" parent="1">
          <mxGeometry x="450.75" y="591" width="120" height="30" as="geometry" />
        </mxCell>
        <mxCell id="WWB7S82kn9Ua1kXxTO10-51" value="Full Load" style="text;html=1;align=center;verticalAlign=middle;whiteSpace=wrap;rounded=0;" vertex="1" parent="1">
          <mxGeometry x="432" y="561" width="120" height="30" as="geometry" />
        </mxCell>
        <mxCell id="WWB7S82kn9Ua1kXxTO10-52" value="Batch Processing" style="text;html=1;align=center;verticalAlign=middle;whiteSpace=wrap;rounded=0;" vertex="1" parent="1">
          <mxGeometry x="450.75" y="576" width="120" height="30" as="geometry" />
        </mxCell>
        <mxCell id="WWB7S82kn9Ua1kXxTO10-53" value="&lt;b&gt;Load:&lt;/b&gt;" style="text;html=1;align=center;verticalAlign=middle;whiteSpace=wrap;rounded=0;" vertex="1" parent="1">
          <mxGeometry x="408" y="546" width="144" height="30" as="geometry" />
        </mxCell>
        <mxCell id="WWB7S82kn9Ua1kXxTO10-54" value="&lt;div&gt;&lt;b&gt;&lt;br&gt;&lt;/b&gt;&lt;/div&gt;&lt;ul&gt;&lt;li&gt;Data Cleansing&lt;/li&gt;&lt;li&gt;Data Standrization&lt;/li&gt;&lt;li&gt;Data Normalization&lt;/li&gt;&lt;li&gt;Derived Columns&lt;/li&gt;&lt;li&gt;Data Enrichment&lt;/li&gt;&lt;/ul&gt;" style="text;html=1;align=center;verticalAlign=middle;whiteSpace=wrap;rounded=0;" vertex="1" parent="1">
          <mxGeometry x="432" y="663" width="149.25" height="45" as="geometry" />
        </mxCell>
        <mxCell id="WWB7S82kn9Ua1kXxTO10-55" value="&lt;b&gt;Data Model:&lt;/b&gt; None (as-is)" style="text;html=1;align=center;verticalAlign=middle;whiteSpace=wrap;rounded=0;" vertex="1" parent="1">
          <mxGeometry x="441.38" y="738" width="149.25" height="30" as="geometry" />
        </mxCell>
        <mxCell id="WWB7S82kn9Ua1kXxTO10-57" value="&lt;b&gt;Object Type:&lt;/b&gt; Tables" style="text;html=1;align=center;verticalAlign=middle;whiteSpace=wrap;rounded=0;" vertex="1" parent="1">
          <mxGeometry x="456" y="486" width="144" height="30" as="geometry" />
        </mxCell>
        <mxCell id="WWB7S82kn9Ua1kXxTO10-58" value="&lt;b&gt;Object Type:&lt;/b&gt;&amp;nbsp;Views" style="text;html=1;align=center;verticalAlign=middle;whiteSpace=wrap;rounded=0;" vertex="1" parent="1">
          <mxGeometry x="648" y="486" width="144" height="30" as="geometry" />
        </mxCell>
        <mxCell id="WWB7S82kn9Ua1kXxTO10-59" value="&lt;b&gt;No Load&lt;/b&gt;" style="text;html=1;align=center;verticalAlign=middle;whiteSpace=wrap;rounded=0;" vertex="1" parent="1">
          <mxGeometry x="641" y="520" width="144" height="30" as="geometry" />
        </mxCell>
        <mxCell id="WWB7S82kn9Ua1kXxTO10-60" value="&lt;b&gt;Transformations:&lt;/b&gt;&lt;div&gt;&lt;b&gt;&lt;br&gt;&lt;/b&gt;&lt;/div&gt;&lt;div&gt;&lt;ul&gt;&lt;li&gt;Data Integration&lt;/li&gt;&lt;li&gt;Aggregation&lt;/li&gt;&lt;li&gt;Business Logic&lt;/li&gt;&lt;/ul&gt;&lt;/div&gt;" style="text;html=1;align=center;verticalAlign=middle;whiteSpace=wrap;rounded=0;" vertex="1" parent="1">
          <mxGeometry x="624" y="606" width="144" height="30" as="geometry" />
        </mxCell>
        <mxCell id="WWB7S82kn9Ua1kXxTO10-61" style="edgeStyle=orthogonalEdgeStyle;rounded=0;orthogonalLoop=1;jettySize=auto;html=1;exitX=0.5;exitY=1;exitDx=0;exitDy=0;" edge="1" parent="1" source="WWB7S82kn9Ua1kXxTO10-60" target="WWB7S82kn9Ua1kXxTO10-60">
          <mxGeometry relative="1" as="geometry" />
        </mxCell>
        <mxCell id="WWB7S82kn9Ua1kXxTO10-62" value="Data Model:&lt;div&gt;&lt;span style=&quot;background-color: transparent; color: light-dark(rgb(0, 0, 0), rgb(255, 255, 255));&quot;&gt;&lt;br&gt;&lt;/span&gt;&lt;/div&gt;&lt;div&gt;&lt;ul&gt;&lt;li&gt;&lt;span style=&quot;background-color: transparent; color: light-dark(rgb(0, 0, 0), rgb(255, 255, 255)); font-weight: normal;&quot;&gt;Star Schema&lt;/span&gt;&lt;/li&gt;&lt;li&gt;&lt;span style=&quot;background-color: transparent; color: light-dark(rgb(0, 0, 0), rgb(255, 255, 255)); font-weight: normal;&quot;&gt;Flat Table&lt;/span&gt;&lt;/li&gt;&lt;li&gt;&lt;span style=&quot;background-color: transparent; color: light-dark(rgb(0, 0, 0), rgb(255, 255, 255)); font-weight: normal;&quot;&gt;Aggregated Table&lt;/span&gt;&lt;/li&gt;&lt;/ul&gt;&lt;/div&gt;" style="text;html=1;align=center;verticalAlign=middle;whiteSpace=wrap;rounded=0;fontStyle=1" vertex="1" parent="1">
          <mxGeometry x="611.06" y="708" width="156.94" height="30" as="geometry" />
        </mxCell>
        <mxCell id="WWB7S82kn9Ua1kXxTO10-65" value="" style="image;aspect=fixed;html=1;points=[];align=center;fontSize=12;image=img/lib/azure2/analytics/Power_BI_Embedded.svg;" vertex="1" parent="1">
          <mxGeometry x="888" y="219" width="51" height="68" as="geometry" />
        </mxCell>
        <mxCell id="WWB7S82kn9Ua1kXxTO10-73" value="BI &amp;amp; Reporting" style="text;html=1;align=center;verticalAlign=middle;whiteSpace=wrap;rounded=0;fontStyle=1" vertex="1" parent="1">
          <mxGeometry x="888" y="293" width="120" height="30" as="geometry" />
        </mxCell>
        <mxCell id="WWB7S82kn9Ua1kXxTO10-76" value="Machine Learning" style="text;html=1;align=center;verticalAlign=middle;whiteSpace=wrap;rounded=0;fontStyle=1" vertex="1" parent="1">
          <mxGeometry x="888" y="591" width="120" height="30" as="geometry" />
        </mxCell>
        <mxCell id="WWB7S82kn9Ua1kXxTO10-78" value="" style="shape=image;aspect=fixed;image=data:image/png,iVBORw0KGgoAAAANSUhEUgAAAgAAAAIACAYAAAD0eNT6AAAACXBIWXMAAA7DAAAOwwHHb6hkAAAAGXRFWHRTb2Z0d2FyZQB3d3cuaW5rc2NhcGUub3Jnm+48GgAAIABJREFUeJzs3XecXVW5//HPtEx6T0ggQEggBELvBAgYEQSki4ICikpXULFd9YcICKhXDRYErkEBsSIiCFxAEQg1EFpCDSmkAOl1Jm3K74+VuQzDlHPO8+y19znn+3691kuEOWs/p+21zirPAhERERERERERERERERERERERERERERERERERERERERERERERERERERERERERERERERERERERERERERERERERERERERERERERERERERERERERERERERERERERERERERGR7KpIOwARKVlDgF2AnYFxwE5Af6Av0A/os/nv6oAVm/93EfAG8BrwOvA8sCRq1CIiIpKXHsARwE+AGUCzQ2kCXgQmAcduvoaIiIhkwMHALUA9Po1+Z2UVMBk4FI1gioiIRNcTuAh4meQb/Y7KLOA8oDbh5yoiIlL2ugEXAG+TXsPftiwEvoqmB0RERBJxKjCb9Bv8jspswjoBERERcTAMuJP0G/hcy53ANom8EiIiImXiVGAp6Tfq+ZblwAkJvB4iIiIlrQq4hvQbcmu5gbBuQURERLowAHiQ9BtvrzJl83MSERGRDowiZOJLu9H2LtOBrRxfJxERkZKxLTCX9BvrpMpcYIzTayUiIlISRgBvkn4jnXSZj3YIiIiIADCIcPBO2o1zrDIdrQkQERHhDtJvlGOXKWh3gIiIlLFDSL8xTqv8zOH1EylaOk1LpLzdDJyZ5AUG96nlkJ2Hsus2/RizZV+2GdKT/r260bu2GoD6jY0sW7OB+UvrmfnOGp6fs4InXl/C0tUbkgwLQifgJELmQJGyow6ASHmbRdj656pvzxpO2n9rThm/Dbts04/KivxuNc3N8MLcFdzx1HzunLqAlXUbvUNssQLYnbA4UKSsqAMgUt7qCEf7uhjcp5YvHj2GTx0ykh7dqlzqrN/QyG1T5nLDAzNZtHK9S51t3AmcmETFIlmmDoBIeVsN9LFWUl1ZwXlH7sAXjx5Dr81D+97qNjTws7tfY/K/Z9PQ2ORd/ceAe7wrFckydQBEytuzwN6WCrYf1odJn9uL3UfG2Vk3fd5KLrjxGeYurvOsdjawC7DOs1KRLPMZoxORYjUCOLTQB0/cdQt+/+XxbDO4l2NInduiX3c+MX5bZr6zhlnvrvWqdgCwBHjaq0KRrNMIgEh52xZ4FeiR7wNPnzCSKz+1O1WV6dxGGpua+a/fv8AfH3vLq8qFwGgg8e0HIlmgEQCR8rYKaAQOz+dBnzxoW354xp5UptT4A1RWVHD4bsN5d+U6Zsxb5VFlX8JugGkelYlknToAIvI4sCU5rgU4fcJIrjljj7y39iWhogIm7jqMVxas9poO2An4pUdFIllXmXYAIpK6ZuCcsyaOurdPj5oO/6hPjxquPG03rj49G41/i6rKCq793N6MHOqyDmF74GCPikSyLjvfYhFJzcyfH9W3e/fauWvXNwy446n5PPn6Ut5aWkdlRQXbDO7J+LFDOHafrejXs+MOQtqmz1vJcVc/6rFF8DfA2Q4hiWSaOgAiwrwbj/9aBRU/TjsOqyv+OoMbH3zTWs0qYDjaEiglTlMAIkJFc8Vn0o7Bw1eOHcuQvt2t1fQDJjqEI5Jp6gCIlLl5N560LxXsknYcHnp3r+bcI7b3qOpDHpWIZJk6ACJlr/m0tCPwdPqhI+nfq5u1mg97xCKSZeoAiJS5Cjgi7Rg89aqt5rh9t7JWsxsw2CEckcxSB0CkvOwCTAJmAGsrKqj78GX/GnfZn6fz+sLVKYfm5+QDtrZWUQns6RCKSGYpEZBIeegG/ByYDBwIDN3872qWrdnI83NWcNuUuSxbs5FDdhqSWnpfL8P69+CWR+awbmOjpZqpm4tISVIHQKT0dQPuAz5BJ1t/m5vhhbkrmDZrOcfvO6KoOwEVFfDSWyt54+01lmpmEV43kZKkKQCR0vcz8tjW9thrS7ji9hkJhhPHnqMGWqvY0SMOkaxSB0CktO0CnJvvg255eI7113PqRm/R21rFMI84RLJKHQCR0vYFCpjqa2xq5k+PzfWPJqLttjCfDdDHIw6RrFIHQKS0faTQBz766hLPOKLr19OcC0AdAClp6gCIlLZtCn3gwmX1nnFE17t7tbUKdQCkpKkDIFLaCv4ZvHZ9A5sazCfrFbPi3QYhkgN1AERK21rLg+s2NHjFEd3a9ebYi3sVpEgX1AEQKW2mDsDKuk1ecUS3qn6jtQp1AKSkqQMgUtpMHYC5S0wPT9WcRXXWKor3yYvkQB0AkdK20PLgWe8Wbxs4a5E59gUecYhklToAIqVtpuXBz81e4RVHdM/NWm6twvTaiWSdOgAipc3UiD3x2hKam71Ciae5GZ58Y6m1GnUApKSpAyBS2l63PHjpmg28OLf4RgGem7OcZWs2WKt5wyMWkaxSB0CktD0NmDbz/+2p+U6hxPO3J80xNxFeO5GSpQ6ASGlbDpiO9rtz6gLqNzQ6hZO8ug0N3P2sae0jwIvASodwRDJLHQCR0veI5cEr6zZy25S5TqEk79aH57CyzpwD4FGPWESyTB0AkdL3b2sFNzwwsyiyAq5d38CND87yqOpfHpWIZJk6ACKl736Mw9mLVq5n0j9N6wmj+Oldr7Jk9XprNSuABxzCEck0dQBESt964A5rJb/51yymz8vutPj0t1by24dme1R1B2CeQxDJOnUARMrDH60VNDQ2ccGNz3gcsuNuzbpNnH/jMzQ0uSQt+JNHJSJZpw6ASHn4Dw6JbeYuruPim6bR6NPQumhoaubiydN4a4k59z/AqzismRApBlVpByAiUTQThrU/Zq1o1rtrWbxqA4fvNoyKCntgFs3N8K3fv8Bdz5i3/bX4NvCcV2UiWaYOgEj5mAF8HuhjrWj6vJUsWFbPh3cfRmVKvYDGpma+/YcX+eOUt7yqXAx8DsjeHIdIAtQBECkfjYRpv494VPbKglW8umA1H951GN2q484mrlm3iQtufIY7p7oe2Pdd4DHPCkWyLOUBPBGJrBZ4GRjtVeHIob247px92XWb/l5Vdmr6Wys5/8ZnvOb8W7wB7AJs8qxUJMs0AiBSXhqBucBpXhWurNvEnx97ixVrN7Hv9oMSGw2o39DIL+57g6/+7jmWr3XfpfdZ4DXvSkWyTCMAIuXpXuAo70qH9O3OeUduz6cnjKRXbbVLnXUbGvj9I3O5/oGZLF1tPuGvPf8Ejk2iYpEsUwdApDxtRTjwZlASlffv1Y3j9xvBSfuPYM/tBua9W6C5ORzpe8dT8/nH1AWsqk9sZH4JsBvwblIXEMkqdQBEytcJwN+TvsigPrWM33Ewe44ayPbDerPN4F4M7NON3ptHCNZuaGD5mo3MW1rHm++s4bnZK3jyjaUsW5PIr/22TgTujHEhkaxRB6D4DQUmAOOAscAYYADQH+i9+W/WEnLBrwBeJ8x1vgxMIWx9kvL1a+C8tINIya+AL6YdhIhIPvYBfgpMB5oISV4KKU3AS8BPNtcp5acbIfNdoZ+hYi0PAj6LFEREEtYH+BrwCsndFF8GLsEhUYwUlf6E9z7tRjlWeY0wSiYikmkDge8Dy4l3g1wGXIZukuXkANJvmGOVB9D0p4hkWAVwJrCI9G6Uy4CL0aFRpa6CsBUu7YY5ZrnE5ZUTEXG2PSElado3yZYyBcfMcZI5F5D+Zyx22QDs7fHiiYh4OZGwWj/tG2Tbsgr4ZILPW9IxFqgj/c9XGmUmWu8iIhlQSViNn/ZNsavyYzR/WipqgGdI/zOVZrnJ/CqKiBhUE25Ead8Mcy2/JzQeUtyuJP3PUhaK27kIIiL5qKE4F2DdjToBxWw84dz7tD9HWSgrgJGmV1NEJE8VwO9I/wZYaLkN7RAoRr0Ix9+m/fnJUnkadWhFJKJimPPvqvzQ/VWRpE0m/c9NFsvllhdVRCRXnyD9G55HaQJOcn5tJDknkv5nxqu8QjjIx6u+BsK5GiIiiRlNOJwn7RuoV1kBjHJ9hSQJQwnH3qb9ebGUdcBfgMMJU2jVwOOO9c8noSOSRUQqyFaSH6/yCNoemGUVwL2k/znJtzQBLxK2n34E6NHOcxuJb4f69txfVhGR3H2O9G+qSZUzHV8n8ZWlbH+NwJrN/7weWALMAqYR8vT/Ajgf+BAwOMfn90nnGM/O8boiRUu/2OIaCLxO7je1nNX27sOYCUcwav8JDBu7C/233JruffsBsH71Kla+PZ93X5vO7Kcf5Y1HHmBD3VrvECCcW7AjIWugZMeOwHNAT6f6mrHdOx4DDnGKpbWbgLOc6qonHJH9qlN9IpmjDkBc3wcu9axw0MjRHPL5L7Pr0SdR07290dEP2rR+HdPv+RtTJl/LsrdmeYYD4fld4V2pFKwGeILQmHl4FDgQ25a5y4Hv+YTzPr0JowhjnOp7EdifcG6ASMlRByCevsBcnI7YrenenYlf+g4HnnEulVXVBdXR2LCJJ2+5nod+eRUNG9zuccsIc7KJDDFI3q4AvutU1xLgG8BvjfUcRlgzkoS9CR2ebk71XQt82akukUypSjuAMvIl4DiPigZtO5rPTr6TnT58NBWVhefhqaysYps992fUAYfxxiP3s7G+ziO8noROwJMelYnJeMKwuFeypk8TRhLGG+qoJ3wXGl0i+qB3COsKjnCqb3/CeQkzneoTyQyNAMTzCrCTtZLhO+3GmTfeTq+BvssIVi96m1vP+wSL3njFo7oZwK4eFUnB+gAv4Lc9czLwBcIQ+16Geh7Er3HuSCVwn+N1FgO7E7ZQipQMpXGNYx8cGv9B245OpPEH6LvFlpz+6z/Te/BQj+p2Afb0qEgKNgm/xn8WYRh8ILCHsa6H7OF0qQn4DKHh9jAUuBn9YJISow5AHJ+yVlDTvTunXXtLIo1/i37DtuK0a2+lulutR3U6YS09JxK2m3poAM4grOk4DPs9I0YHAMKv9bMIOxY8HAFc4lSXSCaoAxDHR6wVTPzSdxi6g3kQoUtb77EvE875ikdV5ucsBRkG3OhY39W8t55jorGulYQphFjuBX7uWN8PCIsMRUqChrSS15J+teDXetDI0XzpricLXu2fr431dUw6am/WLjWNoDYBWwBLfaKSHFQA9wBHOdX3DHAQsGnz/7euY/kHcII1qDzVEk76292pvjcInQDtcpGipxGA5E3A2NE65PNfjtb4A3Tr2YvDzv+GtZpKdLBKbOfj1/jXE4b+Wxr/LbGvY4k1/N/aBsJ0VL1TfWPwHVUQSY06AMnbxfLg2t592PXo+Ift7XH8qdT26m2tZpxHLJKTsYR8+V4uIWStbGEd/od0OgAQsvm5zGttdhYO63pE0qYOQPJMWcnGTDgi5wx/nrr16MkOE8zT+Dt6xCJdqgFuxS/V773ADW3+3YeMdS4CXjbWYXEj8DfH+q4jJLwSKVrqACTP1AEYtX96o+gO1/ZKySqduxS/VL9LgM/zwdXzHzbW+5926oztbMJxvx76AbcRjiMWKUrqACTPtG9v2FjTDILJFmPMI/jJ7VmUFuOB/3Ks7wI+mPBmNLCtsd5/Gx/vYQUhm6FXFsLxwP9zqkskOnUAkmeaSB+w1TZeceRt4NbWez59POKQDvUBbsEvpfdk4PZ2/r3H/P9/HOrwMAW4yrG+76DFrlKk1AFInqkRrO2dXhta27uvtQp1AJJ1LeHXuYfZdLxQztoBmEfIJpgVlwOPO9VVRZgKGORUn0g06gAkr5xfYx02lZzjCavRPTQApwNr2vlvFYQMgBb/Mj7eWwNha+AKp/pG4Jt8SSSKcm6cYllnefCGte3dk+PYsHa1tYqNKNlUEoYBv3Gsr3W2v7bGbb6eRVrb/zozn5A3wctJwDmO9YkkTh2A5Jla8OUL3vKKI/9rzzdfuyfwFmGoegIaEfBQQTji12uB5TPAFZ3891Ka/2/rz8BvHev7GQ6HfonEog5A8t62PHjR6zO84sjbuz7X3hq4CHgEWAhcTzhYpcaj8jKUZLa/9lg7AK9i/A4k7CJCel8PPYE/EtIPi2SeOgDJM+07nv30o15x5H/tpx7xrnIL4FzgfsJWs98BxwLdvS9UonbEN9vf13h/tr+2qoBDjdfI4vB/a2sJWf02OtW3O/BDp7pEEqUOQPJM2c9ef/h+NtbXecWSs43r6pk5JdG1WwMJZ7bfBSwD7gbORDsHOlJN2PLnle3vfsJoTGf2Bvobr5OF/f9dmUbYzuflIkLHViTT1AFI3kuWB2+sr2PGfX/3iiVnL/3zrzE7Hj2BjwE3E1LG/p2wKt3a+JSS7wH7OdW1BPgsXWfms6b/bSJM/RSDnwAPONVVQVikaV08KZIodQCS94S1gimTr6WxobNpWl+NmzYy5TfXRrteGz0IR8beSugM3Ad8ARiSVkAZ4J3t7xw+mO2vPdb5/+eB5cY6YmkmjEiZzsBuZSihQ6t7rGSWPpzJW0jn86xdWvbWLJ68pavRWj+P/+5XrFgwN9r1OtEN+CjwP8A7hPnkC4Gt0gwqsiSy/d2Zw9/VAgcbr5X1+f+23iXkVvA6s+AI4KtOdYm4UwcgjnusFTz0y6uY/+KzHrF0at4LU3n4uh8lfp0CVBGGpH8JLCCsrbiM0j9wKFa2v7YOwL7eoNg6ABBOQvy5Y31XAfs71ifiRkla4jiAjhOt5Kz34KGc++d/029YMj+A1yx+l+s/OZE1i3MZHc6UV4C/An/Z/M+l4nhy+7WeiyZCByrXbSXfJ5wyWKiNhPS4aw11pKUWeArYw6m+N4G9MOYEEfGmEYA4ngZmWitZu3Qxvz//k6xe5L+tetW7C7n5nJOLsfEH2JmwSO7lzeVy/G7eafHO9ncVuTf+YJ//n0pxNv4AGwhbA+ud6tueMJIjkinKzBZPDXCktZK6ZUt44a4/M2K3fei/5dYOYcH8F57hd58/gRUpZh10NISwd/08wnzudoSGyOsc+BgqgD/h14mZRthi2ZTj3/ciDINb7g+/BR42PD5tSzcXr+18exJ+BEx3qk/ETFMA8QwA5gD9PCqr7lbLhHO+wvjPfpFuPQqbqm3ctJHHf/crHr7uRzRs3OARVpYtAO7YXB7D70z4JFwA/MqprnrC8HM+C1E/Sth9YXEYxbMFsDO3Ayc71bWK0Kmb61SfiIk6AHFdAXzXs8Leg4dy2PnfYI/jT825I7BxXT0v/fOvTPnNpFL51Z+vxYS59b8R8tTH22PZtR2B5/BL+HMB8Os8H/Mj4OuGa9YTEj2VQq9yAPAiIaW1hycII1QNTvWJFEwdgLgGEPKOex3k8n+69ezFmEOPYLv9DmH42F0ZMGIbuvcJgw3r16xixYJ5vPPqS8yZOoU3Hn0wleyCGbWCkI3wDkIimPUpxlJDaCD2carvXkKCpXy3tT1LyAJYqAdwmO7KkAmEHQ1eU6ZXYFtgKSJF6lzCDVkle6We91IS9+3oDUzQlXnG21lZQmGZ6PoTfp1arv3NAq6bdZfj9940Ys+yKCJFqBKYQvqNnXeZQti2djMh+1va8VhLPSEl8RnESUk8HnvD27qcUGAcJzpce98Cr51l1cDj+L0/8wjTJCJSZkYTVqan3ch5ldXAqFbPr2XHw42E+fa047OWDYRFcWeTTEriPoS94l7xWrYP/sJ47RWU7u6ikYTn5/U+3R41ehHJjFNJv2HzKp/s5HlWElLKXkvYipd2rNbSSNhFcDF+KYlvcoxvFrYTFV8xXj/+yVVxfRzfz9PZccMXkaz4Mek3aNaSz3a1CkJWxB8TGqq0Y7eWJsKiva8R8g0U4gTHeBoIUwmFGk54TpYYLjJcv1h4dtjqgJ3ihi8iWVBBOJM97YbMUqYRDu0pxDhCPv9nM/A8PErL+QQ75/j8hxIOoPG6/uU5Xrcjn3aIYZwxhmLQC3gNv/dtOuEUTBEpM5WEo2/Tbrws5QqH12EUYVj9Mey/QrNQZhGmPQ6m/e22FcA/Ha83jbD2wmKyMYZFHTzXUrQXYW2I1/s3KW74IpIV1YTUr2k3WoUW69BzW6MIw+pPUjqdgR8Rpj9aGsgLHOuvIyQQsppjjOMPDjEUk0vwew+bgKPjhi8iWVEB/D/CIrO0G6xCGznL4rOObAV8iZCxz3ObXFplPnAdodH2qvOCgl/d94xyiOMLDnEUkwrgfvzex0UUlrtBRErER4FlpN9QFVImJ/B6tDaIkKTnbnyHX4u5/C8+w+5nO8RS6ELIYjYUeAe/9/MBdEqrSFkbTZgLT7txKaScmMDr0Z4BhM7AnYSkPWk/7zRKodn+2vMHYyxznOIoRkfjO1X1tbjhi0jWVBKOtF1C+g1NWo1SrnoDnwD+DKwxxF5spdBsf21VYP8Vm/ToT9ZNwu993YDtLAYRKRH9gP8h/cYmn3Iv6a0G705ppSSO0eCOc4jn047xFKNa4Hn83t/XCR1bESlzF5N+g5Nv8ViYZtWSkvgGwgKrtF8Tr7KW96detvqSMZ4mQhKhcrcTvos7b4obvohk0W0k15i8Qtiith9woWO9XlvTvFQBhwE/pzRSEjcQjqj9IvaUxH83xvKy8fqlxGMxZetyatzwRSRrrAfF1AFvAU8T5skvA04GtmhznQrC8L3XzesZ7MlpktCSkvhHlEZK4kZCSuJLyH8lfhX2A25+kec1S93t+L23KwmHEIlIGRqEfYXxR/O4nnd6Wo8sgUkr55TE+zpcL9bOj2LRH5iL3/v5NNnsSItIwo7GdvNoInQi8nG88ZqtSyNwaL5POkXllpL4m8b6G9C59u05BN/EVdZzHkSkCF2G7cYxs8Drep54NhvoW2AcadqW9zoDxZqhsXWZwwc7A9ZMds8U9tKWhcvxe+8agQ/FDV9E0nYPthtHofnZ++A7P17s+8S3Iiy4+w+lkZJ4HmHvunXV+o8sL2qJq8Y3odc8NNoiUjYqsCcCuthw/fH4NnanGGLJkoEoJXFLOdL4Wpa6rfFN7f23uOGLSFpGY79hHGCM4UqHGFrKEkpvv3h/QsfmFsorC2EzofPTy/4SlryP4/u6nx03fBFJw6nYbhQbgR7GGGrwXR2fZpbApA0jbNtKu2GOVR71ednKgueamjpC0iERKWE/w3aj8FqgtT2+v26zkCUwCZNJv1GOWS5zedXKQy/gNfxe++nYO/cikmHWBUTXOcZSylkCPZxA+g1y7PJjYIjHi1cm9sZ3zcikuOGLSCw12I+5/YxjPBXAP43xtC7TgG6O8aXJO3lSMZVGQkf1YmCE9YUsA1/D77VvAo6NG76IxLA39huE9zxhOWYJ7Ip3x6jYS0sWwjGG17SUeX9eFlN6C2tFyt552G4Mq4DKBOI60RhX69JA2GpYzM7H7/WoA35IaETTbsg9ynPAd9CCtbaG4Xs65f0k810XkZRYVw3/O8OxtS6zCEmHitGO+B7/en6ruscSGs9pjvWnWV4kbF9TTvvgaHxTTX8tbvgikqQZ2G4IVycYm7IEhoZsKn6vwT10vD1yO8IN/gmKPyXxVHS6XQvrLp/WZQNh2lBEilwf7Df6ExKO8SB8swQW24lyV+D33BcThoVz0ZKS+CGKNyXxnM3Po9zVAs/j97q+DvSO+gxExN1E7DeDLSPEWa5ZAr1TJH+8wDiKOSXx/xb4nEvNDvjm2Lgpbvgi4s16ROv8SHGWY5bAPsCb+D3n3zjF1R84A7gT+/bRWOVwp+de7M7G93U9NW74IuLpb9huADEPDBmL70K4rGcJ/A1+z/VNkhmy7Q18AvgT2T6f4NYEnnuxuh2/13UlWmchUrQWYLsBfCNyvJ5ZAtcB4+KGn7Pj8Xuem4ADI8TcnZAs5gZ8t555lJkJPu9i0x+Yi99r+zTacSFSdLbE/uX/UOSYKwjD9143r2fI3s1rGPajmVuXy+OGD4TkPGk3+q1LXYHPYzDwMeASQgbCYwjrIYrdIfiuLUnjMyYiBtac8o2ks69+OL4NZJayBHp3cKaSTgfnCwXGm1RZkWf8WxGmDda3U1cDIffFhcRZAJuU7+P3+jYAE+KGLyIWV2P70s+IH/L/KdUsgRfg97zSPAjpDznGGKtMySP2jxCyW+ZSbyPwOGGEYLs8rpEF1dgPAWtd5lEaoyMiZeHf2L7waW8DKrUsgUlm+4upguwdWPSdHGM/gPZ/9edapgHfJixYLQYjCaMjXq/z7VGjF5GCVJL7r5yOynnRo36/UsoSWENYj+D1XDrL9pe0XXKMMVZZQ25HCdfiu+1yBmFufI/cXrbUfBLf1/ucuOGLSL52xv5F3zN61B9UKlkC08r2l4SLOogr19JEmJJpSUlszWOfa4N0hvE6nZU3CYcv7U828094jqbV0f6hTEOBkwif9T8SOrxzgeXAxs1lOTCbMJLyB+BS4OTNjxURJ5/F9iWvJzur572zBMZuPL2z/SWdmrkrd2KL/+U29VlSEl+ZR9yxjlqeB1wLHApU5RFfknoT0vt6PccXCCMq+wD/DbxmrK8JeAn4yeY6RcTgOmxfyMfih9yhYs4S6D2N4ZXtr1BV2OeUf9FJ/UMI2ezuo/OUxAvJP+1xGrkLFhHyJhxB+h3qvfBN87zcsa625WXCwsu01+2IFCVrg/nT+CF3qlizBE52jDmpbH/52Bf788h1GqY/8Cngl8ADhJz/vyAMM3crIPa00xovB34HHEdIqpSGSzqJL4tlGXAZMCCB10KkJHUnzLdZvnhZzAHumSUwxha6UtzKaD1booH0buaLc4wxRllNSK98CnE7dRWEjlTazz/fshg4i2yurxDJlAOxf+FGRY+6a8WUJdA7219Wkhndj+15PBs/5P/zQCdxpVnqgb8TFin2T+zZv2cY2UvlnGuZAoz2f0lESsdXsH3JFscPOWdD8d2DnkTDWoHvgrNppD9/DGHYfS225/LD6FG/J2vZC9srDYT1NxeT7GLVj2LffZFWWUXY2igi7bBmabsnfsh5yfrQeqlk+2trAvbn89HoUb+nJ2ELWtoNWD6fzYcIOyS2SuD1+FkGnqOl/BhNCYh172ThAAAgAElEQVR8gDXZyffih5w3z8V1nlkCi3WxYi6sueU3AL2iR/1+h+G7Ej5WaSLkTPgafimJa4HnM/DcLOVWsjE6JpIJg7AP7R0VPer8ZTFLYCll+2vPFGzP59H4IbfrROxTGWmX5wjpj9tLyJMP7w5rGuVu1AkQAULjbfkyNRE6EcUga1kCiz1hUWd6Yf/lfFnsoDuxA2HhXSPpN2DW8jJhLUuhmTvPzsBzsJZbyFZnWSQV38P2RZoZP2STrDS63p2RtLP9tfVR7M8pi8fJjgS+DjxJ8S6Ka11mAT8iHHqUT4P4XAZit5Y0F5iKZIJ1m9zv44dsUg08jd9N5H7y/yXRC3jDMYa0s/2150fYnlMdYc45y4YAZxKGlK15NLJQFhN+GR9L50PkR1ManZ9mQpIokbJUgX3v+cXRo7bbnnAinNdNJN+Fd6V2bHF7pmF7Xv8bP2STQbzXGSjGRYNty1Le6wy0zqK4Fb75KtIuK8hmDhORxI3C/gU6MHrUPtLKEpj1LYkeBmKfK/9m9Kj9DCB0Bu4E1pF+I2cty4GbgeOBhzMQj3d5BK0HkDJ0GrYvzkagR/SofSSRfKerfPND8c2odrnlBUjQSdifW6mc8NaD8Cv6FkJCmrQbO5X2yxkdvYGSDPW40vdTQhbAQk2juG/UwwlHig52qu9K4P918N8qCNv0vLZMPkv49b/JqT5PvySMsBRqJeE9afQJJzO6A0cSOkjHogNrAKiu7cHQMbsxaNRY+g7bmh79B1PTvScAm9bXs27lUla/O59ls19l8Rsv0bBhfRJhLCKM4q1KonL5IHUA0vcYYTV6oX5NthLPFOJE4A6nuhoJK9efaOe/XUhoGD3UE45qfd2pPm+vYNtv/g+yt6vBWw0wkdAZOIEwOlRWeg3agtGHHM3wXfejqia3wxobN23k7elPM3vKfdQtW+Qd0qVk5wyNkqcOQLpqCL1dyxD+WYTjSovdZOBzTnXNBvYgLDJsMZYwWtLT6RoXAtc51eVtOLAQ2/f7IsIxvuWiCjgYOJnQIR2RbjjJqqrpxpiJJzDywI9QUVlZUB3NjY3MefJB3njoTpoa3AbBlhG2ea71qlA6pg5AuvYiNEoW4wi/9opdH+AF/FYD3wR8fvM/1xD2jO/tVPd9wDGEecss+jT2raG7EJLVlKMKYH/CyMDJlNgK9V6DtmCv0y6kz1CfowpWzp/NtD/+kg1r3UbuLyFMjUrC1AFI13mEIfxCrSbMYTb5hJO6gwirgauc6juJkDnuSkIKVg9LgV0JpxtmlXU05V1gS7LbwYltD0JH4CRg55RjMek7fBv2O/OrdOvlu2t1/eoVPHPrJNYsWuBR3QzCd0wSVtjYj3jZz/j4Zymdxh/gceAax/puJNy4v+VY5zlku/GHMK9t8R/U+Lf2AmFh6TjCuorvErLwFZVeg7ZIpPEH6N53APuefjG1vft5VLcLhadIljyoA5AuawfgaZcosuX7hI6Nh8HA7fiNKNxEGFHIslGEOVSLhxziKFWvAT8gTCeN4v0piTOrqqYbe512YSKNf4vu/Qay12kXUlld7VHdaR6VSOfUAUhPH+yngk31CCRjNhH2A9enHUgbs4Evpx1EDqy//kEdgFzNAf6bsBV0G+BLhNGTzG2dHDPxBLc5/84M2Ho0oycc41HVRzwqkc6pA5CefbC//qXYAYDwK+sbaQfRSiOhU7Kmqz/MAGsHYC6hsyP5WUjYYjqRsAvjbEIq5Y1pBgVh6H/kgfHa01Hjj/SYCtgNv9wg0gF1ANJjHf5fALztEUhGXUdYbZ8F19B+XoGsqcDeAdCvf7slhMOhjgK24P0piaMbfcjRBW/1K0RVt1p2OOxYazWVZPMkypKiDkB69jc+vhTn/1trBj5LyA6WpufIbrrftsYRGhyLf3sEIv9nJXArIbfAIOC4zf9/dYyLV9f2YPiu1t8a+dtqj/FU13a3VjPOIxbpmDoA6dnX+PhnXKLItsXA+Slev56wpz71YdwcWX/9NxPmsCUZ6wgnFZ5J6KgdRzjgZ3lSFxw6ZrecM/x5qupWy5AddrNWk+vhXlIgdQDSsSX2TGOlOv/f1t8Jq+/T8HXCeoRiYe0AvAq84xGIdGk9oTPwWWAY4XyCG3Ae8Ro0aqxndbGvPcYjDumYOgDpOMD4+CbsGQSLyUXAzMjXfABbkqbYqrDPmWr+Px2bCJ+38wg/Dg4Bfgi8aa2477CtrVUUfu0tzNfWIsCEqQOQDuvw/6tEmkPMiDrCmQextlctBT5DcSXD2Qv7yXbqAKSviXBA2LcIv4BN22F7DBjiEVNBeg40t9/JJS0QQB2AtFgXAD7lEkVx8c4S2JkLyH62v7Y+bHx8IyENs2RHM1BrqcBhIZ7h2uZzt9QBSJg6APFVYj+UphwWALbnMpJf+zAZ+GvC10iCdf7/eRJcjCYFy3SGwYSpfUqYXuD4xgJ9jXWUywLAthoIQ/NJZQmcDXwlobqTVEs4SMlCq/+zqc7y4IYN673iKODa5q9pKnkTyok6APFZN+WuI5yWVa5eI6zO99ZI2J5VDNn+2joAsI63av4/m0wdgPrlS7ziKODaS61VFON3saioAxCftQPwHGHVcDn7Nf5ZAq8hrDMoRtbh/43AFI9AxN1Cy4PXLJrvFUfeVr9rvrbpuUvX1AGIz9oBKNfhf+mYtQMwFeMvTUnMXMuDl81+1SmMQq79irWK9HovZUIdgLh6EA65sFAHIGQHPMq5zm9hn0dPQ2/snUql/82mMYDpCL/Fb7xE46b4iSwbN25g8czp1mpe9ohFOqYOQFx7ADXGOsq9AzAW+HEC9VYBt1B8W48OBqy5XjX/ny0TgH8Q8n2YOqUNG9bz9vT4x4YsfOkpGjdusFbzokcs0jF1AOKy/lJbQnkf1VpDOEjFvMG4A6OAaxOqOynW4f96Sv9gqWJQDXySsMX3EcI5AS7359lT7qO5MVYOLWhqbGD2FPMSnWaK4wTOoqYOQFzWBEDluv+/xfeAfRK+xlmEk9uKhbUD8Bhg/qkmBetL2Hr6JvAnEvh81y1bxJwnH/SutkNzHr+f+hXm3QevU3zJuIqOOgBx6Qjgwo0nzNPHcCMwPNK1LAYCexrr0PB/OoYRElvNBX4KbJvkxd546E5Wzk9+8HDFvDeZ+fBdHlW5VCKdUwcgnkHAdsY6ynX+vw9h6L8q0vUGEzICVkS6XqEOw/4dVgcgrr2A3wPzCCNa1vMbctLUsIlpf/wl61evSOwa61Yt57k//YqmhgaP6u7wqEQ6pw5APPtha1CaKd8pgEmE+fmYjiKcCZBl1uH/lYS8EpKsCuAYwm6LacCnsS8GztuGtat45tZJiXQC1q9azrO3TmLDWpczyl6lfH/sRKUOQDzWBYCzgGUegRSZE4HPpXTtHxF2HWSVtQPwCPFOWCxH3YGzCdvZ/on9/TJbs2gBj19/BSvmz3Krc8W8N3n8hitYs9gtb8+NFNdJnEUr60OcpeQe4GjD4/9A+OVQToYB00n3XPBpwIFkL/vicEKmNMt3+GLg5z7hSCuDCaNHFwJDU46lXZXV1YyecAyjxh9JVbfCDhxsamxgzuP3M/Phu7yG/SHsdBqN0gBHUZ12AGVEGQDzUwHcRLqNP4STG78HfDflONqaiL0Dr/l/X2OArxLOlOiRciydampoYOZD/2De1IfZ4bBj2WqP8Tl3BBo3bmDhS08xe8q91K8w5/tv62rU+EejEYA4RhGG8C3GA086xFIsLgB+lXYQmzUCh5KtswImY5saWUQYRdBQq90E4BLgYxTptGpVt1qGjtmdQduNpe/wrek5YDDV3UO6jYb19dSvWMrqd+axbM5rIbugPclPe+YTOlHpHWEokoBTCTfaQstGwnxiuRhLyE1vec28yyyylSVwDrbn84f4IZeUasL3+hnS/2yWSvl8Xu+ASJH4KbYvxrPxQ05NDdm9qd6U4PPOxyjsz+UL0aMuDS2Je+aS/uexlMr9aERaStTj2L4cv4wfcmp+gN9NZQlwMtDgWOcpyT31nJ2N/XnE3lZZ7FoS9ywn/cay1MpiiiPxlkjeagj51i1fkM9Ejzod4/FtrD++ud4rHetcQvo3qz9iew5zo0dcvPYgHBK1kfQbylIsTYRzD0RK0l7YvyQ7R486vj6EeXavG8vkVnXXEKZRvOq+l/SGKysIOdK9Xhv5oJbEPQ+RfgPZtjQS0uQeSlgxn3Y81nJVju+JSFE6H9sXZCVFurI4Tzfhd1OZzQcX7G1P2F7kdY0LXZ997nbJI8aOSrnlk8hVLWEL3wzSbxjblvWEkYjWPwZatsqmHVuh5SY07y8lzvoF/Vf8kKM7Eb+bSgNhKqE9Fzpep450sgReVGC8LaWJ9KcwsmYIcClha2TajWLbsoiQh2JIB7HXEEYE0o4z33Ib5fHDRsqc9ddEqQ+RDSPMq3vdWK7o5FoVhOF7r2s9S/yc7ncaY34lcrxZtiNwPfY1OkmUVwmLPXPZ/lsD/C4DMedabiOFsxBEYutDmLOzfFlOiB51PN4N8jN0fWMZjm+H40rLC5CnKmCFMd5y2lHSkUOBf2D/biZRHiIkFMp3aLwCuCYD8XdWGoFvFvDcRIrSROxfmi2jRx2P95D8jjle93jH67ZkCYxhP4d4T4wUa9ZUAscCT5B+Q9jeZ+hu4ACH53kC4dCwtJ9T27Ka8L0TKRvfxPalmR8/5Gi8s/3le3TvZMdrx8oSaP08NQIDI8SZJX0J+fnnkn4j2LasBH4MbO38nLcBHs3A82sp96G8E1KG7sD2xbk9fshRVANP43eDKSSLWC/gDccYYmQJfMAYYzlllMxy4p63N8c2IKHnDuH7cArwVsrP88wEn6NIps3H9gX6ZvyQo/BOzDOswDgOwjfxUJLD67XYR0x+lGB8WbEXYZFZFhP3PEM4PyDmKay9gcuJ3xFaRhh9ESlLW2L/Eh0WO+gIksr2V6hiyRJ4qEN8H00otrRVAIcT5tGbSL+hb10agQcJ6w/S1J34OQ5Kef2SSKdOwn7jKLUetPew+28cYsrCdEQuvm+MawPh12ApKbbEPVkxjjAF4Zkds72ShXMzRFJhTdM5I37IicvqwjvvBYlJZAmcYoxpSgIxpaWYE/dkzTDgKODbwF+Bx4DX8NlJMCni8xDJFGsecY9ft1lyAn432UZggnN8FzjGt46QstdLL8IveEtMlznGk5bRwLX4dta8ykzgYqBnYs8+vluwvSbltOhU5P9UAquwfXnOjR51cobi+2vt8gRirAD+6RjjNKCbU2xHOcTj3WGK6WDgL/iuHfEqjxGGuqsSe/bpORfba7OJONtjRTJlHPYbyx7Ro05GEg1rUmlEh2I/aa918coS+GNjHHWE+fJi0pK450nSb+TblpbEPfsn9uyzweM+dnj0qEVSdhb2G3bMrUJJSivbX6GymCVwmjGO+x1iiKUPYSh9Luk39G3LasIUxDZJPfmMqcC+FuCy2EGLpO3X2L40pbJgy3tx3fmR4vZcrDgb226Ogdhz1hdDPolyT9yTVXdje+0ejB+ySLqsv9h+Ej9kd8Wyva49WcoSaN1O2gzsa7h+0vYgLDbLYuKe5wjbDMv55LpvYXsN11A6o5kiXeqO/Wb2yehR+/sBfjfiJBPsdMQ7YVGhe6J/abzuCrK3QE2Je4rHwdhf072jRy2SkvHYvzDbRY/aV9ay/RUqC1kCXzFe9+8FXDMpStxTfGoJ21otr+3F0aMWScnF2L4si+OH7KoPIUmP1415ctzw36eGkL/d67ncywenMYYRzhD4AfAnYCowjzAXvsnhmhd5vRgGQwjJcbKauOdSiidxTxoew/Ya/zl+yCLp+AO2L8s/44fsKqvZ/gqVRJbA/QgH83iuM+ioeCYkyteOwPVAfTtxpV1eAc4mTNlJ567B9lovjB+ySDqsv34vjR+ym6xn+yuUZ5bAmGUR8RZOtqbEPaXlWOyv+6joUYtENgj7oqYjo0ftoxiy/RXKO5lRrPKHJF6MDihxT+kagH0r6pnRoxaJ7GhsX5ImQiei2BRTtr9CeWcJjFGWE9akVCbwerRQ4p7y8DK29+KG+CGLxPU9bF+SmfFDdlFs2f4KdSLpN2qFlIeB7Z1fi60JKYpXZuD5tS1zga9Sesdpp+kGbO9JKZ5uKvI+92D7ktwWP2Qz70VyF8QNP2+eixxjllXAyQ7Pfy/C5zSLiXueAU5FiWeScCa296YJ6BE9apGIlmD7khTbftkY2+SyxnubY8zSRPjVnu+UQAXwMexHXCdRGoF/4HPmgnRsFPb3KqsjeyJmo7F/QQ6IHrVNsWf7K5R3oqPY5TZyW2OhxD3S2kJs75n3NJRIZpyK7cuxgeLak3wQvo3giXHDN7uC9BtBS7kL6NbBc1PiHmnPXyj8fdsE9I4fskgcP8V2Y3s2fsgFK6Vsf4Xynv5Io/ye90+5KHGPdOZ0Cn//Hk0hXpFoHsd2g/tV/JALVmrZ/gr1K9JvGK3lGsL8+V3Y93onUR4CjiH7a0PKQR9CqvJC3sdTU4hXJIoa7L+aPhM96sJ4boVrIMynF6NPkn7jWKplI2F0Yq+c3w2J5Szyfz8fRZkXpYTthf2mt1P0qPM3DPtOh9blirjhuxkDrCX9hrLUykrCLoWtc38rJAU/I/f39A2KZ3GvSEHOw37jSzJbm4cKwjY9r5v9M2Qv218uKoFHSL+xLKUyF/gKStxTTL5E1/k/7kaLNaUM3ITtBviv+CHnrVyy/XXlfNJvMEulKHFPcdsCuAx4ClhG2Mk0E/gtcFhqUUnOtLDGxwxgnOHxVwPfdoolCWMJ+fl7OtV3IXCdU10x9SUsWhzsXXHv6mo+PGwYBw0Zws59+zKiZ0/61YQBklWbNrGgvp6XV63i8aVLeejdd1nb0OAdQixNhHMjfoJWhoukSh0Auz7Yh/BPBO70CcddDfAEsI9TffcRVnU3O9UX0xXAdz0rHNW7NxfssAPHjRhBj6rc1kmta2zkHwsWcN3MmcxZu9YznCStIyTu+SlhXlhEUqYOgN2HCFuVLLYC3naIJQlXAt9xqmspsCvhVL1i0w+Yj9OWxe5VVXx9p5343OjRVFcU9jVsaGriN7Nm8d+vvcaGxkaPsJKwmLBd8jrC+y8iGaG5N7v9jI9fQHYb/4OAbznWdw7F2fgDfBanxn+73r35n/32Y8e+tjVv1ZWVnLfDDuw3aBBfmDqVJevXe4Tn5VXCavFbCWl7RSRjsr7yvBhYOwBTXaLw14cwZOu1f/cm4O9OdcVWQVi3YLZLv378/ZBDzI1/a3sNHMg9hx7KWMc6DR4iHBw0Dvgf1PiLZJY6AHal2gGYRDgBzMNs4MtOdaVhX2AHayXb9e7N78ePZ1BtrUNI7ze8Rw9uPvBAhnRPJVPuJsIBQ3sDH+a9Y7FFJMPUAbDZEhhhrONpj0CcnQB8zqmuJkL2sDVO9aXh49YKaququH7ffRNp/Fts2aMH/7PffnSrjPa1XgP8nHDK2+nAc7EuLCJ26gDY7G98fCNhe12WDCMM3Xq5iuLf7nW8tYJv7LQTO/fr5xFLp/YeOJAvjRmT9GXeAr5K6PxeDMxL+oIi4k8dABvr8P+rZOuXcQVhrt5rn/uzwOVOdaVlC0Lq34KN6t2bz40e7RRO187efvukpgKeJSTu2Z6wwG91EheRonc4cDPwJuFch5WEkc7vE75PkhHqANiU2vz/BcBRTnXVE4aFNznVlxbzYUUX7LBDwVv9CtGrupqv7OiWaLGJcFLgoYS1EH8mHOIk0tZQQrrwB4EzgdGEPCL9CPfKSwnrgS5KK0B5P3UACleJPTlOljoAY4EfOdb3deB1x/rSsrflwb2rqzluhHWZSP5O3mYbelWbd/k+Tjik6niKfxpHkjUCeJKuf0D0BK4lLDKWlKkDULix2A8vyUoHoIawX9sr1e99wK+d6krb9pYHf3jYsJwz/HnqWVXFxC3Mo60LUNY+6VoV8Cfy2zV0MWFxsKRIHYDCWYf/64HpHoE4+B5+qX6XEnYQlMo2MNPk/UFD0jsMzeHaIx3CkNJ3KiFpWL6uAXo7xyJ5UAegcNYOwPNkYy5V2f46N8zy4J1TTM7jsOtgS484pORdUODjhuKww0YKpw5A4UphAaCy/XWtl+XBW/cyPdxk657mGR39OpOu9MG2HVodgBSpA1CYHsBuxjqykADoWvyy/c2huLP9dcTUCPaxL8QrWN/NxwkbpNd7kWKxFbYfEId4BSL5UwegMHsQFs5ZpD0CcCJ+i3AaCVv+spTTQOxKZR2HJMe6v3UYfj9CJE/qABTGmgFwCeEXc1qGATc61nc18IRjfVmyzvLgNQ3pLfNYvcmcgkEdOunKW9g7igd7BCL5UwegMMU8/69sf/lZa3nwvLo6rzjSuLYy/UlX6oFXjHUUsoNAHKgDUJhi7gAo219+Flge/MqqVV5x5H/t1eb2e5lHHFLyHjc+XiMAKVEHIH+DsM9ZpdUBULa//M23PPjxpUu94sj/2kuWWKtQEiDJhbUDsBMw0CMQyY86APnbH9vCl2bgGadY8lFNOKDDK9vfA5ROtr/OvGp58L/ffZe6FNYB1Dc28p9Fi6zVvOYRi5S8x4yPr0DTAKlQByB/+xofP4t0hlYvwz510WIp8BnKY5X485YH1zU0cPfChV6x5Ozv8+d7dDxMnR8pG7OBt411qAOQAnUA8leM8//K9lc4c76G62bOpKGpySOWnGxqauK6mTOt1TQDUxzCkfKgdQBFSB2A/BVbB0DZ/mwWYlzlPGftWn4za5ZTOF274c03PXYAvAQsdghHyoO1A7APUOsRiOROHYD8jMK+fS52B2ASfok2ZlOa2f460wOHhvC/X3uN55Yvdwinc88uX87PXnOZuv+XRyVSNqzrAGqxT69KntQByM8BxsdvAl7wCCRHJxBO5vPQRMgcWE7JYSYS1gAcZq1oQ2MjX5g6lbfXmfIKdWrR+vWcN3UqG32mG/7oUYmUjRew3xs0DRCZOgD5sfZQX8SYWS4Pw4D/cazvKuBRx/qybEvgL8C/gR29Kl2yfj2fefJJ3kmgE/D2unV8+oknWLR+vUd1M4BpHhVJ2WjEvl5mvEcgkjt1APJTLPP/yvZXmCrgIsLq91OSuMBrq1dzzCOPMM1xOuDZ5cs55uGHed2e+KfFXV4VSVmxrgM4CPvZApIHr4Vh5aCGcHqe5RCgXxFGAZJ2IXCxU131wJGU/oKwvYF/EKZMEl2MVN/QwB3z59Pc3MxuAwZQU1lYP3xTUxO/njmTS557zvvMgf2B5aSTr0KKVzVwpuHxPYC/Es5KkQjU28rdXtiHRXcm+b3VYwlxeiX8uRC4zqmuLOoLXElIkRy9Qzyke3e+suOOnLzNNvSsyu3y9Y2N/H3+fH71xhvMr69PMrxbgfMInUCRrvQGVhA6AoU6F9+DyqQT6gDk7jxsme9WEdJdJrkhvIZwKt8+TvXdBxxD6Sb8OYWwS2LLtAPpVV3NxC22YPyQIYzr14+te/akX00YbFq1aRPz6+uZsXIlTy5dykOLFsXMLvgScDLwZqwLSlF7ljCaVqhbCEnGRDLlt4SGsNDyYIQYf2CMsXVZAgyPEHMaRgH34vdalXpZTegEiHRlErbPWryEGSJ5eBnbB/sHCcc3Hmgwxti6fDzheNNQQ1gbsYb0G9ViK02ENTCW4V0pfadg/6yNiB61SCf6ELa5WD7UxycYXy/CyW1eN/vfJBhrWg4hbG9LuyEt9vIwYYupSHuGYf+MJbIDR6RQE7F/qJOcZ77JIb6WMpvQ4SkVAwi/XK0dOJX3ygLgwHzeBCkrs7B9vibFD1mkY/+F7QM9L8HYTjDG1ro0AhMSjDWmCsKWpMWk32CWYtkEfDPnd0PKyc3YPlvPxg9ZpGN3YPtA/zWhuIYCi4yxtS6lkuxnDCGXfdqNZDmU3xOmoERanIPtM9VAaY1CSpFbgO0D/Y0EYqoA/mmMq3WZhi3JURb0AC4D1pN+w1hO5RVgp67fHikTO2P/TB0ePWqRdmyF/cN8WAJxXegQV0upwzHnfUqOwj73WEhZCJwG3JbCtbNUVgDHdfkuSTmoAJZh+zxdFjtokfachO2D3Ij/cNZYQqPtdfM+3zm+mIYTkofEbvAagRsImQQh3PQuSyGOLBVtFZQWd2H7LMXImyLSpauxfZCnO8dTQ8jR7nXTvpfizAjZcnDPKuI3dM/ScbbFTxB+DafdGLctqwi5KGLE9i9gSAevj5SHb2L7DK1BHUnJgH9j+yBPdo7nSmM8rcsSinNP9z6ERjiNRvQiuj4zYFvC0cmx4+uoTAG22xzb9oQDqZK+5jzCoUJSng7C/hmypBQWMavE/gvzHMd4yj3bXy/gGnxfg1zL3cDWecTasg3xnRRibSnLCJkP2x432J2Q7Cnp62urYPmqBdZh+/x4nWgqUhCP1ax7OsXSB99Fbt4jE0k7hbDgLnYjOhs42hB3X+D72BdF5dvwXwr06yK2C4ANEeK5Bb/TKaV4TMH2uflL/JBF3vNZbB/gOvzmsSYbY2ldZlE8+2zTOrhnI3AVfg1Xb+ArhC1zScU8gzBFkc97uz9huD7p1/NFwvSDlA/r+qm344cs8p7rsH2AH3OK40RjHK1LA2EqIeu6Ad8mnEUfu/F/FBiX4HPbE/gx4ajdJmOs0wk32gMM8QwhrLpO+nXVVsHy8jHsn5lR0aMW2cy60OynDjEMIyzW87oJX+EQU9ImYD99sZCyFPgccXdFDCZ08C4l5BKYShihWU4Ynt+0+Z/nA08BfyS8h8cCWzjGUUUY8bB2SLoqTZuv09VCSil+A7F/ns6MHrUIIavcRmwf3k8aYyi3bH9pHdzTRJin1tY1OIbQ4Uj6NX+Y4tyBIvmxnsB5Q/yQRXy2sYw0xlAu2f7SPLjnDZR2tK1YWwV1qmDpux7bZ+Tl+CGLhAVblg/uYuP1yyXbX1oH99QTMvfVJv4Mi4t3gokAACAASURBVJO2CoqHM7B9PpqAQdGjlrL3B2wf3LsN164GnjZev3W5n+xl+0vz4J6HyO5oSNacQ5ytgjpVsDSNwv7ZODZ61FL2rHvu/5/h2j8wXrt1WULIl58lE4HXiN/wv40WFRVib2AOyb8/OlWwNM3H9rm4Jn7IUs4GYV+9emSB1y7lbH9ZObhH8jeYMJKU9Hu1Cjg50nOSOP6M7TPhtZ1aJCdHY/vAFjpv1YuwKM3rZvqbAmJIQiVhKDmNg3ueRznpvVQRpm2S3qWhUwVLy0XYPg/rCWtSRKK4DNsH9o0Cr3uT8bqty2yyke1vT3zXM+Ra1hIWl2m/uT9tFZR87I39s3Bw9KilbFlTz95awDVPMF6zdWkkJNNJUzEd3CP52xbfY6k7KtoqWPyqgNXYPgfaKSJRVGDPvHdRntccCiwyXrN1uTzfJ+3sWOLkl29brAf3SH60VVBy9QC2z8Bd8UOWcjQa+w0rn7zspZTtL82De64lHLgj8Z1JnDMbtFWweH0P23u/nA8eay3i7lPYG6MeeVyvFLL91RDO7l6TZ7weZQrJHtwjudFWQenM4djfe33PJXE/w/YhnZrHtUoh298h2PN9F1KWEzod+lWQHYPQVkFpXy/CVI7lfT8netRSdp7A9iH9ZY7XKfZsfzq4R9pTQZiv11ZBact6uurN8UOWclKDfS4z10xzxZrtTwf3SC60VVDamoTtvZ4VP2QpJx77VcfmcJ1izfang3skH9uirYLynlOwv9cjokctZeN8bB/OlXQ9J12M2f50cI8USlsFpcUw7O/zKdGjlrLxW2wfzgdzuEaxZfubCLzuGHOuRQf3lBZtFRSwH7I2KX7IUi5exvbhvLKL+osp258O7hFve6GtguXuZmzv7bPxQ5Zy0Af7yuXjO6m/WLL96eAeSZK2Cpa3c7C9rw1k44wTKTETsd90tuyg7mLJ9qeDeyQGbRUsXztjf1+1E0jc/Re2D+VbndSd9Wx/OrhH0qCtguXH46yVy2IHLaXvDmwfyr92UG/Ws/3p4B5J07Zoq2C5uQvbe5nLYmuRvCzA9qH8ejt1Zjnbnw7ukazQVsHy8k1s7+NaNK0jjkZgv7kc2k69Wcz2p4N7JKu0VbA8HIT9Pdw7etRSsk7C9mFs5IMrU7OY7U8H90jWaatg6asF1mF7/y6OHrWUrKuxfRhfalNf1rL96eAeKSbaKlj6pmB77/4SP2QpVQ/h20BnJdufDu6RYqWtgqXN+qPrnfghSymqxJ70pvU51VnJ9qeDe6QUaKtgafoY9vdsVPSopeSMw/5B3GNzXVnI9qeDe6TUbAtMJfnPr7YKxjMA++iOzgoRs7OwfQjrCMOHWcj2l9bBPe+gL6MkS1sFS491QfIN8UOWUvNrbB/CRzfXk2a2Px3cI+VCWwVLx/XY3qOX44csxWQIcATwJeBXhAxSLxGOpFwObMB+o/gJ/tn+Lsjx+VUBF5HOwT3PAvvkGKeIp/2Jk73yRWD7SM+pHJ2B7f1pAgZGj1oyqyfhRL5JhIa+ieRvEqfjm8r0XnLL9rcPoRGO3fCvInQ6dHCPpGkIoUOf9Od9BXBcpOdUbkZhf3+OjR61ZEolcDBhKDqNX8K3OdaVS7Y/HdwjEmirYPGbj+29uSZ+yJIF3QkH48wifkPYung2xCd28Zw/ASxM4Tnq4B7JsuMIv9ST/h48iJJaefsztvdkSvyQJU09gUuAt0m34fcukzt5zqOA+1KIaSNw1ebXXCTLtgdeIPnvxDzCGgTxcRG292M9yjlSNo4lTp7w2KWjbH8tB/esTSEmHdwjxUZbBYvP3tjfj4OjRy1RbYv9DOmslgbCwUFtTSBsc4kdz1Lgc/gdOywS2/nESYR1Cxods6oGVmN7H9QZK2HHEycVaFqlbbY/HdwjYqdTBYvHA9jeg7vihyxJqyU0hDG28qVVWmf708E9Ir50qmBx+B621385Omq8pAwEniD9BjrJ0jrb3zhCRsHYMdQD3wa65fCeiBSjKuAHJP9DomnzdZQfI3+HY3/9tV6pRAwnZOBKu4FOupyPDu4RiSXmqYJbxHlKJaMXYWGl5XU/5wO1StHZEXiL9BvnpMu9hBvS7BSuvZCQT0Ck3GirYHZZs6neHD9k8TSC8mj8m4HHU7hmA/ALdHCPlLeehMYi6e/besIon+RmErbXe1b8kMVLf8pj2D+t8jz6RSLSmk4VzJZTsL/WI6JHLWa1pPOLuByKDu4R6dh+6FTBrBiO/XU+JXrUYvYL0m8oS7Ho4B6RrmmrYHa8ie01nhQ/5OKWdra3k4Hbk75I78F9GTl+J0bsOZrBo4czYOvB9BzUh249QwrpjfUbqF+2hhXzl7L0zbdZ8MJs5j7xKmuXrk46tCTMAb5IWGgoIl2rIiTk+i+SvSc2A1cDlxISfcn73UyYminUNMIx6ZKjNDsA2xJW5PZPovIe/Xux6/EHsPvJB7HV7tvl/fjm5mYWvjCHl/7+BNP/8RTrVtYlEKWrTcB/A1cS5jZFJD/HERqhRO5JrfwL+BTh+G95zzmEY90L1UDIpLrWJ5zSl2YH4C7C4T6u+g4bwPhzPspepx36f7/wrTbWb2DaHx7hiRvvY82ilS51OptCWHH8ctqBiBS50cDfgN0Tvs58wpz10wlfp5jsjP0e9hFCB0tykNbisOMJ6R/dVFZXst9nDueTN36RkfvvSFVNtVvdVTXVbL3XaPY9fSJV1VXMnzaL5qYmt/oNVhCGLS8gpBAWEZsVwO8Ii9L2SvA6/YDPEo7cfjzB6xSTpYR7mWXXxBxCMibJQRodgJ6EBWpuw2yDRg3jjFsvYc9PHEJ1N7+Gv62qmipGHjiWMRN3Z84Tr6Q5LdBMGKo8DvjP5v8vIj4aCCOUiwi/KJO6qVQS0uCOJixE3JTQdYrJIdgylDYAtzrFUvLSOEDhfGCkV2U7Hbk35/zzewwft61XlV0avsu2nHvPZYw9Ys9o12zlVeBDwFmEHrOIJON6wrHc8xO+zhnAk2irINhHQw4guQ5byYk9AlAL/Ano41HZHqcczEk/O4ea7jVd/7Gz6m417HzMvtQtXc3b0+fGuOQ64CrgdJT1SiSWhYRjsncn2QZ6C8KUwExCJ7+cfc7w2G6E0Zt3nGIpabE7AOcAp3pUtPenDuP4H51FRWV66xgrKivYYeLurF20kndmvJXkpf5DWDD5N7R9SCS2dcBtm/93Isktnq4lLAwcSFjIlomFRpEtBr6G7Vf8K2hxZU5idgAqCb/+B1gr2unIvTnhp19ItfFvUVFRwQ4f2o1Fr85n6ax3vat/G/gC8A1gmXflIpKXxwlptY8Cuid0jQpC2u7xwP9Sflt6G4GPAtsY6lgD/NUnnNIWcw3AocAoayUDRw7lhJ9+nsqqNJYvtK+yqpKTJp3L4FHDvKpsAm4EdgL+4lWpiJjdTZgOeCbh6xwOPAccmPB1sugx4+MPcYmiDMRsRc+wVlBVXcUp111Abe8eHvG46tarlpN/cR5V1S6DKncC5wJFmYpQpMTNAw4jrA1I0gjC9F+5nSpoXQg4DIcfm+UgVgegB3CStZIDzz4y6mr/fA3fZVv2P+sjHlV9hOSGGEXErh74zOayLsHr1ALXUV6nCj6Off3DwR6BlLpYHYAjCIkvCtZ32AAmXHScUzjJOfQrx9N7iOmpQtglcbhDOCKSrFsIowFJbxX8NPAE5bFVcAX2nRAHeQRS6mJ1AD5krWD8OR91S+2bpNpe3Rl/7kc9qjraoxIRSdxUQtbApFPQ7kZYe5D9X0J21nUA6gDkIFYHYKLlwT0H9Gav0w71iiVx+3zqQ/Tobx6tm+ARi4hEsZSwev0qks3M2Z+wRugHpJfKPQbrOoCdCdsppRMxOgBDgF0sFexy3P5F8eu/Rbdetexy3P7WanYmnFUuIsWhEfgO4ayTJE8NqwC+TdgmOCTB66TJOgJQgUYBuhSjA7AXxsQZu59cfO/j7ieNt1ZRAezrEIqIxHU34Vz6FxO+zuHANELegFIzh5AHxaL4Go7IYnQALAc70GtQX7bcbaRTKPFstccoeg/ua61mrEcsIhLdLEJe+skJX2drwq/lbyZ8nTRoHUDCMt8BGHXwTlRUpJ/xL18VFRVse4C5/Ta9diKSqvWETJ5JbxWsBq6h9LYKWtcB7Iu2U3cqRgdgjOXBW+0x2iuO6EbsaY59B484RCRVMbcKPk7pbBW0jgDUEqZipAMxOgCm/LiDRw/3iiO6waPNqYEHe8QhIqmbCuwJ3J/wdXYnrAs4OeHrxPAiIa+/haYBOhGjA9Db8uCBI4d6xRHdwJFbWKtQB0CkdCwDjiFs4Utyq2BfwmE4xb5VsBF4yliHOgCdiNEB6GN5cPe+Pb3iiK5HP/N03BDgdMJOiuwdgCAi+WoEvou2CubKug7gIJI7vrnoZb4DUNu7eNdwdLPH3g24lTCkV0/YFvMgcC1wDiHfdSkt+hEpFzpVMDfWdQADCTlVpB3VaQcgeRm+ubQ9J+Ad4GXglVb/+zxQFzU6EcnHPELGz18QdgskZQTwKGHk4YcJXicJTwEN2Nqqgwj3RWkjRgdgLYaUjBvrNtCjf3H2UzauXR/rUuoYiBSn9cDZwBTgepKb6mvZKrgr4ajxYrkH1AEvYFvNfxBwo084pSVGy7oaQwdg3co6j7z6qVi3KvXvWHsdg0ZClq3WHYMXUA9ZJE23AK8BtxOS+yTl04TU7B8H3kzwOp4ew9YB0NHAHYixBmCt5cHL5y7yiiO6jMZeRdgnfDzwX4TkITOAhYQhQtOaDREpWMupgg8mfJ2WtQfFcqrgE8bHjwK29Aik1MToALxrefDS2aaHp2rprKKKfUvgCsKCoV1TjkWkXC0FjiL5rYLFdKqgdSEgaDtgu2J0AN6wPHjB87O84ohuwXPFMsL2PtsDD6EshCJpadkqeCywIsHrtGwV/DdgTlqSoHcIZytYqAPQjhgdgNctD57z+Ks0NyfZEU5Gc3Mzc596Le0wCjWYMCdZ6P7ZCmAccPTmMs5Ql0i5ugfYg+S3Ch4KPEu2twpa8wFoHUA7YnQATK1g3bLVvP3iHK9Yolnw/CzqllmzWKbqAPKfI+wDfB9YQFhXcM/mMoOQB/17GDNDipSZeYQG+paErzMC+A9wfsLXKZS1A7A7uvd8QIwOwPMY57Je/Jt1DUh8L91RfDG349N5/O2uhNzdl9L+gputgMsIOw/2NEcmUj7WEU4UPB/YkOB1aoHrCJ2NrKVgta4DqCb8qJFWYnQAlgDTLRVMv+spNtYn+bn3tbFuAzPunpp2GB5y3XqzHWHdwHY5/O3WwL8onRPLRGK5npA4KOlTBc8grLzP0nf0VcJZChaaBmgjRgcAQuNQsHUr65j2h0e8Ykncs7f9h3UrU88B4CGXoxgrCQeP5HNw0UDgNgpfF1BJSO95LHAkYZ60eHNGi+SuXLcKNmPfDqiFgG3E6gD8x1rBEzfex8a67I8CbKhbzxM3/m/aYXjJZRHDicDeBdS9H3BCno/pRVhjMI+QuOguwmEnzxPyTcwkbG26ijB9sSc6RElKT7luFbSuAzgApb9/n1gdgAcJGQELtmbRSh659h9O4STn4Z/dydolq9IOw8uMHP7mNEP9p+bxt+MI8VxKWE/QVnsJjp4jdGLUMZBSU46nClrXAfQmjGzIZrE6AOsIKS5Nnpr8AO/MeMshnGS8PX0uT/826ZG5qP6Zw9/sZ6h//xz/bjQhV/rIAq6hjoGUsrsJa3VeTPg6hxNOJc31O5uEZwlnJ1hoHUArMfdmHwo8bK1k4MihnHvPZdT2ztZ9ev2addx4zGUsf2uxR3VXADWEee5xhMV1sTprLZZtvm5X0wDrCauHC7GBrufuKwjznpZc4Plo76yEVwjbWddFikEkXz0IiwTPTPg6G4CvAL9O+DodmYKtEf8r8AmnWIpezA5ABeHwiVHWisYesSefuP6LVFbFbhPb19TQxJ/P/QWv/+sFj+peB3bi/XN7PTb/u5YOQdIdg2bCYSF35PC3iyl8aHARMKyLvzkxxziSpo6BFIPzgEkU3inP1a2br1Wf8HXauhr4luHxb9P+FGJZip2d7Tyceo57n3YoH7v6M/+/vXsPzrI68Dj+DZcEkiDhWgSMUArowlJRB2u1iG1xqOsFquKutLp1pezWllZb163j2mlru+t2RWrLrHVFratYrCKoW121Iiy10lUCEuRmuF/kkvsVyJt3/zhkhkaT903OOc95nze/z8wZZ5zkvOd98/Ce33OecyEnJ+wGc8lkkhfvfJx1S1e7qvKbwKI0f9ZHMEgA8zHrgdOxGvhcF19rFTAtxc/8Bri+i/VHQcFAMs0UzJ1usefX2UD0pwpegXnsYWMMsMNBW2Iv6t4zD/PBOzmZ6dy/nsoVP70p2EhAS3MLL931a5ed/yHMxWm7hrCrwWAD8G1Mx5yu7wE/61oz+S6wIMXP7MHv8ai+KBhISIOBJcB0z69Thdmk6AXPr9NqIGZvGZsv/Zvwv7NiLIS4fb4duN9VZWddNplZD8yNfE5AU20jz3/nYVfD/q2+DTzossI2Tg0GZ2OG7nMxB228DrxN55cV9cPcAQzt5O8dwUzOS7U6pIHsmpinYCBR6YlZNnsXfr/rk5ih+Xsw17dvpZgbmq56GJjnqC2xFiIA9MV86aWza1xaBo4aynWLvsHpE890VWWHDmzcxbO3/oerCX+tdgPj8bvVpy/XAUtJ/3rqzByDI3Ruk6G4UjAQX67E3PEWeX6d14EbMP9mfXoIuw58EzDRUVtiLdQDdBfPcf5Mz149ueBr05l220xyC/zMfzlW38SbDyxn7WOv0dLc4rr6WZglaXE1HzOcn2rDkARmpCPdeQ62s37jTsFAXBgDPIf/dfB7MTcEaz2+xlexG8JPYm4qKtw0J75CzqBbjlmb7VThkP58dt4Mzr/hUmdB4Hj9Md55aiVv/epl6o5a7WfUnhfw8FkEMA0zA7m9L5n1mM6/M5MmnD4yyiIKBtJZ2bJUcDT2k/iuwvFNaByFDADFmA5hgI/K+xYV8JdXfYZJX76QEed8stOrBZLJJPtKynjv+T9SumItjdXe9vavxHSYvg/4iEoPzGYh04HWZzK7MLtB/gno7NBJEbCN8LuQxYWCgaSSDUsF92M3mfw+7JYTZoWwa+jMXvDLfLejYFA/Rl14NiMnj2Hwp4YxoHgo+QMKySs0e9Acq2uiobKOyj2HObr9IPtKytj19hbqy9PZCt/atZihOWnfbMxywNDXa5wpGMip4r5UcCl2G/qsoevLl8WhhZhnMt2xhNpNK47mA82E/5tlW0mgLZG7q8HAq/i/xipxf6rgfEdtO4aZC1AGvIcZqVwEfAu4DI08epeLmegV+osw6rLy5HuX9F2KeWwU+m/XHYqCQffQE7gX82jO5/XUgttTBc/13N5T270Bc6N6Jbr+vRgAbCT8l15UZStmQwvpvBzMud4/BFZghhYThP+bdpeiYJCdrsTcqfu+fl7DzV11L8weIlFf/9XAYszZNrF/JJlJb2AE5rznM0M3xLPdmIsnc481jJ+oz0qQj2rBzMzWHIP4inKp4LWYScFdlY9ZahhyPf8OzC6ojxHP/VsyzjjMjPHQdzm+yh4cHIYkaeuLGSr8CmanMo0YRF80YhAvfYHH8X9dNAH/0IX25WOWBn8YQRvTLftPtknXtAMjyM7HAe/TtfPsxT0Fg/Dl1GDwL5hgcC76Es0Uf4/ppH1fB09gOvV0XIMZOQ197bZXdmAepYilAWTXxMBV6Jl/HCgYhC+Jk5+5gkF4U4imw12PORekPWcAr0TQDldlOf6XV2a9XOAB/M9O9V0eRLP9407BIHxRMAgj9FLBOUQzOdF1qcDscyOWZmI+zNB/0M6WKsye2JK9FAzCFwUD/0IsFczF7JMS+vqyfT8LyeAbwExaBdCRMzB30nFJVMuBW4EDoRsiQWhVQngtmJ0PS4HNp/x3M1qV0FVRniqYR/bs1LcGM7pRGbohbcUlALT6K0wQyNSZ9GXAP5LeMbfS/SgYhKdgYCeqpYLZphSYgVkxkDHiFgDAfIl+HbgDs2IgExzGDJH9CjgeuC0SPwoG4SkYpK8vZnj+ptANiZndmO2Ft4VuSKs4BoBWeZgL8A46nkHq01ZgAebUK31JiGsKBuEpGLQvqlMFs8luzE6mGTESEOcA0CoHuBhzxvV1QH/Pr1eLGQL7L+BNOn+8rYgtBYPwFAyMqE4VzCalwFQyYE5ANgSAU/UBvgB8/mSZhJsvxC2YpTD/g+n0fZxvLWJLwSC87hgMBgNLgOmhGxIjazB9VdBHxtkWANoajNl2dBxwFjAeGAr0w8xkLcQsOanB/OOsxAzR7MVM6HsXWIdZ0icSVwoG4WV7MOiJOaDrLrK/X3FlIXBbyAboDyXSfSkYhJdtweAKzONR30sF0zZ0YB7TzhvEBROKGD+qgFGn5zN4QC4FfczJxPVNCY5WHmfXwQa27KrjT5uqefPdcg5XeD/fJwl8GbNsPAgFABFpS8EgvNZg0PZ0xTgEgzHAs8A5oRow8LTeXH/ZcL5y+UjOP7vz08KSSfi/96tY8sp+lr56gIqaEx5aCZhR509jRp0jpwAgIulSMAgvLsEgyFLB4UP6cPuc0dx8VTEFfXs6qbO+McHiFXtY8NRODh5tclJnG8uBWT4qTkUBQERs5QJj+WgwGI95NizROMhHg0EJUB+wTTcCD+F5a+ZePXOYd82Z/HDeOPrl9/LyGg1NCe5/cgf/9kQZx084X/x1JfCS60pTUQAQEV80YhBeJowYeF0qOLa4gCd/PJlzxp3mo/qPKNlazZy7Syjb53Qx2A5gIhGP4igAiEjUFAzCizoYeFkqePUlw1h8zyRvd/3tqalv5uYfbeDF1YdcVvsd4OcuK0xFAUBEMoWCQXg+g0EhZtt0J48DbplZzIN3TKBnjzDdWKIlyTfvK+XRF5zN39uPmUDpfflBKwUAEcl0mmOQGWznGMzDzAewdsvMYhbdOdFFVVaSSbj1vo0sXuEsBMwDHnZVWSoKACISVxoxCC/dEYMczB4Hf2H7gldfMoynfzo52J1/W4mWJNd/f52rxwEfYDauS7qoLJXM+ARFRNxRMAivbTA4DtxjW+nY4gL++NhFkT/zT6WmvpnP/O0aVxMDpwL/66KiVBQARKS7UDCIsd69cliz+KLIZvt3VsnWaj53y1ucaLa+eX8EmOugSSkpAIhId6c5BjHwva+O4SffGB+6GR268xebWbhkp2011cDpRLAkUAFAROTjacQgQwwf0ofSpZc4293Pl9qGZibMXsWhcuuJ/FcA/+2gSR3KrAcpIiKZoxFzGui6Nv9fIwYRu33O6Izv/AH65ffitr8ZzT/9cottVZcSQQDQCICIiBsaMfBgUP9ctj9/aSwCAEBdY4KxM9+wPUBoPeYoe680AiAi4kZ7IwYKBhZmTz89Np0/QGHfnsyePpyHntttU80kzO6JR9206uNpBEBEJAwFgzT84dGLunSkb0hrS6uYOvct22ouA15z0Jx2aQRARCQMzTFIYciAXM47K16dP8CUCUUMHZjH4QqryYDjUAAQEelWjmM20NmEOUWvVbcLBp8/fzA5MRynzsmBqZMH8uzvD9pU433NowKAiEg8tBcMsvZRwpQJRaGb0GUXTCxSABAREa+y9lHC+FEFoZvQZeOKC22rGOaiHR1RABARyU6xHzEYMzK+AeBTZ+TbVtHPRTs6ogAgItK9xGbEoKhf7xAv64SDtisAiIhIJDJu8mFhjNb/t9WvwLp7VQAQEZGgMi4YiBsKACIi0hXpzDFYjAkKXVLb0Myg/l3+9aBq65utq3DRjo5k1IQPERGJvdY5Bk8Ch2wqqqq17kSDqaq1OgsAFABERCTGjtj88o799a7aEbkP9jbYVqEAICIisXXY5pe37opvANi2p862ig9dtKMjCgAiIuLLAZtfXrupylU7Ivf2Ruu2b3XRjo4oAIiIiC8bbX555TtHSSZdNSU6ySSsXlduW40CgIiIxNYGm18+UnmcdzbHbxRg7aZKjlQdt61GAUBERGLLKgAAPPm7/S7aEaklL1u3uQUocdCUDikAiIiILxXAdpsKnnntAPWNCUfN8a+uMcFvX7c6BRBMcLJ+hpCKAoCIiPj0ss0vV9ScYPGKPa7a4t3Dy3ZTUWO9B8DvXbQlFQUAERHx6Xe2FSx4aid1MRgFqG1oZuHTO11UtdJFJakoAIiIiE+rAKsF/QePNvGTxVZPEiLx40e2c6j8mG01VcAbDpqTkgKAiIj41AQ8b1vJL5bupGRrtYPm+LFuSzWLntnloqrfYj4z7xQARETEt0dsKzjRnGTO3SXU2B+y41xtQzM3/mA9zQknmxY84aKSdCgAiIiIb6uBLbaVlO1r4OYfbSDRkjm7AzUnktz0g/Vs3+Nk2+IPgD+4qCgdOrNZRESi0AuYYVvJtt31fFh+jMsv+gQ5OQ5aZSGZhFv/tZRn7Jf9tfo+8K6rylJRABARkShsAL4GnGZbUcnWGnYfbOTyi4fSo0eYFJBoSfKtn23i0Rf2uqpyH/B3QGTLHRQAREQkCs3ACeBLLip7b3sNGz+oZcZnh5KXG+3T7Oq6ZubcXcLSV63OOmrrn4G3XFaYSuABFBER6UbyMDsDnuGqwjEj83nq3slMHt/fVZUdWrelmjl3l7Bjf4PLasuAiUQ0+7+VRgBERCQqCWAPMNtVhZU1J3j8xX2UV5/gwkkDvI0G1DcmuO/XZcy99z2O2h/009aNwGbXlaaiEQAREYnaMmCW60o/MSiP22/4JLfMKqawr5v727rGBP+5bDcLluzkcIX1Jj8fZxlwjY+KU1EAEBGRqA0H3ge8jNsPPK03s6cP54YZI5gyoajTqwWSSXOk79OvHGDpqweorLXe2789FcCnMRMAI6cAICIiIVwP/Mb3iwwpyuWS8wZxwcQiBrC43AAAAedJREFUxp9ZyOgR+Qzq35t++b0As4lPefUJdu5vYMuuOtaWVrF6XTlH3A/zt5UErgZe9P1CIiIimWYBpiPsjuXfHXx+IiIisdQbs0tg6M446rLq5HsXERHptgYDmwjfKUdVNgIDnHxyIiIiMTcC2EH4ztl32YvDPRBERESywRjMbPjQnbSvsgsY6+rDEhERySbDgfWE76xdl1JgpMPPSUREJOsUASsJ32m7KqtOvicRERFJIQ/4JeE7b5vSAtyPZvuLiIh02tXAUcJ35p0tVcC1Hj4PERGRbmMk8BLhO/V0y3Poeb+IiIgzX8ScHxC6g2+vlAGXe3v3IiIi3Vge8F1gP+E7/NayF5gP9PH4vkVERAQTBOYC2wnX8W8Hvg7ken6vIiIi0kYP4GLg58AR/Hf6VcATmMcRsT9NN/ZvQEREBDMqMB34AjANmIQJCDZagA3AG6eUJss6M4YCgIiIZKOBwPnAOGD8yf8OAwoxh/EUnPy5OsydfS1wCNgGbAG2AiVAeaStFhERERERERERERERERERERERERERERERERERERERERERERERERERERERERERERERERERERERERERERERERERERERERERERERERERERERERERERERERERERERERERERERAP4fPCyOKgPjNuQAAAAASUVORK5CYII=;" vertex="1" parent="1">
          <mxGeometry x="906" y="516" width="84" height="84" as="geometry" />
        </mxCell>
        <mxCell id="WWB7S82kn9Ua1kXxTO10-79" value="Ad-Hoc SQL Queries" style="text;html=1;align=center;verticalAlign=middle;whiteSpace=wrap;rounded=0;fontStyle=1" vertex="1" parent="1">
          <mxGeometry x="895.5" y="437" width="136.5" height="30" as="geometry" />
        </mxCell>
        <mxCell id="WWB7S82kn9Ua1kXxTO10-80" value="" style="shape=image;aspect=fixed;image=data:image/png,iVBORw0KGgoAAAANSUhEUgAAAgAAAAIACAYAAAD0eNT6AAAACXBIWXMAAA7DAAAOwwHHb6hkAAAAGXRFWHRTb2Z0d2FyZQB3d3cuaW5rc2NhcGUub3Jnm+48GgAAIABJREFUeJzs3XVYVVn3B/DvLboE6RAExe7Gwu7ubkdnjLFzRmfsHHPs7s7X7hY7wUQRQemOW+8fjIozSO19bsD6PM/v+b0id53FeLlnnR1rA4QQQgghhBBCCCGEEEIIIYQQQgghhBBCCCGEEEIIIYQQQgghhBBCCCGEEEIIIYQQQgghhBBCCCGEEEIIIYQQQgghhBBCCCGEEEIIIYQQQgghhBBCCCGEEEIIIYQQQgghhBBCCCGEEEIIIYQQQgghhBBCCCGEEEIIIYQQQgghhBBCCCGEEEIIIYQQQgghhBBCCCGEEEIIIYQQQgghhBBCCCGEEEIIIYQQQgghhBBCCCGEEELyC5G2E0jHCICxtpMghBBCBJQEIFnbSQCaLQAMAFQFUAmAN4CiADwAWAKwACDRYC6EEEKItigBxAKIBhAI4AWAAAB+AG4BkGsiCaELAHsAXQE0BVATgInA1yOEEEL0WQKAqwBOANgJ4LNQFxKiABADaAVgAIDGAKQCXIMQQgjJ6xQATgJYB+AoABXP4DwLADGA9gCmASjBMS4hhBCS3z0FMA/ADqQVBsx4FQC1AawAUIpTPEIIIYT8VwCAXwCcZQ0kZnx9QQBbAVwE3fwJIYQQoXkDOA1gMwAblkAsIwBVAewC4M6SACGEEEJy5QPSFtpfzc2Lc7v1bgKAbQCsc/l6QgghhLCxANALaX0Fruf0xTktACQAViKtAGCdPiCEEEIIGzGAhgDskLZjQJ3dF+ZkCsAQwHakrfQnhBBCiG7ZC6AHgNTsfHN2CwAx0ub7O+YyKUIIIYQI7xCADkjrNpip7E4BLAHQlyUjQgghhAiuGNKmA45n9Y3ZKQDGAZjMmhEhhBBCNKIS0s4auJnZN2U1BVAVwBUAMk5JEUIIIUR4cgB1kcnugMwKAGsADwC48s2JEEIIIRrwDkB5AFEZ/WVmB/XMhwZv/oZGRjAyNtbU5QghhBBm6mxvukuTkpyElORkYZL5r0IA5gIYlNFf/mgEwAdpQ//cTwsUi8WoXN0Htes3ROXqNVC4SFE4ODlDLKa2AoQQQvRPrAJIznLN/TcqlQqfQ4Lx7tULPLh5DTcvnMHDW9ehUnE97O/r5ZB2T//PeoCMbvBiAPcAlOWZgYWlJXoPHoqeAwbDxa0Qz9CEEEKIVkWlAvIcjgakFxL0DnvXr8LudSuREBfLL7E095G2MPC7CiOjAqAjgD28rioWi9FzwGBMmD4TlgUK8ApLCCGE6AyVGohIzUEbvh+IiYrEsumTcGDzWt4jAu0BHEj/hYwKgLsAKvC4WkFbOyzbuBV1GjTiEY4QQgjRWcnKtOkAHu5cvYgJ/bshPDSET8C0Rf0VkK5G+XcB0BTA/3hcybtESew8dgoOTs48whFCCCE6L0YOpHB6cA8NDsLQdk3wxv8Zn4BAEwCnvvzh3yvv+vO4QtHiJXDg7CW6+RNCCMlXzKT8Vs87OLtiw4nLKFysBKeI39/j0+dpDeAj0g79yTVbO3ucvHEHjs4uLGEIIYQQvRQrB5I5Tt+HBgehW51KiAz7zBoqGYAjgGjg+xGATmC8+YvFYizftI1u/oQQQvIt08w67OSCg7MrZq3dBpGIeWzBCGkHBQH4vgBoyhq5a5/+qFWvAWsYQgghRG9JRICMcxedar4N0boHlzP5mnz5H19SlAAIB2CV24imZma4FfAW1jYFGXMjhBBC9FuyKm0qgKeo8DA0K+2BpMQEljCRAGwBqL6MAJQHw80fAHr0H0Q3f0IIIQSAgQDNbQsUtEX7vhl29c0JawDlgG9TABVZI3bvN5A1BCGEEJIniAFIBSgCOvUfwmMtQAXgWwHgzRKpbMVK8PIuxpoQIYQQkmcYcD9NB3DzLILiZZl79RUDOBUAtes3ZE2GEEIIyVOEGAEAgKp1mRfbFwW+FQDuLJEqVK7KmgwhhBCSp0gEGAEAgLJVqrOG8AC+FQAWLJFo+J8QQgj5nlCH3LsXZb7nWgDf8jNniWRr78CaDCGEEJKnCFUAFGS/55oD3/IzY4lkYmrKmgwhhBCStwg0BWBiynTLBv5VAEhYIkkkTC8nhBBC8hyB7v8QSySsWwGlgHAjFIQQQgjRYZyPLCCaEhsdjaioSABAakoKkhITAQAyA4OvUzKmZmawtikIsZjqPEIIId+jAkAHpSQnI+DZU7wK8EfQu8Cv//cp5COiIiIQFRkBhUKR7XgFrG1QwMYGBW3t4ObuAVd3d7i5e8Dd0wvFS5aGhRVTF2hCCCF66MskgpolSHCSikdrwnxJnpqKR/fv4s7NG7jvdwvPnzzGm5cvoFQqNZaDi1shFC9VGmUqVESlajVQsWp1mJkzbQwhhBAC4HOKMHHLW4mhVjPdukVUAGiYSqXC4/v3cOH0SVw6exoP791BclKSttP6jkQiQbFSpVHLtz58GzVBVZ9aMDA01HZahBCid6gAyOfkqam4dO4Mjh/Yh3Mn/4fwsM/aTilHTExNUdO3Ppq1aYcmLdvAwtJS2ykRQoheoAIgH1Kr1bh28Tz279yOk0cPISYqStspcWFgaIi6DRujTccuaNq6LQyNjLSdEiGE6CwqAPKRz59CsWfLJuzYuA6Bb15rOx1BWVlbo2P3XujebyCKFi+h7XQIIXomNSUFfjev49G9u4iJjoJYLIapqRnMLS1hbGICY2MTWFpZwcTUFMbGJjA1N4eZuTmMjU30pgEdFQD5wNOHD7Dqr4U4sm835HK5ttPRuJp162HwyNGo17hpvn8vEEIyp1QqsX7FUqxYMBdhnz/lOo6FlRWMjU1gbGICC0tLmJqawdjEBKZmZjC3+KeIMDGBpeU/RYSJCUzNzGFuYfGtwChQAHb2DjA2MeH4E35DBUAedvncGSxfMBdXL5zTdio6wbtESfz06xi079oDUintMiWEfC8+Lg79OrXVqc9MkUiEQh6F0bpTF/QZPBT2jk7cYlMBkAfduHIJc3+fgtvXr2o7FZ3k7umFUZN/Q9vO3ahVNOEuNjoaiYkJAPD1KY7oPqVSiW4tm+DK+bPaTuWHLKysMHPxMrTv2oNLPCoA8pCnDx/gj4ljdfoNrEuKFCuOyTPmoFGLVtpOheihpMRE+N24hhtXLuHx/Xt4/SIAH96/+0+fDLFYDBe3QvAs6o2SZcuhRu26qFKjpt7ME+cXG1etwOSRv2g7jSyJRCLMWfY3eg4YzByLCoA8IDzsM+b+PgW7Nm/QaJOevKJ2/YaYPn8xvEuU1HYqRMcplUpcOH0S+7ZvwaljR5CSnJyrOAaGhmjQtDk6du+Fek2aQSaTcc6U5IRKpUIlLzeEfgzWdirZIpVKceKaH0qWLccUhwoAPaZSqbBp1QrMmz4VsTEx2k5Hr0mlUvT56WeMnzYDpmbMx1mSPEaemop9O7Zi2fw5CHz9imts10LuGDp6HLr27kdNrbTk9vWraFOvlrbTyJEateti3+kLTDF0uQCgU2IyEfDsKVr71sSUUcPp5s+BQqHAuuVL4FuhFM6fOqHtdIgOuXzuDOpWKIXRPw3gfvMHgKB3gZg4fChqly2OM/87xj0+yVrAs6faTiHHbly5hHdv32g7DcFQAZABpVKJJXNmolG1Crh764a208lzPrx/hx6tm2F4v15UWOVz8XFxGNa3J7o0b4S3r14Kfr33gW/Ru11LDOrWEbHR0YJfj3yjj/+91Wo1/G5c03YagqEC4F+C3gWiXYM6mDttCuSpqdpOJ0/bt2MrGlQuSzsp8qlnjx6icfWK2L9zm8avfezAPjSqVgEP797R+LXzK309dTQoMFDbKQiGCoB0Du3eiQaVy+bpik/XfHj/Du0b1sX8P36jxZX5yNWL59Gmfi2NPPX/yPvAt2jfqC7Onfyf1nLIT8pVrKztFHLFyNhY2ykIhgoAAHK5HFNHj8DQ3t0QFxur7XS+MjQ3gFN5O5Tp5I16k6vB2Jqt7/6cMQ4Y1bcgGvqYwclOd1ZEK5VKLJ71J7q3aoqoyAhtp0MEdub4UfRo3QzxcXHaTgWJCQno17ENjuzbo+1U8rySZcvB3dNL22nkmJ2Dg7ZTEEy+3wXw+VMoBnfrhFvXrmg3ERFg622NQjWc4VrZAQWLFoC5w/d7mNc12ovY4PhcXyLwQjEUcv5244+MUeJxQDKu3UvA2evxuHY3EalyprcCMxe3Qli3az/KVKio1TyIMG5du4KuLRrr3BHYMgMDbD14DLXrN9R2Knnavh1bMbxfL22nkSNnbz9AiTJlc/16Xd4FkK8LgOdPHqNnm+b4+CFIK9c3LWgM95ouKFTDCW7VnWCSxRM+7wLg3xKSVLjsl4DTV+Nx8nIc/N8I9M7NgpGxMZZv3IZmbdpp5fpEGIFvXqNJjUo6uxjMzNwcxy7fpIOtBPZTzy44sne3ttPIFpmBAV6Fx0FmYJDrGFQA6KDL585gYNcOGh/ylxpK4FnPDSVaecHdxxkiSfb/uwldAPzbnSdJ2HIwCjuPxSA8SpHr6+aGWCzGb3MWYNDwXzV6XSKM1JQUtPL1waN7d7WdSqa8S5TE/67eFuxgGJLW72HkoL44uGuHtlPJUvHSZXDO7yFTDF0uAPLlGoA92zajZ5vmGr35O5a1RYNpNTD4Uhc0X1AXHrVdcnTz14ZKpYyxdKoTgq8Ww8GVhdC6gQUkGspZpVJh2rhR+G3MSNY3OdEB86ZP1fmbP5C2V33GpHHaTiNPkxkYYMWm7Vi9fQ+KlSyl7XQyVbJ07of+9UG+GwHYtHolJo/8RWM3Ffeazqg6qCycK9ozx9L0CEBGXr1Lxdw1YdhyKEpj6wU69+qLBX+vpUOF9JT/0ydoXK2C3hyTLRaLcfzKLZStWEnbqeQLL54/g/+Tx/gQ9B5JiQlISkxEbEwMEhLikZiQgMSEBMTGRCMpMRFJiYkIeheosdymzp6PIb+OYYqhyyMA+aoAWLloPmZOHi/4zV8kFsGrnhuqDCoL+5I23OLqQgHwxYdQORasD8faPZFITFJxiZmZVh07Y9mGrdTPXQ91alIfVy+e13YaOVKxSjUcvUxNwHSJUqnEpBE/Y+u61Rq75s5jp1CnQSOmGLpcAOSbKYAVC+ZixqRxgt/83X2c0etgG7RcUo/rzV/XuDjI8NdkR7w9742h3W0Enxo4snc3hvTsAoVCs2sRCBu/G9f07uYPAHdv38Sls6e1nQb5hzw1FUN7ddXozR8A0+p/fZAvCoANK5dh5pQJgl7D0sUcrZbWR7s1jWDjpZ8dr3LDzkaKFb874c4BL/hUEHbh1P8OHcCvA/tCpRJ+xIHwsWzebMFiFywghX1BqWDxl86dJVhskn0J8fHo2bYFju7fq9Hr2trZw9aOfepWlwn326Mjdm5aj6mjRwgWX2okQeX+ZVC5X2lIjfLvHHW54ka4stMT2w5HY/z8EISECfOkvn/nNpiYmmLOsr/1YtopPwsJ/sD10CdLcwn6dyiAto0sUKWMCQxkaf/+qXI17j1NwsEzsVi3JxKRMXw6St68ehlvX72Eh1cRLvFIzkVFRqBn6+a453dL49cuXrqMxq+paXl6BODM/45h3M+DBRv2dyxri16H2qL60HL5+ub/hUgE9GxjBf9T3ujZRrhRkK3rVmPRzD8Ei0/42L9jG7fRmkGdrfHqbFEsnOiImhVNv978AcBAJkK1ciaYO9YBr895Y3gvG/CoDdVqNfbt2MoeiORK6MdgtK1fWys3fwAomceH/4E8XAA8vn8PQ3t1FaS/vEgiQtXBZdF5azNYuZpzj6/vLMzE2DLPFdsXusLCTJi32KKZ07F3+xZBYhM+Th45xBxDIhFh9Z/OWP2nMwoWyHrA0spCgiVTnLB1vitkUvYq4MThg8wxSM69ffUSrX1r4sXzZ1rLgUYA9NTHD0Ho1bYFEuJzv2L+R8ztTdFhfRP4DK8AsSRP/ufjpltLKzw4UgTVyvFfG6BWqzFmyEBcu3SBe2zCLi42Fo/us+/7nzfOAYM6W+f4dd1bWWH5707M1w949hRhnz8xxyHZ9+TBfbT2ranR7X4Zyes9AIA8WACkJCejf+d2+BQawj22Ry0X9DzYGq6V8+7hELx5uBjgys7CGDfQlntseWoqBnfrhA/v33GPTdj43bjGvGOjeV1zjOpbMNevH9TZGp2aWTLloFarcfPKZaYYJPtuXLmEDo19ER72Wat5yAwM4OVdTKs5aEKeKwAmDB8qyBnfZbsUQ5sVDWBkacg9dl4nlYgwd6wD1s104TIsm15kRDgGdu2AlORkrnEJG9ahW8k/7xlWs0c7fLdeIDe0OQydn5w+dgTdWjZBbEyMtlOBl3cxpv7/+iJPFQBb163G7i0bucYUiUWoM7Yy6k+trvOte3Vd/44FcHytOyzN+S6YfHj3DiaN/IVrTMLmVYA/0+t9KpigZBG2468BoLCrARr6mDHFePWC7WchWdu7fQsGdGmvM4V8fhj+B/JQARDw7Cl+GzOSa0ypkRQtFvuiYh/d7letTxr6mOHKzsJwc+Lb0W/npvU4vGcX15gk90I/BjO9vlV9C06ZAC3rscUK+fCBUyYkI2uWLsbIAX10qslXflgACOSRAiA1JQU/9+nOtXqUGUvRfm0jFGlQiFtMkqZ0USNc3+0JTze+Q2zjhw9BcNB7rjFJ7sTHxTG9vlhhflNtxT3ZYsXHs/0s5MfmTpuCaeNG6dyBX/lhCyCQRwqA2b9NwrNHbEc2pic1kqD1igZwrpC3u0Bpk7O9DOe3FEYhjiMBsdHRGNa3pyBbP0nOJCSw7cBx4Njhz8GWLVaiALuJ8juVSoUJw4ZgyZyZ2k4lQzQCoCf8blzD2mV/cYsnMZCg1dL6cKvqyC0myZibkwzntxaGiwO/IuDm1cvY+PdybvFI7kilbDfd+ER+7Z7jE9hiGZsI2+I6v/nS13/L2lWCxGddvJcfWgB/odcFQGpKCsYMGcit25hYKkaLRXXh7uPMJR7JWmFXA5zb4gFHxqe09OZOm0JbA7XM2JjtpvkhlN/RwUEhbLGsCuS8DwHJWGJCAnq1a4kj+/YIEr96rTro0qsvU4y8fgBQenpdACydNwsv/Z9zi9foDx94+rpxi0eyp6i7IU5u8ICZCZ+3Y0J8PCYMG8IlFskdOwe2LXznb/IbdmeNZWVNBQAP0ZGR6Ny0gWCnLDZu2Ro7jp5kbiBUIp8M/wN6XAC8efkCy+bP4RavYp9SKNHai1s8kjNlvI2weZ4rlx7uAHD+1AmNnx5GvnFxY1s8e/R8HJJT2BeGKZRqHDobyxTDwZG9o2B+F/oxGG0b1Mbd2zcFid+pR2+s3bkPhkZGeP74EVOs/DL/D+hxATB9/GjIU1O5xCpUwwm1R1XiEosnlVqNZKUKMakKfE5KhVLF+IEY+xqI/wCkRAMqfkOsvLRrZIHffrHjFm/6+NFISkzkFo9kX5nyFZleHxapwLKt4cx5rNkVifcf2d7rZStVZs4jP3sf+BbtGtRBwLOngsTvN3QYFq3ZAKlUiojwMOYusCXLlOOUme7TywLg0tnTOPO/Y1xiFShkgeYLfXWmyY9KDSQqlAhPSkVIUioikuWIlyshZ735A2k3/ZQoID4IiPIHol8CSWE6VQz8/os92jTgswf844cgrF6yiEsskjNVa9ZijjFrVRheBqbk+vXvP8rx+1L2lrLlKlIBkFtPHtxHy9rVEfjmNffYIpEIE6bPxIxFSyEWp93KWJ/+ZQYG8CrqzSM9vaB3BYBSqcT08aO5xJIZS9F6eX0YWWi/5WOqSo2oFAVCE1MQlaJAikoNCL01VpkMJIamFQOxb4FUtqFSHkQiYMt8V277wJcvmCPIuRAkc/aOTijkUZgpRnSsEq1+eofwqJw3iImJU6L1kMBcvTY9A0NDuBf2ZIqRX928ehkdGvsKcpiSRCLBnGV/Y/j4Sd99/RljAVCkWPF80QL4C70rAA7v2QX/p0+4xKo1qhKsCwt3bn12pKhUiEiWIywpFYkK5X/u+bGBsXi59wWujb+CpPAkpmv1/gOYtRm4+QRQ/HurvDweiHuXNiqQEgXhq48fMzcVY/M8F0g5jMokJiRg2bzZHLIiOVWjji9zDP83KajS/jUeBWS/yVfA2xRU7fAaD56zNwZLTUlB89rVuPYZyQ/OHD8qWF9/mYEBVm7ZiZ4DBv/n71hHAEqUyj/z/wDw5ROW6dM+OEkFEa/VW5lQKBSoU64E3r56yRzLraojOqxv8u2/gIbJVWrEpMjTnvT/JS4oDu9OBuL9yUDEBQnThaygFdCpPtC9MVC9FP67+E5iCJg6AjJzQa6fHZMXfcKsVexDuAaGhrj+9CWcXFw5ZEWyy+/GNbT2rckllkwqwuAu1hg/yPaHfSNCwxRYsD4My7dFICWVbwErMzDAyAlT8MvYCZDJ+Laxzmv2bt+C0YP7C9La19TMDOt3H0Dt+g0z/Pt2Derg5tXcn944dfZ8DPl1TK5fn5HPuZ/FylR5KzFrB0WRXhUAuzZvwKjB/ZnjGJjJ0OtAG1g4sx0SkhtqAPGpCsTJ//W0rwY+XgtGwHZ/fL6r2fPHvd2AUV2BXs0Ao3+PfhmYA6ZOgFjzw2KpcjUqt3uVo6e/H+k5YDDmLhem8Qj5Md8Kpbgu/hKJgEqljFGtnAkc7WQQi4CPn+W48yQJNx8kglNLkB8qXb4C/lq7CcVLlRb2Qnpq7bK/BGvtW8DaBlsPH0eFylV/+D31KpZmGiHedfz0D4uL3KICgAOVSoXaZYvjzcsXzLEaTvdB6Q5FOWSVMykqNaKS5VCm/0dTA0Hn3uPJmkeIDdTuHLxdAWB0N2B4p38XAuK00QAjze+HfvA8GVXav4JcwfaBYmBoiFv+b2BPW7o0av2KpZg6eoS20+BKZmCAUZN+w89jxjN3PMxL5k2fir9mzxAktoOTM3YeOwXvEiUz/b6Ojevh2qULub7Ow/eh3LsA6nIBoDdrAM4cP8rl5u9S2QGl22v+5h8vVyIi6fubf8STCJwdcBrXJ13V+s0fAD5HAeNXAMW7ALvPAt9SVQEJwWlrBFSa7bNfrrgRRvcvyBwnNSUF61cu45ARyYnOvfrmuaJLnpqKudOmoGWd6oJtbdMnKpUKE4cPFezm7+FVBIcvXM3y5g+kjdDklmdR73zTAvgLvSkAVv21kD2ICKgztrJG5/1VajXCk1MRk6qA+p+BFmWyAvcW3MHZ/qcQ8Zh9rzNvgSFAl6lAk1+BoPSzEamxQOyrtN0DGjRxsB1srdmftLauW40EOthFo8zMzTFl1lxtpyGIh3fvoHH1ilg+f45OHWWrSfLUVAzt3Q2b1/wtSPxS5crj8IWrcC3knq3vb9m+U66v1apD7l+rr/SiAHh49w5uXbvCHKd4c0/Yl2R/mswupVqN8GQ5UpTpnvofh+Nk9xN4ueeFNhfaZ8vpW0DpHsCWE+m+qEwFYl6n7RrQEAszMX4fxt4gKCYqCru3bOSQEcmJdl26o3J1H22nIYjUlBTMmjoRrX19uLYl1weJCQno3b4VjuzdLUj86rXqYN+pCyhom/3f/fKVq6BhsxY5vpaVtTX6/zw8x6/Td3pRAGxbv4Y5htRQAp8RuR8eyimFSoWwJPl3DXxe7X+J84PPIl6glf1CiIlP2z44ZB6Q+qVfkFoFxAUCKfy3+PzIoM7W8PZg7w2wfcNaDtmQnBCJRKjToJG20xDUfb/baFStAlYump8vjqOOjoxE52YNcfHMKUHiN2rRCtuPnICFpWWOXztvxWo4OGX/QDeJRIK/1myEtY3mHg51hc4XAPFxcTi0ZydznPI9SsDCSTOr/uUqNcKSFV/n+1UKFfxm3cbduX5QKQRepiyQVQeB+sOAsOh/vqBWAwlBaW2FNUAmFWHuWLYDZgDg+ZPHgvUjJxm753cLS+bq5rnvPKUkJ2PGpHFo41sTr18EaDsdwXwK+Yh2Devg7q0bgsTv2L0X1u3aDyNj41y93t7RCXtOnEXhIlmv9TI2McHyjdvQqEWrXF1L3+l8AXB47y7meVuZiQxVBmqmwYNSrUZEshyqf27+ylQlro2/gjeHXmnk+kK6+hCo/RMQHPbPF9TqtLMF5JoZ0WjdwAKVSuXuQyG9HRvWcciGZEdkRDgGd+vE7dwOfXD39k00rFoeq/5ayO2ocl0R+PoVWvvW5NaM7d8GDhuJv9ZtYt5d4eVdDCeu+WHkxCmwsPpvszepVIpWHTvj7O0HaN2pC9O19JnObwNsU68Wbl+/yhSjfPfi8J1UjVNGP6ZSqxGWLIfin2F/RZICV8dcxie/UMGvrUkeTsC5ZWn/H0DaZhJzD0DGdgZ8duw4Go3uo4OYYphbWODR+08wNDLilBXJiEqlQo/WzQQbJtYHlav7YPGaDdl6GtV1Tx8+QLeWTQRp7QsA46fNwIgJk7nHVSgUuHvrBt69fQOFXA47B0dUqe6TYWEgBF3eBqjTBUBI8AdULlKIqYoWiUXoc6QtCnjkfC4pp8KS5UhVpuWqUqhwdfQlhNzIm33oPZyA62sAB5t/viCWApZegFjYLmlyhRqe9QMQFMJ2gNH63QfQtHVbTlmRjCz483csmvmHttPQOiNjY4ye/Dt++nUMJBKJttPJlXt+t9CjdTNER0Zyjy0WizFryQr0GvgT99i6QJcLAJ2eAjiybw/zEFrhuq4aufnHpCq+3vyhBu7Mvp1nb/4A8PYj0GIMEP/leAKVAogLgtBbG2RSEYZ2s8n6G7NweJ8wK5dJmqsXzmHJnLw/758dyUlJmDllAtrUq6WXawPOnjiODo18Bbn5ywwMsHLzjjx789d1Ol0AHDuwjzlGhZ4lOGSSuWSlCvHybyt/n29+irdH3wh+XW276w90+y1dwyBFApDI3rs/K4O6WMPUmO2te/Z/x5CUmMgpI5JecNB7/NSji06vhjcxNcWCv9di/so1MLfgc/x0Vu7euoFG1Spgw8plerM2YP/ObejXsQ2Sk9gOIsuIiakpthw4ilYdO3OJxX+xAAAgAElEQVSPTbJHZ6cAIsLDUNbNgekXxcbLCr0PCzvMq1IDn5JS8GW3X9i9z7gw9BzUGRzyk1fN+wUY2z3dFywKAzJTQa85cHIw1u1leyLZcvAYGjRtzikjAqQ1hmlbvzbu+d3Sdio/5FPHF3OXr/o6Lx8c9B6jBvfHlfNnNZZD9Vp1sGjNBuYjk79QqVQI/RiMoHeB+BwaiqSkRCgVClhaFYCFlRVsbArCs6g3DAyzv5V23fIl+H3sr4L09beytsbWQ8dRsYrwa7O0TZenAHS2kfXFM6eYq+RiTfn8cmUmRq74evNPjkrGjSnXBL/5SyQSlCxVCiVLlUaRIkVhbWMDy38WtCTExyMmJgavXr1EwPPnuHv3DlKShe3cN3kV4FMGqPHlfJT4YMCqSAZHDPLTpYUlcwFw4fRJKgA4mzZ+tM7e/D2LemPs1On/eeJ0dnXDruOnsW39Gvw5cSzi44Tf1XLjyiXUr1QGk2fORZ/BQ3P1APX4/j2cPn4Ut65exsN7dxAXm3k7cZlMhqIlSqJ0uQrwbdQEDZo2h7FJxgt35//xGxbP+jPHOWVHdvv6q1Qq+D95jA/v3yElRaC7KEdGxsZwc/fIVstiXaGzIwC/9OmBA7u2M8Xoe6ydoPP/KSoVwpO+LUa7Mfka3p95J8i1DAwM0KBRY3Tq0hV16vrCKpsrWJOTk3H71k0c2LcXB/fvR2ysMM17iroBD7emO0TIxAEwthXkWgCgVKrhVNMfnyNy34LVvbAnrj/T/+2ZuuLwnl0Y0qurttP4j2o1a6P3oCFo0b5jlovwgt4FYvTg/rh68byGsksbkVi4ej3c3D2y/N6wz5+wa9MG7Ny0HoFvXjNd18TUFA2aNkfvwUNRvVYdAGk33Sm/DsOm1SuZYv+Ih1cR7Dp+OtPWvokJCVi9ZBG2rPkbn0L1bx2Vs6sb+v88HP2G/AIDQ0OdHgHQyQJArVajjKs9IsLDsv7mH7D1tkbPA6255fRvaqi/6/QXcu0jLv96kft1TE1N0W/AQPwyfCTs7NkOqkhKTMTmTRuwbMlf+BgczCnDb37rB0wf+OVPYqBAUUF3BQyd9hF/74hginH96Uu4e3pxyij/eun/HM1qVuF21oJlgQLYuPcQnjy4j7MnjuPe7ZvZfjI3MTVFuYqVUb9pczRt1SbH/75qtRqb1/yNmZPHa+zsCFMzM0ydPR89BwzO8LM0IjwMy+bNxtZ1qwVZu1KlRk0MGzcR+3ZsxeE9u7jHB9L6+m8/ciLTA3devwhAr3Yt8fbVS0Fy0KSSZcth077DkNm5CRI/zxYArwL8UbtscaYYNUdWFLT5T6JCiaiUtKdPZaoSJzoeQ0JIAtdrdOjUCTNmzYW9A3sHvPSSk5KwaOF8LF28iOvQmoEMeLwtbTQAAGBkA5gKdxLcxVsJ8O3Jtthy8ZoN6NyrL6eM8qeE+Hg0r1UVL54/4xJPJBJh0/4j3/V0VyqVeOn/HG9fvcSH9+8QHvYZyUlJUKvVMDI2RkFbOzi7usHD0wtFS5Tkckzvu7dvMGpQP9y4cok5VnbVqtcAC1etg4tbIQBpT+Rb1q7C3GlTEBMVpbE8eKtWszY27T+SaWvfjx+C0MynCj5/yjt9Uwp5FMbmc7dgJUCb4TxbAOzctB6jfxrAFKPfifawchNude/npNSvT/8vdgXg/qK73GJbFSiAlavWoGnznB9qkRPPnz1F3149EcDxEJMuDYGdX7Z+i0SAlbdgowBKpRoutf0RGpb7aYBufQdgwd90PgCLob274dBu9nbdXwwbNxET/5jFLR4LtVqNjX8vx6ypE5GYwLfA/xFzCwtMnT0fDZu1wLC+PTU6HSGEhs1bYvW23Vm29u3YuB6uXbqgoaw0p2HrDpi/ZS/3uHm2D8Dt69eYXm/pYi7ozT9Zofp681ckKfB8E78zwYsVL44r128JfvMHgOIlSuL8pSto2YrfVMmec8DjL1OTajWQJNxxxxKJCPWrs53v4HeD7b2W3238eznXm79PHV+M+12YxWe5IRKJ0G/oMJz1e4iqPrU0cs242FiM+3kwqhYrrPc3/w7demL97gNZ3vyvXjiXJ2/+AHD2yH74P7qv7TQypJMFwD3Gw1qcK7LNlWclLt2e/9cHXyE5ks8q+0qVq+DEmfNwcXXlEi87TExNsXHrdvTp159LPJUK+HNDui+kRKadHiiQmhXZthu+CvBHbLRmDjTKa+753cK08aO5xbN3dMLKrTt1sluee2FP7D9zEdPnL/7hynneUvVg5XtmBg4biSXrN2drOuawQEcK6wK1Wo1T+3Xz59O5AiA5KQlvXr5giuFcQbgCQKFSI1X1rePf6/18FqsUL1ECew8ezvbqfp4kEgkWLVmGbj16col38BLw4Us/ILUKSBXu2OCaFdk+jNVqNZ49ecQpm/wjOjISQ3p04XbIj1QqxaptuzJdIKZtYrEYA4eNxPm7j1Gjdl1tp6PTfh4zHtPnL8721PD9O7cFzki7ntzVzZ9P5wqAF8+fMXcQE3IEIDFdbqG3QhAXxL5n2N7eHoeO/k8rN/8vRCIR/lq2Aj412Yc5FUpg3ZF0X0gRbvFSySJGsLFie2J8/uQxp2zyB5VKhaG9uyHoXSC3mJNnztXYEDurQh6FsefkOfw+d2Guj6zNq8RiMWYvXYnJM+bk6HXhn4Q5YEhXhH/Sze2MOlcAPGd8GjO2NoK1u3B7/5MU34az3xxm24cLpD19r9mwiXmLHw8ymQzrNm6GrS37/v31R9O1CJYnACphjoMViQAfxmkAfyoAcmTxrD+5nvDXrE07DBr+K7d4miAWizF4xCicuXUfFatW13Y6OuFLX//eg4bk+LVyOdvhXrpOoaM/n84VAKxbiZzK2n1rb8SZXKX6etSvMkWJkOsfmWMOGjwEtevUZY7Di4OjI+YuXMwc58Nn4Fb6tZGpmXcpY1G9HNs0AK/ta/nBpbOnsXgWvxP+PLyKYPGajYIdJy40z6LeOHT+CqbMmpevj5c2MTXF5v1HqK+/ntG5AuB94Fum1wvZ+S9Z8W3LRejNECiScr/9DEgb+p84dSprWty1bdcevvXqM8c5dDndH+TCbaEq5pn9/uYZYX3P5RcfPwTh597duR1kY2xignU792nsMB6hSCQSDB01Fqdv3kOFylW1nY7GWVlbY/f/zqBuw8baToXkkM4VAKzzilZu5nwSyUBKug++4CvsnfR+HTMW5ua6+eE3dRr7U97Rq+n+IE9INyfAl6ebQdbflIlPIR/1fsW10OSpqRjcrRMiI/ht65y9dCWKlxauWZemFSlWHIcvXsOkP2fn6NAdfWbv6IQDZy7RNIie0r0CIDCQ6fVC7f9XQw15ugIg/GHu2xQDQEFbW/Tqrbsd6MpXqIB69RswxXgeCER82QCgVgIqYQ4l8nQ1YDp3SKVS4cN7Yc5wyCumTxiDu4zbc9Pr3m8gOvXozS2erpBIJPhl7AScunEXZStW0nY6gnL39MLhC1dRrGQpbadCckmnCoCkxERERbL1di8gUAGgUKm/nvqXGpOCuPdsc9qdu3TV2H7i3OrN2BtArQZuPkn3BTn/HuYAYGIshpMdW7fBj8EfOGWT9xzeswsbVi7jFq90+QqYsWgpt3i6yLtESRy9dAPjp82AzIBthEoX2Ts64fCFq9k6wIjoLp0qAFhv/lJDCczshbmpKtId8RvxNIKxeTLQpVt3xoyE17hJU+atiTfTLwRUCjfMXsSd7UM2Mly4joX67KX/c4wZOjDrb8wmywIFsGbH3nyxYE4qlWLEhMk4ef0OSpevoJFrSmRiOJazQ5GG7ijR2gvuNZ1h7sC2SyYjkRHhertwk3zDfmIGR6wfwmb2phCJhXlTKtLNX8e9Z9v77+jkhFJ6MPdpaGiIOnV9cfjQwVzHePE+3R8E2goIAG6OBgByv9CQ59x2XpEQH4+BXTtwOxFPJBJh6brNKORRmEs8fVG8VGkcu3wTy+fPwV9zZnBrnpSetYclqv5UFp513WBg9t/RsM/PI/BodwCeHHgJlZJ9Eac8NRV7tmzC0NHjmGPxUKhaC4il/EdaEuVpz3rK5HhEPDzNPb626VQBwDoCYGAq3NGz6bb/IyGY7QOxVu06jNloTu26dZkKgDfpd0oqhBsBsDBjG8yKimB77+VFY38exHWL5M9jxqNh85bc4ukTmUyGXydNReMWrTBiYB88ffiAS1yRWIQawyqgcv9SEEt+/DtgV9wGDabVQPmeJXB05AVEvmFvf71/5zadKQBqj1wNQ/MC3OO+i1FDqQaSPr3GjVG6/9CWUzo1BRDD2JNdZiJcPaNMNwIQz1gAlClbjjUdjSlTtjzT69+k3yyhFq4Zhpkp21s5NobOA0hv46oV3A/5GT9tBrd4+qpEmbL439XbqFStBnMskUSEFot9UXVQmUxv/unZeFqh647mXNqlP3/yGCG0dkav6VQBwDo0ZmAi3AhAuiUASIlmW81epEgRxmw0p0hRtlwjY9NaAwNIWxUo0MFAZiZsb2XaBvjNfb/bmDZuFLd4unzIjzbIZDJEhLPtIgKAOmOroEiDQjl+naG5AVotrQcLZ7aTNAFw7QhJNE+nCoBUOVsBIDMWbgQg/bnLiiS2swqcnJ1Z09EYS0srmJqyfVAkJKX7g64WAALMy+qjqMgIDOrWMV8d8qNp0ZGRCHz9iimGcwV7VOhZItevNy5ghPpT2ffuP7x7hzkG0R7dKgAYn8JkAo4ApF/0z9oB0MxMuGZFQjC3YMs3If2AiWAFANvTJY0ApPVD+KVPDwQHvc/6m7Np0ow5enPIj6Y8uOv33QNFbtQcWZE5D49aLnCp5MAUI+DZ06y/iegsnSoAWE8BlBgKN8SY/tdVJWe7iRnqWZcw1nxT0j9MClQAGBmy7f5gfe/lBYtn/YkLp09yi9esTTsMHsFvKiGvYG06Ze5oyu3I82It2HZkvArw55IH0Q6dKgAMGBtmqOTCfYinv71IjdgKjYRE4friC4F1G5hZ+tYMImGKtKQUtsJCJhNu9EgfCHHIz6LVG2iveAaiIyOZXu/u48ztwDN3H7bpyOioSObRDKI9OlUAsHbMUjI+mWcmfXsBKeNug9gY4U7G402tViMujq3vgVn6I9PFwrzlkpLZPoTyS+/2jAh1yI+FpXAHc+mz6OgoptdbOLIv3vvC3N402zsIMqJUKpGYoF8PNOQbnSoADGSMBUCqcCMA4nRPMlJjtqfFwLdvWNPRmI/BwUhhmB+XSgDj9PdWkTBvucQktptXfi0AhDjkZ9aSFXnqkB/e4mPZHgCMLPm9V0USEQzM2T7PEvVsRJN8o1MFAGt70ORY4VZypx9xM7Y1/uH3ZceLFwFsyWgQa6721un/JAa3sct/YZ0CyA+taTPC+5Cfbn0HoHPPPtzi5UWsZ4AkMW5DTk+lVCElju1z08SEf6thohk6VQAUsLFhen1SlDCnzQGAJN0cgJkL2xDc7Zv8PnCFduvmDabXF3FN9weJcIeihEWyjf5YW7O99/TRkb27uR/yM3Mxv3h5lakZ2+dHdBDblFx6scHxUCtzP30mFothYkoFgL7SrQKA8UM4OVq4rVwyUfoCgG1b3M2bN/Rm3/nlixeZXl/ULd0fpMINswd/YusyyFp86puX/s8xesgAbvHy0yE/rGzt2bbeBV4NhlrFZ+Hdm0tsnfxs7expoace06kCwLpgQabXJ4QnMVWzmZGmWyhj4cF25HBSYiLOntb9DlqfQkNx+xbbaMX3CwAFLABC2QoAaxu2954+oUN+tMuzqDfT6xMjkhB4LTjrb8yKGnh+lK0hEevPQrRLpwoAqwLWTO1CVQoV4kKFWZAiS1fkFvC2Zu45sGvHdsaMhLd3z27m/fGLdgJlegDrjgBJCuGmAFhHAGxsbTllovvG/TKYDvnRoiLFijPHuPrXXeZRgICTb/HpKdshWDx+FqI9OlUASKVSODix7UuNCeY3P5aeWCSC5J+hLrFMDOuSbEPGJ/53HIFv3/JITRAKhQLr1qziEuvxa2DgbMC1QQgmLgxFUAjfQ4GSklX4FMHWndG1kDufZHTcxlUrcHDXDm7x6JCfnLN3cGQeLQnzj8T15fdz/frYj/E4P4t9LRJ1edRvOnUcMJD2QczSijTqXSxcqzhyzOgbA4kISYq0qtu2nB3C7n3OdSyFQoElixdi8dLlvNLjas+unXgXGMg1ZkS0EnNWh2HBunC0bWSB4b1sULMi+wKip69SwLKF3dDICHYOwrxndMl9v9uYPn40t3jZPeQn8M1r3L99C2GfP3E7Y0AoUpkMtnb2KFuxkqDD2z516+Ed43bgW2sewszWBGW7FsvR6+I/J+LQz2eRFMm2aFokEqFGXV+mGES7dK4AcHP3wM2rl3P9+rAAti5bmTGSiJGkSLvTONdxwbMNT5jibduyGQMGDUbJUqV5pMdNfHwcZvwxTbD4CqUae0/EYO+JGFQoaYzhvWzQpbkVDA1yt5jokT/bB5mLW6E8v5DpyyE/vM48yM4hPxdOn8S86VP19sCY4qXLYNxvf6Bxy9bcYzds1gI7Nq5jC6IGzs24gfDXUaj1ayUYmGa9nz/odghOjL+M+M+JbNcGULZiJdgxLmgk2qVTUwAA4MZhaEwoRhLx113s1sWsYerEtp1HoVBg1IjhOteHfvaMPxHy8aNGrnXvaRL6jP8Atzr++G3JJ4SE5Xwo/1EAWwHg4enF9HpdJ8QhPxP/nP3D4V+VSoXp40eje6umenvzB4Dnjx+hb8c2GP/LT5DL+U5b1WvclNvC04c7/bGhyT7c2fAYMR/+OwWqTFXi7eUPODT0LPb2Pcnl5g8AHbr15BKHaI/OjQAUZ3waDn8RBbVSDZGE/xOdWCSCgUSEFKUaEAGu9d3gv5VtMdXtWzcxf+5sTJg0hVOWbM6ePoVVK1do/LqfIxT4c8VnzF0Thg5NLDG8lw2qls1ew5RHAUlZf1MmvEuWYnq9rvtr9gyuh/w0bd0WP4388VTCrKkTsXrJIm7X07at61ZDJBJhzrK/ucWUGRigfbceWLvsLy7xEiOTcXnhHVxeeAcWzmYwszOBgYkM8WGJiPkQD3ki3wLG0MgIrTt14RqTaJ7OjQCwthBNTZALOg1gLP0231m4tSdEYvZCY8HcOTh14n/McVi9efMaPw3sz60nfG6kytXYcTQa1Tq+RrWOr7HjaDRS5T9e7ZwqV+P2Q7YCoHhJ3ZqC4enyuTNYNHM6t3geXkWweM3GH06Z3Lp2BSsXzuN2PV2xZe0qnDvJ93d08IhRzOefZCQ2OB4f739G4LVghL+I4n7zB9I6PtoUzD87Z/IqnSsA3Nw9mDtlBd/7xCmb/zKRSPDls8/czRwO1dkXjymVSvTt3VOrHQI/f/qEDq1bISKCbVsQT7ceJqL76CC41/XHnys+43MGK/39HichgfEcANZRJ13F+5AfI2NjrN2xN9NDfhbO4Fds6JqFM6Zxjefk4opOPXpzjakJBoaGGDpqrLbTIBzoXAEgFotRonRZphgf7ghXAIhEgEm6UYCiXfisFE5KTET7Nq1w6eIFLvFy4l1gIJo1aoC3OnpIUUiYAr8t+QS3Ov7oM/4D7j399sR/8RZbMxtDIyN4eedsFbU++HLIT0R4GLeYs5euRIkyP/7djIwIx43LF7ldT9c8uOOHoHeBXGOO/f0PvTs1ccivY+Ds6pb1NxKdp3MFAABUrl6D6fXvb36ESiHcMLaZVPL1TBuHKo6wKc1nMU98fBw6t2+LLZs2comXHTeuX0PjBr54/ZqtI5gmpKSqsflgFCq2fYVaXd9g74kYnL3OVgCUq1hZkGFYbftj4liNH/Lz/MljnVvQytvThw+4xrOzd9CrPgpu7h4YMX6yttMgnOhoAeDD9PqUuFQE38/9Hv2sSMUiGH05114ElBtWnlvslJQUjPhlKAb264OoKLZzwzMjl8uxYO4ctGrWBJ9CQwW7jlCu3k1ApxHvcfEWW+fHyjXY3mu66Mje3Vi/Yim3eKXKlc/WIT/hn4QbedMVnz/x/13pPXgo6jRoxD0ub1KpFMs2boWRMdtpqER36GQBUKl6DeZ92W8uBnHKJmOWBlKI/hkGKFjOFs51XLjG37dnNyqXK43NGzdAoWDrcvdv58+dRa3qVTHzz+ncY+sb1mJT17wK8MeYoQO5xbOwssLanfuydciPQpn330tKAX5fxGIxlm3cCntHJ+6xeZowfWae+33J73SyALApaAvvEiWZYrw49RYQ5lwgAGmjACayb//5yo+qCKlJ1o04ciIiIgIjh/2MSuVKY/3a1YiJic51rNTUVBw7cgSN6tdF+9YtEeD/nGOm+kkqlaJqjZraToObxIQEDOzaAfFxfNph0yE/mlPQ1g5bDx6DuQXbQWNC6dK7H4bQwr88RycLAADwbdSE6fVxIQkIvi/skKSFTArxPyMVpo6mKDec31RAeu8CAzHm15Hw9vRA7+5dsWnDerx69RJqdeYVzqfQUBzYvw8jh/2M4l4e6NmtM/xu3RIkR31UoUo1WFhZaTsNbsb+PAgBz55yizd09Dg0atGKWzySuVLlymPD3kM6N8TeuGVrzFuxOs93y8yPdK4R0Be+jZvi78ULmGL4H38D5wo/blXKSiwCLAwkiE5JGxb0bOuFDxfeI/SWMHPqKcnJOHL4EI4cPgQgbVtWkSJFYGNTEFb/3Mji4uMRExONVy9eIDo69yMGOWFk4wKbCs0QemUHlMl8jpjVhHqNm2o7he8oFAq8f/sGrwL8EfwhCInx8YiNjYFUKoWJiSlsbG3h5lEYXt7F/tOCddPqlVwP+alRu65eLU7LK3zq+GLX8dPo3b4VYgRcA5RdHbv3woJV6yCV6uytgjDQ2X/VqjVqwtTMjOnMcv/jb1B7TGXIjIX7MU2lEiQpVEhRqgARUO0PH5zufRKJAh1LnF5yUhIeP3ok+HUyIzYwRulfd8Hcozw8O01H6KXNCDm3BnEhurmlMD1dKADevHyB4wf349qlC/C7cQ1Jidlr0+rs6oZqNWujYfOWsLaxwbRxo7jlZO/giJVbd9KHvpZUqVETh85dQf/O7fDm5Qut5CAWizFy4hSMnjKNnvzzMJ2dApAZGKB+k2ZMMVLiUhFwQvgjd60Nv00FGBYwRM15tSAxyPyEtLyi2IAVMPdIm/qQmligcsdh6LT2ERr+thdO5XwBHf3wcC3kjpJly2nl2nK5HLu3bkLLOjVQs7Q3Zv82CZfPncn2zR8AgoPeY//ObfipR2d0atqA7yE/23fTIS9a5l2iJE5ev4M2nbtq/Nq2dvbYfuQExkydTjf/PE5nCwAAaNWhM3OMh7v8OWSSObFIBGtD6dfeAJZeVjB3183FPDy5tRgJB59v/0ZWhiIYS0UQicQoVLU5ms08jvYr7qBYk36QGmavr7+mtGzfUeMfbkqlElvXrYZPySL4dWBf3L11Q6PXz47MDvkhmmVmbo6Vm3dg8/4jcC3kLvj1xGIxeg4YjEsPnunFtkTCTqfH+Oo1bgozc3OmVc2fnoYjyC8UrpWFfaIxlIhhLpMiLlWBx38/QvQL7c/fCcm5/gB4dfk2R2wsE8E6g7VLBQoVR81hy1G5z58IOLURz46vQfxnfqfS5RaP4jInHtzxw4ThQ/Do3l2NXjcnsjrkR2glixihha+5MMGTwgGoceY2cC9AmEsIpWHzlqjpWx9b1q7CqsUL8Ck0hGt8kUiEJq3a4NeJU1GqnDALmYlu0ukCwMjYGI2at8KBXduZ4txZ/1jwAgAALGQSvLv0Af7b2E4I1HUujYegaM/5X4f3DSWAfRYP+IbmBVCmwyiUbjcCgTeO4umRlQh9clUD2f6Xu6cXylSoqJFrqdVqLJ8/B/P/+E2ney64e3plesiPJpQvYYQ5YwT6PY2MANRqJCTpXwEAAMYmJhg8YhT6DB6KQ3t3Yd+2Lbhx5RLTOQ929g5o07kruvbpz7ztmugnnS4AAKBLn37MBcDbqx/w+VkE7ErYcMoqY3GhCbjy+zVB+w9om2vTYSjSffbXm79MDDiYiZDdQxFFYgk8fNrAw6cNIt48wtMjK/H60h4oU5MFzPp7XXv308h1EuLjMaRnF5w9cVwj18stI2NjrNu5T+960udHhkZG6NyzDzr37IPQj8G4fP4srp4/h/t3buP92zeQy3988p+1TUEUK1kK1WvXgU/deqhUrQYt9MzndP5f36eOL9w9vRDI0qteDVxbeg9tVzXkl9i/qBQqHB99EcnRfBZj6Rqx1ABePebApeHgr1+TigFHMxEkuXxotClcBrVHrkKVvjPgf3I9nh9fi4SIj5wyzphUKkWnXn0EvQaQdjBOzzbNcd/vtuDXYjV7yYpMD/khusnByRmdevT+eqKgXC5HUOBbxMbEIC42BkqlEkbGxjAzM4ezmxsKWAv7AET0j84XACKRCN37DsDMKROY4ry98gHBdz/BuaIwfQGuLrmHjw+EO39Am4xsXFBq+FZYeFX5+jUDCeBgKoKUwzJSI8uCKNd5PMq0H4W31w/h6eGV+OwvTMOi+k2bw96B/QjnzMTGxKBT0wZ49uihoNfhoWuf/ujcq6+20yAcyGQyFC5SVNtpED2i07sAvujcu2+2epFn5fICP6hV/Mfn31wKwp2Nj7nH1QU2ZRui8oxr3938jaQiOJnxufmnJ5bK4Fm7I1otvIDWi6/Ay7crxFK+J/X1HjSEa7x/S0lORp/2rfTi5l+qXHnM+mu5ttMghGiJXhQABW3t0KFbT+Y4IY/C8Oww32Nv40IScHLSlTw3729YwAmlhm1B2XGHILP4dtyxhQHgZIZsz/nnlm3Riqg7Zj26bgqAd+M+XGIWL1Va8O1NU0ePwM2rlwW9Bg8WVlZYs2Mvl8KaEKKf9KIAAIDBI0ZBLGZP98riu0iJS+WQUdq8/7ExeWveXySRwq3ZcFRbcB921dp/+7pIBHtTEVuSquoAACAASURBVAqaaHaVuLGVHWI/8ukq+NOvYwRd5X54zy5sW79GsPg8zf5rBdwLe2o7DUKIFulNAeDlXQz1mzZnjpMYkYTLC/w4ZARc/esuQjjO+4sNtHcIiMTIDC6Nh6Lawofw6j4bEiOzr39nLBXBxRww5XvYYbb4n9qEkMfsT9SOzi5o07ELh4wyFhkRjkkjfxEsPm93bl7XdgqEEC3TmwIAAEZN+o3LE9zj/S/w/gbbavM3l4JwZ9MT5ly+sCnfBLVWv0fxn9bAsmg1bnGzYmjtDM/O0+GzNABFe82Hsa3717+TigFbE8DRLG27n6YlRobi9oZJXGINGzcRMgO+6wnSmzFpPKIiIwSLz9uWtavw/LF2z5EghGiXzu8CSK9sxUpo1KIVTh09zBZIDZz+/Rp67m8NQ/Oc3xTiQhJwciK/eX8jGxeU+GktJAYmcKzVHY61uiPhwzN8vnUAEY/OIu7NPahVSj4XA2Di4AXbSi1hW7kVLDwr/6dfv0gkgqUhYGWo/nrGgcap1biydAhSE2KYQ7m4FUL3vgM4JJWxgGdPsWfrJsHiC0GpVGLKqOHYf+aitlMhhGiJXhUAADB26nScOX6UqQMWAMQGx+Ps9OtovqBujl73dd4/hs+8v1gqg8+YzZBZ2CA13Q4FU5cS8HApAY/2UyCPj0Tk43OIe3MP8R+eIfHjCySHZ6+drtTUCuZupWFWqCzMCpWGhWdlmDp7Z/i9IpEIlgaAldGXRX7a6wr35PByBPmd4hJr5MQpgj79L5s3m/n9qA03rlzCjSuXUL1WHW2nQgjRAr0rAEqUKYs2nboydwcEgIATb1GouhNKtc/+3lne8/6Vek2DR5nqAIBEuQhxqWokKgB1utEFmZk17Kt3hH31jl+/pkyOR0pUCJRJcZAnxkCZGAO1WgWpaQHITCwhMbGAzLQAZOZZN/8wlgJmMsDUQPjV/dkR/uo+bm+cyiVWkWLF0fGfRilCCP0YjCP7dnONKRaJUNW+IEpbW8HBxBhJCgWCExJxNSQM7+P5HjO9bf0aKgAIyaf0rgAAgMkz5+DEkYM5Oj71R87Pugm74jbZahP85iLfeX/Xyk1Qpt3Ir382kQEmMhFUaiA+FUhUqJGkEEGt/u9cg8TIDCaORXJ9bSMpYCIFzAz47+dnkRIfjfNze0Gl4LNTY9q8RZDJhFu9eGDndm49/s1kUowqWxw/lSwKO+P/bs9TA/D7HI4/7zzGifd8OiYeP7gffy5cAmubgll/MyEkT9Ghj/7sc3R2wc+jx3OJpUhW4vDwc0iMzLwXPe/9/ma2rqg7et1/5t+BtKdwC8O0TnseloCTedpJe6YGaQfv5GRaXiRKW8BnKgOsjERwNAU8LNMa+VgZ6dbNX6VU4Nzs7oj9+JpLvAZNm8O3URMusX5k346tXOJUsSuIZ11a4bdKZTK8+QNpEzJV7AriaDNf7G1cG2Yy9vo9NSUFB3ftYI5DCNE/OvTxnzNDR43ldkZ2XEgCjo48D0VKxgvtVAoVjo2+wHXe33f8ZhiaW2fr+40kgJWhCPYmIjibi+BhKYKbhQjOZiI4mgH2piLYmgC2xmn/29EMcDYXwdUccLcQwdUibQ+/tVHasb1aPPAtUzdWj8bHBxe4xDIwNMS0eYu4xPqR0I/B8H/KPiLUyNUR51s3gJNp9reBtvVwxcXWjWBhwD66cfXieeYYhBD9o7cFgJGxMeYs+5tbvOC7n3BywuUMWwVfWXwXIQ/DuF2rcu/psC/OttVPKgYMpWl79E1lgLmBCOaGaf/bWCqCoQSQSXT3Zv9vTw6vwPPja7nFGzF+suB90a9dYi9WvK0ssLNhLRhJJDl+bbmCBbC1vg/zUk2/69cynGYihORtelsAAIBvoyZo37UHt3gvTgfi4pzvD6F5czEIdzfzm/d3q9IUpduO4BYvL3hxditurh3HLV6xkqXwyxg+U0SZuXeb/cCiJTUrwZLhKb55IWd08irElENkRDheBfgzxSCE6B+9XASY3vQFi3HxzClEhPN5Qr+//TmkRlLUGlUJsR/juc/71xmV8bx/fvX22iFcWTL0+20PDCQSCeb/vVbQbX9fvH4RwPT6Wo52aODCfjLhtMplsefVO6a36YO7fihSrDhzLiT71Go1Htzxw/VLFxAa8hEpyZmvQ9IFBe3sULhIUdRv0oyOF84D9L4AsLYpiIWr1qFPh9bcYvqtfwyRWISg2yFc5/3rTdgCQ/MCXOLlBe9uHceFeX24Njn6ZewEVKyimU6Kb16+YHp9R0+2J/cviliao1xBa9wPj8x1jA/v3nHJhWTP+VMn8MeEMXjx/Jm2U8kVmUyGngN/wrjf/oCFlZW20yG5pNdTAF80atEKvQb+xDXm7bWPuM/72xWryi2evnt1fgfOzezKbbsfAFSoXBWjJv/OLV5WoqNyf8MFgHouDpwyARowxvocGsIpE5KVhTOmoWeb5np78wcAuVyODSuXoVmtqgh8zfeEVaI5eaIAAIDf5y6El3cxbaeRIbeqzWjeP52nR//GxUUDoVLy2T8PAGbm5li+aZuge/7TU6vVSExga8rjYmrCKRvAxYwtFuvPQrJnw8plWDhjep5ZdPnm5Qt0b90MMVFR2k6F5EKeKQCMTUywduc+mJqZZf3NGmRm64o6v66leX8AapUStzdMxo1Vo7nN+QNpLYwX/L0O7p5e3GJmRSGXM7X/lYhEMOWwj/8L1u2AcoWcUybkRz68f4c/J/Fb7Kor3r56ibnTpmg7DZILeaYAAADvEiWx8O91gp75nhNp8/5bad4fQGpCLE7/0QGP9i/mHnvwiFFo1aET97iZkRkYMI02KNVqhCfxWV8CAJ8S2RaQmZrqVuGcF636a6FeLPTLje0b1iI8jF+LdKIZeaoAAIBWHTtj8IhR2k4DAFC59x+wK1ZF22loXUzwSxwZXZfb4T7p1ahdF5NmzOEeNztMGEebXsbEcsoECIhmi2Vmbs4pE/IjJw4f1HYKgpHL5Th34ri20yA5lOcKAACYPHMuGrfktysgN1wrN0HptsO1moMueHluOw6N8EF0EP995u6FPbF6xx5IpdrZzOLo5Mz0+mPvPnDJQ6VWM58N4OjswiUXkrG42FiEBPP599ZVAc+eajsFkkN5sgCQSCRYvnEbylSoqJXrm9m5oe7o9fl63j81IQbn5/TEpUUDIU+K5x7f2qYgdhw9CZuCttxjZ5dn0YyPVc6u7S8CkaRg3wJ5NPADQhOTmGKw/iwkc5ER4dpOQXARYfx2TRHNyJMFAACYmplh84GjcHHjs9c6u8RSGeqNz9/7/d/dPIb9QyvhzZX9gsQ3MjbGpv2HNbroLyPeJUoyvT44IRFLH7ONjMhVKky5/ZApBgAULV6COQb5MTXDglF9wbIolmhHni0AAMDewRF7TpyFvQN7t7Xsqtznz3w7758YGYqLCwfgzJ+dkBAeLMg1ZDIZ1uzYi0rVaggSPyeq+tRijjHN7xGuhOR+8dTIq3fwPCqGKQdnVzduB2sRQvRHni4AAMDd0ws7j5/WSNtK4wL28Kyj2dXoukCRmoSH+xZi7+ByeHVeuKNlJRIJVmzegQZNmwt2jZyoXN0HBoaGTDHkKhU6n74Cv88ROXqdGsB0v0dY/ewl0/UBoKZvfeYYhBD9k+cLACDtcJidx07BsoCww/JJUZ+wZ2Bp3NkyDakJbE9l+kCtUiLg9CbsHVAa/2/vvuOjqtI/jn8nPaTQUuggIE1QiiAgrChSRLGtFUWQIqtrR1fWDnZFFH9iwbbYsa2gwIIFpAkKugrSBBWpoYaEhJA2vz9GlMWQTOaeO3dy7+f9euWlxjvPeXIJc58599znfP3KXSrKN7eq/UjR0dGaMPllnXX+BbaNUVkJiYk65fS+luPsOFCgU6d9omdWrlNxGbtRHmlzXr4unD1f9y1fYXlsSTrj7HONxAFQtXiiAJCk4zt20vuz5yotPcPWcYoL8vTfqY9q6vA2+vbth3Uw11q72EhUWlyodXOm6P2rT9SCidcob7e1FegViY2N1aR/vaELL7vC1nFCYSqngpISXb/wa53wzsea+P0a/Zz7vwsnS/x+zd+6QzcsXKbWb03Xhz9vMjJurdppOrXfGUZiAahaqvxmQJXR5vgT9MGnX+iiM07X9q323KM+5GDuXi1/bZy+e/dxtTj9crU99zql1m1q65h2K8zL0ZpZL2rltEnK3xOe3vHxCQma/MY76nPmwLCMV1l9zxyo9IxM7dyRZSTe2uwcjV68XKMXL1e1mBjVS0pUfnGxsvILVGJD+9gLL78ibO2TAUQWz8wAHNK8ZStNm7swbFufFhfkadXHz+vdq07Qf+4+Rz/Nf08lhVWoG5jfr20r5mve4yP05uCm+uqVO8N28a9es6bemD4rYi/+khQXH29b46n84mKt35errXkHbLn425k7gMjnqRmAQxo2bqLpcxdp+MXna/H8eWEZ019aos3LP9Hm5Z8oPrmGmp5yoZp0P0d12/ZUVEzkfQLbtf5bbVzysTbMm6qcbT+FffxGTY7Rax/OqBJ71F9x1dV6ZsJjVe5Z70FDh6uOxWZGCI/EWgk6+fqOtsTeV1giv9+vPT/s1k/TN9gyBiKTJwsAKfDp8q2PZ+uWq0fq3TdeDevYB/dna/WMF7R6xguKS6quhp36qtFJA1SnXU8l1a4X1lwOKczbp6xVX2rT8jn6dckM7d9p5h5zKDp2PkmvvD9N6RmZjuVQGckpKbrjgYc1+m8jnE4laDVr1dYtd491Og0EKT4pVsdfaE+zpm35hSr1+xWTGEMB4DGeLQCkwIYuE1+aouM7dtK4MbeoqCj8O6IV5u3ThvnvasP8dyVJKZmNldmmuzJbd1WtY9qqZuM2ikuqbnTMksIC7d20RtkbV2nHumXavnKh9v6ySn6/8408Lhs2Ug888X+WH68Lt0uGDNPbU17R118ucjqVoNzxwMOqVTvN6TQAOMjTBcAhw/9+vdp16KhRgy5S1vbw3N8+mtysjcrN2qj1c9/6/XtJteupRqPWSkqrr6S0+kqskaGktPqKSaimuGqp8kVF//bPKBXm5cjvL1Xh/myVFBUqf+825e/eqvw925W3e6v2bVqnnO0/y19qvQWtSfEJCXpo4iRdMmSY06mExOfz6amXX1W/bp2Uk53tdDrlOuOc83Tp0OFOpwHAYRQAv+nSvYfmfPWtbhp5pT6fPcvpdP5H3u6ttj9q56QWrdvomSlvqs3xJzidiiWNj2mqCc+9pJGXXiC/DYv2TGh8TFM98fzLEbNlNgDneO4pgPKkZ2TqtQ9n6NFJzyuxWjWn0/GECwYN1syFX1X5i/8hA849X/dPeMrpNMpUq3aaXvtwhlJr1HA6FQARgALgCD6fT5cPv0ozF36lTl26Op2Oa9Vv2EivfThDT738qqolJTmdjlFXXn2trr11jNNp/I/UGjX02ocz1LxlK6dTARAhKACOomWb4zT9i8V6dNLzSk5JcTod1zhUYM39ZqV69x/gdDq2uf2+hzRu/JMRMdWekVlH78+eqw6dvblJFYCyUQCU49DF6vPlK3TmeX91Op0q74ROJ3qqqBpx7Q16ZsqbSkpOdiyH9id21scLlui4E9o7lgOAyEQBEIQGjRrrhbfe03tz5rrmXnU4ZWTW0ROTX9aMBUs9d1vlnIsu0X8WL1Pb9h3COm5UVJRGXnejpn2+UA0aNQ7r2ACqBgqASuj+l16a/eVyPf7ci7ypBiElNVWj77xHC1eu08VXXKmoKG/+ujVr0VIzF36lex+dEJaZj3YdOmr6F4s19rEnFBsXZ/t4AKomb74jWxAdHa1Lhw7XopXr9ODESbRSLUNScrKu+8c/tXTNzxp9572emO6vSExMjK66/iYtXrVef7/lNlvOSavj2uqZKW9q5sKv1LHzScbjA3AXCoAQxcbFaeioa7Rk9QaNf/aFKtGz3m5p6Rm69e5xWrr2Z/1z3IOqUauW0ylFnLT0DN1x/8P6et1GPThxkjqd1M1SvGpJSbpg0GC9PWOOPlv2vc69+FJFR0cbyhaAm9EIyKK4+HgNunKELh06XJ/OmqEXn56oRfM+V2mp8211w6V123Ya+re/66LLhyg+IcHpdKqE6jVrauioazR01DXavnWLFs77XIu/mKe1q1Zqw7q1ytm370+v8fl8qt+wkZoe20LtT+ysHr1O04lduyshMdGBnwBAVUcBYIjP51OfAWepz4CztPHnn/TWv17S1CmvON5a2C5Jyck6+4KLNWjYCM8t7DOtTr36umDQYF0waPDv38vZt0/7c3O0PzdXcfHxSkpOVkpKKhd7AMZQANig8TFNNWbsA7r17nFavvRLffT+u5r2ztvatXOH06lZEhcfr1N699FZf71QZ5x9Hvf2bZRavbpSq5vdBAoADkcBYKPo6Gh16d5DXbr30N0Pj9fCuZ/ps//M1OezZ+mXDeudTi8oaekZOuX0vurdf4B6n3GmUlJTnU4JAGAABUCYxMbG6tS+/XVq3/6SpF82rNe8T+do2ZeL9dXihdr860aHMwyoWau2TuzWXV26nayTe52m4zt28uzjewDgZhQADmnSrLmGNmuuoaOukSRt27JZ3379lVavXKE1P6zQqhXf69eff1JJiX3b9tat30Ctjmur1u2OV+u27dSufUcd26p1RLSvBQDYiwIgQtSt30B16zfQgHPP//17RUVF2rLpV23e+It+/eVnbduyRXv37A587Q780+/3q6iwUPl5eZIC9+kP7WSYkpKqWmlpqlU7TbXS0pSWnqGGTY5Ro9++WFAGAN5FARDBYmNj1aRpMzVp2szpVAAALsPNXQAAPIgCAAAAD6IAAADAgygAAADwIAoAAAA8iAIAAAAPogAAAMCDKAAAAPAgGgEBFq1bvUqzpv1bP65ZrV07d8jv9zudUrni4+OVUaeuuvb8i/oOGKjUGjWcTgmAAygAgBBt37pFd958vWZN+3fEX/TL8uYrLyq1Rg3dOOZOjbrhZvaAADyGWwBACFav+F5ndO+smR9+UCUv/ofkZGdr3JhbNPLSC1RUVOR0OgDCiAIAqKSdO7I0+LyzlLV9m9OpGDPzww909+gbnE4DQBhRAACV9Mg9d2rr5k1Op2HclMnPatmSxU6nASBMKACAStize5feee1fTqdhm+eefNzpFACECQUAUAmfz56l4uJip9OwzbxPZrMWAPAICgCgEn5e/6PTKdgqPy9PWdu2Op0GgDCgAAAqIXvvXqdTsN2eXbucTgFAGFAAAJVRhR/5C1ZVfqwRQPAoAAAA8CAKAAAAPIgCAAAAD6IAAADAgygAAADwIFfvBlhUWKidO7K0a8eOco9Lz8xUWkamYmNjwz427Dn/AIDyubIA+O+yr/XsE4/p89mzlLd/f1CvSa1eXaf1H6BrR9+mNsefEPLY3y1f9vvY+3NzQ47jNSmpqTq13xm6dvRtatu+g9Pp2ObvbVvq7CYNbIl9MDvQo+Dm/67R+v35towBwD1cVQCUlJRo7G2j9dKkpyr9LHPOvn36cOpbmv7uVF176xj94577FBUV/B2SkpISjRtzi158eiLPUYcgNydH09+dqo/ff1d/u3G0/nnfQ4qOjnY6LeNa1EhR7wZ1bIl9IM4nSUqNddVfawA2cc07hd/v1w3Dh+iDt9+wFKe0tFRPPfKg9u7erUeefi7osW8cMVTvv/W6pbEROP/PTHhMu3ft0hOTX3Y6HQBwLdcsApwy+VnLF//Dvfbi80Ff0F994Tku/oZNffUVvT2FAgAA7OKKAuBAfr4m3D/WeNyH7rpdRYWFFY79+H33Gh8b0iP33qXCgwedTgMAXMkVBcDcOf/Rrp3mV9tv3bxJXy74wpGxIWVt26oFcz9zOg0AcCVXFABLFy2wLfaShfMdGxsVn38AQGhcUQBkbd9mW+ztW8vfG93OsSFlVXD+AQChcUUBkJhYzb7Y1cqPbefYqPj8AwBC44oCoPExTW2L3aRpM8fGhtS4gvMPAAiNKwqA088407bYvfsPcGxscH4BwC6uKADatu+gHqf2Nh6371lnq+mxLRwZG9KpffurRes2TqcBAK7kigJAksaNf1JJycnG4qXWqKF7H3nckbER2Btg7GNPOJ0GALiWawqAVse11bOvvW1k0VhySopefOs9NWnWPOixn3t9KgvWDElKTtbzb7yj5i1bOZ0KALiWawoAKXC/eNrnC9Whc5eQY3Tp3kMfz19S6Wn93v0HaPrcRerY+aSQx4bU6aRumj5vsXr16ed0KgDgaq7ZDOiQtu076OP5S7Toi7ma/dE0/bz+xwo79WVk1lGzFi3Vb+A56trjLyGPfdwJ7fXR/C9/H/uXDeu1c0dWyPG8Ij0jU02PbaF+A89Rt56nyOfzOZ0SALie6woASfL5fOrR6zT16HWap8YGACBYrroFAAAAgkMBAACAB1EAAADgQRQAAAB4EAUAAAAeRAEAAIAHUQAAAOBBFAAAAHgQBQAAAB5EAQAAgAdRAAAA4EEUAAAAeBAFAAAAHkQBAACAB1EAAADgQTFOJ2CHPbt36dXJz+mTmR9pw7q1ytm3r9zjU2vU0LEtW6v/wHN0+fCrVL1mzbCNjcD5b35sS/UbeI4GjxilGrVqOZ0SALie62YA3p7ysrq1bqZHx96lb7/+KqgLcE52tpYv/VIP3DlG3Y5rrmnvvB3S2FNffUXd2zSv1NgInP9vvl6qh+6+XV3bNNP7b73udEoA4HquKgAmPvyAbh41XLk5OSHHyN6zR9cMGaQXn55Yqdc99ciDuumqYVz0LcrJztZ1Vw7WMxMeczoVAHA11xQAn8z8WI+OvctILL/fr7G3jdaiL+YGPfYj995pZGwEPHjnGH3x6Ryn0wAA13JFAVBcXKyxt42W3+83FrOkpET33HpThTHtGBtSaWmp7v3HzSotLXU6FQBwJVcUAF/On6efflxnPO6q77/Tt8u+cmRsSGtX/aBlSxY7nQYAuJIrCoAFcz+zLfb8Tz9xbGxI8z8r//wDAELjigJgy6ZfHYtt59iQtvzK+QUAO7iiAIjy2fdjREdHOzY2pKgKzj8AIDSuuHrVb9TIvtgNy49t59io+PwDAELjigLglNP72ha7V59+jo0NqVff8s8/ACA0rigAunTvoZZtjjMet/2JndW2fQdHxobUtn0Hte/U2ek0AMCVXFEAREdHa9z4JxUVZe7HiY2N1X2PT5TP5wtq7IrWCqByYmJijP+ZAgD+4Jp3156nna57Hnm8wgt2MKKiovTgxEnqdFK3sI8NyefzadzjE9W1x1+cTgUAXMs1BYAkjbzuRj33+lTVTksPOUZmnbp65b1pumzYyEq9bsS1N+j5N96xNDak9IxMvTT1Aw0ddY3TqQCAq7luO+CBf71Qvfr009tTXtYnMz7Sj2vXaNeOLJWUlJR5fExMjNIyMtWidRv1O+tsXXzFlaqWlBTS2Gedf4F69emnt/71UlBjI3AL5dD573vmQF0yZJiSkpOdTgsAXM91BYAkpaSmauR1N2rkdTeGfezklBTHxoaHsRVF+dir46jYx+To3H5mXHULAPAqf0mR0ylEruICuf+tPDTFpX7OzFEUl0qlLj85FACACxTl5zmdQuQq2Ol0BhErt4jbk0eTXeDyq79cegsA8A6/ivP2q6TgoNOJRCC/lL9DOpjtdCKRxy/lFhcrv5gCoCzZBX7lFDqdhf0oAIAwKiksUlFevplg/hKVHjyoUrcsMi0+KB0w9GndXywV5kgl7ngXL5W039Cn9ZJSvwpKS1XsovntfYV+xR20/vOUlEr5xT55ZWKEAgAIo9KDBSrOy3U6jchUckDKP+B0FhGp1O/XvsJip9OIWHsPSLHGerG5pzCqCGsAAADwIGYAgDB6beNWLdpl7z3pn/ZXzU/RC/4rXXSHvWN8u87e+HYp2FOgxf9caOsY+VlVdyHp6sl/U1RMnG3xSwr22xbbSRQAQBh9l52r77K5BVCWjdsDX/iz4vxibfrsV6fTiFi7ln/sdApVErcAAADwIAoAAAA8iAIAAAAPogAAAMCDKAAAAPAgCgAAADyIAgCohNg4+541jhRx8fGhvS4utNdVJaGeGy/83lj5GeNcfn5iIvTnc2UfgJKSEn02a4bmzPhIG9at1c4dWSopLruNZkxsrNLSM9SidRv1Petsndq3v6KiQq+LKjM2pOiYGKVnZOrYVq3V58yB6t1/gKXzb7eMzDpOp2C7zLp1Q3pdRh33n5uMOiGem8w68vl88vvd22a2Tr16Ib82o25dZW3fZjCbyJJRJ/RzYyfXFQDLlizWrddcpbWrfgj6NRvWrdXSRQv02ovPq237Dhr/zAs6vmOnsIwN6acf12npogV6/aXJat3ueI1/5gV16NzF6bTK1KlrN6dTsFXTY1uoVu20kF7b9oQOik9I0MGCAsNZRYbo6Gh17HJSSK+NjYtTuw4d9f03yw1nFTk6nRT6341OXbpqxbffGMwmshzfJTLfNyL3o1YIPv7gPV3Q7zRLF+CV//1W5/buqU9nzQj72JBWr/he5/c5RbM/muZ0KmU6sWt3NWjU2Ok0bHPexZeG/Nqk5GT1PXOgwWwiS8/TTlfttPSQX3/exYMMZhNZ0jMy1aPXaSG//lwLv3eRLioqSv3/eonTaZTJNQXA998s13XDBqvwoPV90QsOHNDVgy/RutWrgjp+xbff6PrhVxgZG9LBggJdM2SQVq/43ulU/iQ6Olpjxj7gdBq2SEvP0FXX32wpxi13jXXl/W4Tf+5Drrpa9Rs2MpRRZBl9172KT0gI+fVduvfQ6WecaTCjyHHmJYPVrPVxTqdRJtcUAHfefL3Rqce8/ft1z603BT12wYGquQFLpDqQn6+7b7nR6TTKdP6ll+mSIcOcTsOo2NhYPffGVKWkplqKc2yr1nrwyacNZRU57njgkZBuCx4uITFRL7z1nhISEw1lRYmxLAAAEKlJREFUFRkG/vVCDR4xynKcCZNfdt3sWovWbTTm0aecTuOoXFEA/HfZ11q2ZLHxuF98Okc/rlld4dhff7nI+NiQFn0xNyJnASTp0UnPa8S1NzidhhE1a9XWG9NnqftfehmJd9mwkZrw/Eshr5iPJDExMbp/wlP6242jjcRrf2JnvTPrU6VnZBqJ57RBV47Q06+8Lp/PZzlWWnqG/v3ZfLVt38FAZs476eSeem/OXCWlWCuq7eSKAuCz/8x0LLadYyNyz29MTIzGjX9SH36+QL369FNsbKzTKVVaYMr/Ji1YsUY9Tu1tNPYlQ4Zp3rc/6KLLh1ieVXBCtaQknXvxpfp8+QoNu+Y6o7FP7Npd879brWtvHaPMEJ8qcFJ0dLR69DpN78z6VOOffcHoLZ/6DRtpxoKleuDJp9WidRtjccPpuBPa64nJL+v9T+YpLT3D6XTKdahss/RsypYDpUYqwFDdOGKo3nl9ii2xh466Rg9OnOTI2Ah8mnzsmclOp1Gh3JwcrV+7Rju2b1NhYaHT6ZQrtXp11a3fQM1btgrLI5dFhYVav26ttm7epPy8yN5zPrFaNdWr30DNWrS0dE87WH6/XxvWrdW2LZuVvXev7eNZERsbq/Q6dXRsi1ZKrVEjLGNu2fSrNv+6UTuzsiL6EcqoqCilZ2aq8TFNlVn3fx/522HT0rAONaKsnhOfKx4DPFho3+K7ggrWFdg5NlRlHilLSU2N2EcXnRYbF6fWbdupddt2TqcScXw+n5q3bKXmLVs5nUpEqt+wkWsXTkYCV9wCqFPXviYL9Ro0cGxsSHUrOP8AgNC4ogAwtXipzNinnOrY2JBOruD8AwBC44oCoOdpp9uymKbxMU3VpXuPco/5S+8+f7rnAzPqN2ykbj1PcToNAHAlVxQACYmJGjPOfHOWOx98VDEx5S+TiE9IsGVsSHfc/7Arm8oAQCRwRQEgSRdfcaUuGzbSWLxRN9ysM8/7a3BjDx6qy4dfZWxsSFdefa2r24MCgNNcUwBIgeYsN91+l6Kjo0OOERsbq9vve0h3Pzy+Uq975OnndNPtd1U4Y4DyxcTE6B/33Kf7J0Ru9ywAcANX9AE40rrVq/TsE+P1yYyPtGf3rqBek56RqX4Dz9HVN92iY5ofG/LYP65ZrWefGK85H08PemxItdPSfz//zVq0dDodADAikvsAuLIAONye3buUm5NT7jGp1aurZq3ajowN+84/ADiNAgAAAA+K5ALAVWsAAABAcCgAAADwIAoAAAA8iAIAAAAPogAAAMCDKAAAAPAgCgAAADyIAgAAAA+iAAAAwIMoAAAA8CAKAAAAPIgCAAAAD6IAAADAgygAAADwIAoAAAA8KMZEkO+/WS6fz2ciFAAArrGnyOkMju7QVdvvaBYAACCcfNwCAADAgygAAADwIAoAAAA8iAIAAAAPogAAAMCDKAAAAPAgCgAAADyIAgAAAA+iAAAAwIMoAAAA8CAKAAAAPIgCAAAAD6IAAADAgygAAADwoBgjUarXNhIGAABXKS6yJ25ejuUQZgqA7gONhAEAwFX2bLcn7tL/WA7BLQAAADyIAgAAAA+iAAAAwIMoAAAA8CAKAAAAPIgCAAAAD6IAAADAgygAAADwoEMFQLGlKP5S65kAAOAqfpvCWo5bLP1RAOy3Fspa/QAAgOtYv1CXrdTyNTdH+qMAyLUU6uABq8kAAOAudhUAhQetRsiV/igA9lkKlZdtNRkAANylxKbb4wfyrEbYJ/1RAPxsKdTenVaTAQDAXaxP1Zdt/16rEX6S/igA1loKtWuL1WQAAHAXu7YCzt5lNcI6yVQBkLs38AUAAAJKbCgADuwPfFmzRvqjAPjaajT9aq2GAADANUpL7JkB2L7RRJRl0h8FwApJ1uYUNv8oFeRbzAkAABewvlK/jJgFJm65Z0laKf1RAJRKmmcpZGmJtMb6RAIAAFVeoQ2Px29cI5VafrJgrn7rUHR4K+CZVqNq289SlpHpCQAAqqbiYvPT/3uypD3bTUT6/Vp/eAHwviTrc/grFkl5OZbDAABQJRVYXqR3RLw86acVJiLlSfr3of84vADIkfSh5fBFhdLXc1gPAADwnpIiqajAXLzCAmnNMqnESE+BD3RY6/8jdwN80cQIOrBfWjKTmQAAgLfk5ZrbA6ggT1q11GS7/f+5xvvKOOBLSV2NDBUbJ7U7WcpsbCQcAAAR62C+uQ++e7ZLP6009clfkhZJ6nH4N6LLOChL0iAjw5WWSNt+CewVUCNdiokzEhYAgIhSUiLtN7AvTmFB4MK/Zb3kN7qXwChJ6w//RlkzAD4FKoVuJkdWVLRUv5nUqJWUWstoaAAAHOP3S7l7rK38z8+RsjZJO7eYvvBL0kJJPY/8ZlkFgCR1UKA7YFkzBNYlV5fS6ks1M6SkVCm+mhQTGygSAACoMvxSbrZUFGTjn9LSwCZBhQcD9/hz90r7dpnY4e9oiiV1kvT9kf/jaAWAJD0l6Tq7MgIAALabIGl0Wf+jvAIgRYF+wS3syAgAANhqtaQuOuzRv8Md+Rjg4XIlXSDJhn6GAADARgWSLtVRLv5Sxff4d0jaKWmgwaQAAIC9RkqaXd4Bway6Wy4pXmWsIAQAABFnrKQnKzoo2GX3n0uqL6mjlYwAAICtJku6JZgDK/Pc3UxRBAAAEKkmS7pGQTYjrkwB4Jf00W//3qtyOQEAABs9IulGVWInglA678yTtEVSH0mxIbweAACYka/Agr/HK/vC8voAVKSNpKmS2lqIAQAAQrNW0kUqo8tfMKz03t0p6TVJ1SSdqPJ7CgAAADOKFFjlf6mkzaEGsTIDcLgTJE2SdLKheAAA4M/mS/q7pJVWA5n61P6dAvsM95T0maGYAAAgYJGksyWdIgMXf8ncDMCRekoaIel8Sck2jQEAgJvlSvpA0osKbOlrlF0FwCFJks6VdIak0yTVtXk8AACqsm0KNN+bKelDBVb528LuAuBIbRRYMNhSgV0Gm0iqpcDOg8mSEsOcDwAA4XRAgQ16ciXtkfSLpHUKrOhfJmlVuBIJdwEA9ztX0r+NRDquq5Rcw0gowBh/qZS9UyotrfjYgwekTetMjXyOpOmmggE8ugeT4iQ9aiRSen0u/ohMviipWkpwx8YnSik1TY38hKQEU8EACgCYdIukYy1HiY6RGrawng1gl/hqUmxccMem1ZOirLRc+V1TBVq9AkZwCwCm1Je0Riae+mjUUqp7jOUwgK2Ki6R9uxVU6/W9O6Td20yMul9SKwXasQOWMAMAUx6ViYt/QjUps7H1bAC7xcRK8UHOyNdIl2LjTYyaLOlhE4EACgCY0E2BlpTWNW4tRfFriSqiWqrkC2Ii1ecL3Aow4zIFeq0AlvBOC6uiJE2UidtJ1WsHPikBVUVUlJQY5MRXUmrwiwfL51OgDzzv37CEXyBYNUxSZ8tRfFFSkzbWswHCLTFJiooJ7tj0+sHNGFSso6ShJgLBu1gECCtSFWheUcdypLrHBBb/AVVRUaGUszu4Y3dtDfQRsG6HAk3Vsk0Eg/cwAwArxsrExT82TqrfzHo2gFNi46S4IBf51aoTWEBoXYaku0wEgjcxA4BQtVZgF0jr72RN2wWmRoGqrKRE2rdT8gfxWGDOHmnHJhOjFktqL+kHE8HgLcwAIFQTZOLin5QqpRtbHQ04Jzo60CAoGKm1Ao+8WhejwIJAoNIoABCKsyX1NxKpSRsxEQXXqJYcWNAaDHOPBZ4u6SxTweAdFACorDhJjxmJlEa/f7iMLyowqxWMhCST+wQ8KclIpyF4BwUAKmu0Als5W0O/f7hVfKIUE/Z9ApqJfQJQScy9ojLqKPDYX5AfccpBv3+4mXP7BLSUtNVEMLgfMwCojMdk4uJPv3+4nXP7BDxkIhC8gQIAweqmQA9y6+j3Dy9wZp+AwZJ6mAoGd+NdGMGIUmCREf3+gWBFRQXf+599AuAAfkkQjKGSuliO4vPR7x/eklAtsOA1GGn1TO0T0EnSEBOB4G4sAkRFUhRY+FfXcqS6TaRGrSyHAaqUooOBzn/BMLtPQAtJ+0wEgzsxA4CK3CsTF//YOKl+c8thgConNr4S+wRkBj9jUL4MSXeaCAT3YgYA5WkuaaVMNBhp2lZKb2A5DFAlObNPQKGk4xWYwQP+hBkAlOcpmbj4J6Wy2Q+8LTo6+N7/qbWC31OgfHGS/s9EILgTBQCO5ixJZxiJ1Li1mGyC5yVWYp8Acxtk9ZF0pqlgcBcKAJQlTtLjRiKl1TPZ7xyounxRUlKQj/qZ3SdgotgnAGWgAEBZbpKRfv/RUsOW1rMB3CI+MdAlMBi165pqmNVM0vUmAsFdmJfFkTIlrZOJlr8NW0j1mloOA7hKceFv+wQEwdw+AbkK7BNgJBjcgRkAHOlRmer3X6eJ5TCA68TEBWYCgmFun4AUSQ+aCAT3oADA4TpJutxIpEat6PcPHE2l9gmw3objN0MknWQqGKo+3qFxiE/SJJn4naheW6qZYTkM4FpRUYGnAoKRVN3kPgFm/o7DFfhFwCFDZeLTgc/322N/AMqVmOTUPgGDTQRC1cciQEgm+/3XaSI1pt8/EJTCAil3b3DH7toiZe8yMWqWAgsC2SfA45gBgCTdLVP9/hs0s54N4BVxCYGvYNSqY2qfgExJt5sIhKqNGQDQ7x9wUklx8DsA5uyWdmw2MWqhpHYKPPILj2IGAGa6hNHvHwhNdEyg818wUmub3CfATLdPVFkUAN7WR9IAI5Ho9w+ErlqKFBUd3LHm9gk4S6b+/qNKogDwLnM7hdHvH7DG5wv+scCEJCmlhqmR2SfAwygAvOsGBVYCWxMVHWj5C8CahMrsE1DPVKOt5pKuNREIVQ9ztt6UqcBjf9UtR6LfP2BOcZG0L8hH/fZkSXu2mxiVfQI8ihkAb3pYJi7+8fT7B4yKiQ1+n4CaGSb3CbjfRCBULRQA3tNJ0hVGIjWm3z9gXLWU4PcJqG1sn4ChkrqYCoaqgXdv7xkvE3/uqfT7B2wRFR38gsBkY/sERIndAj2HAsBbuknqZTmKzyc1od8/YJvEJCk6yMcCze0T0FvMAniKkb6SqDLMbPUrSauWGgsFoAx+f+ArqGONjXqZpK+MRUNEowDwlr5Govj9gdXKANzmdKcTQPjwGKB3JCnwuA9/5gCOplRSNUkHnU4E9mMNgHekiYs/gPJFSartdBIIDwoA7+DiDyAYvFd4BAWAd+yRyaVCANyoVIH3CngABYB35Eja6HQSACLaekkHnE4C4UEB4C2fOZ0AgIg2z+kEED4UAN7yptMJAIhovEd4CIs9vGep6PYF4M+WKNAtFB7BDID3XC+pxOkkAESUYkk3OJ0EwivIZtNwkS0KPA1wqtOJAIgYd0qa6nQSCC8KAG9aICldUmenEwHguP+TdIfTSSD8KAC8a6YCj/v0Er8HgBcVSrpN0t1OJwJn8MbvbYskfSSp2W9fALxhtqSLJf3b6UTgHJ4CwCEnSLpUUk9Jx0mq7mw6AAzaJ+kHSfMlvSXpe2fTQSSgAMDRxEpKdjoJAJbtl8T+3QAAAAAAAAAAAAAAAAAAAAAAAAAAAAAAAAAAAAAAAAAAAAAAAAAAAAAAAAAAAAAAAAAAAAAAAAAAAAAAAAAAAAAAAAAAAAAAAAAAAAAAAAAAAAAAAAAAAAAAAAAAAAAAAAAAAAAAAAAAAAAAeNj/A7iSxJGbMaldAAAAAElFTkSuQmCC;" vertex="1" parent="1">
          <mxGeometry x="921" y="368" width="69" height="69" as="geometry" />
        </mxCell>
        <mxCell id="WWB7S82kn9Ua1kXxTO10-81" value="" style="shape=image;aspect=fixed;image=data:image/png,iVBORw0KGgoAAAANSUhEUgAAAgAAAAIACAYAAAD0eNT6AAAACXBIWXMAAA7DAAAOwwHHb6hkAAAAGXRFWHRTb2Z0d2FyZQB3d3cuaW5rc2NhcGUub3Jnm+48GgAAIABJREFUeJzs3Wl4FFXWB/D/qe6s7FsgBFxA2SIqEJxRA8iMqCCg4LDoiKKOOIKOIEtg1LFAfYcguAMK48Y4qKCgLDKuKAR1JIgsCYsjIwJh3wNZurvO+4GAoBA6naq6tZzf8/BFw73/Jkmf07du3SIIESNmDm7btas9GUY7BlqCuRmIziOgKgNVAFQDcBDAUQCHCfgfmDcw0XqN+ZvU1NTviCii9lV4G+t6CoCOIEoHcwsAzQDUAlATQNWyLysEcADAfgAbAKwHUR6Yl5Ku71KR2y/68KxAow0N28Dgy4ioBdhoDtB5OPa7UwVAdQCHARxh4LAGbGZgAxOtJ0Zu9Z2hXL1z57C6VyDcjFQHEO6yefPmWoG4uL4g6gGgI469UcVqPzMvIaK5CcHgnHr16h02Kaav8bhx7WEYNwPoAiAdsf+eM4A8AB8BeJN0PdekiL42an1OtTAbNwHoBaaOONaMxeowg5ZoxPMixeFZz7TpfMCkmMIHpAEQUfmpoKCjRnQ/gO4AEi2Y4giI5hrMz52TmrrcgvE9jXW9OoBBAO4E0NKiafIBvIqkpJcoK0uatQoalrfkMtLwFzD1ApBswRTFIMwnNl6Y1KrTEgvGFx4jDYAo15aCguuI6CEAmXbNyUQfBQzj8YYNGy61a063Yl2vDeABAPfj2NK+HfYDeA4JCc/SmDH7bZrTtYatW9JJY3qYgattnHYpET8xqWXHD22cU7iMNADitDbv3NkkYBjPA+imMMYCjXlIw4YNf1KYwZEYIOj6AAATAdRTFGMfiMaB+XnSdUNRBscatT6nYcjg8QQMUBjj04hGQ55tkblBYQbhUNIAiFMws7Zt584sMP8N1iz1V9RhAsakpaZOVh3EKVjXLwDwOoArVGcpswyBwO30yCM/qA7iCMw0PH/pfUz0f/h5o6VKRQDGVm+Z+aROJI2aOEEaAHHC9u3b6xnADAauU53ll5j5fSMUuuPcc8/19ZIzjx3bC8yvoHIbx6xwGMAg0vW3VAdR6f7vv64eFw79A4w+qrP8EhN9xmzc+kyrjttVZxHOIA2AAAAUFBS0M4jmA0hVnaUcm8gwuqWlpfluOZN1XQMwCcBQ1VnO4ikAI/14SWDomi9aaoHABwCfpzpLOQrARven0jutVB1EqKepDiDU27J9+1URos/g7OIPAE1Y077ctnOnU5a+bcG6Hg/gDTi/+APAgwD+yS+9FKc6iJ2Gr13WXgtoXzi8+ANAQ5C2ZNi6ZdeoDiLUkxUAn9u6ffv1AN4FkKA6SwUUaszd/HCXQFnxnwu1mzFjsRCpqb3onntCqoNYbdi6JZ2IaSGOHdzjFiUA9X6qVeYHqoMIdWQFwMe27NjxGwBvw13FHwCqRogWbN269VLVQazExxr06XBf8QeA67F9++tlly48a9i6L1oT01y4q/gDQALA7wzPy7Ht9l7hPJ7+5RRnVlBQ0JKYF8F9b1wAAAKqIxBYuG3btsaqs1hG158CcJvqGJVwM4Bs1SGsMnTd4vOItY9g3/kLZksCGe89sD6nueogQg1pAHxox44dVSJE78C9b1zHNWRNm52XlxevOojZeOzYPnDHNf+zGcFjx96sOoTZBuXmxgU4MBNAA9VZKoNBdQIGvzMoN9eKkwmFw0kD4ENh5hcIaKU6h0l+U7127cdUhzATP/ZYUzBPV53DNMxTWdebqI5hpirJxdkMulx1DpNcVDW5+FnVIYT9pAHwmYKCghsBDFSdw0wEjCwoKPDEtUwGCJHIDAA1VGcxUQ0Ar7FHNh2PWLf0KgJ7YXXmJPynYeuW9lCdQthLGgAfKSgoSDaInladwwLERC/mMrv/1jNdvwvOOeHPTB0wdqyb9zMAAPTFi4MG03PwSDNzMmK8MGLVh67cEyRiIw2AjzDwCIDzVOewAgPpDbZvv091jsooe7DP31XnsAzzBNZ1p51gWCEH6weGAdxadQ6LnMNxyaNVhxD2kQbAJ7Zu3VqHiVxdIM+K6KFdu3Y54ez1WA0FUFd1CAulAPiL6hCxGrHqwyoEGqU6h5UYGHb/90tUPVxK2EwaAL/QtOFwxoNJrFSnNBz+k+oQsWBdrw7A2w3aMQ9wdnY11SFiYQSr3AtvN2gAUCUuhPtVhxD2kAbAB3bv3l0NRINV57CFpo1g5qDqGDEYBPfflhmN2igqult1iIoalJsbB+IHVeewB90/OG+x1z8sCEgD4Asl4fBN8Nau8jNjTtu6Y4cbzzm/XXUAG92lOkBFVU0q7grnPyvDLDUTEbhRdQhhPWkA/GGA6gB2Ipe9Xh43rj2Ai1TnsFErHjeujeoQFcEau+pnqtLIXb9DIjbSAHjcT7t3NwRwleocNrthx44d7rmdyTA8d1LeWRnGLaojRGvU+pxqxPDZPfL0+wfWfF1fdQphLWkAPE4LhX4P/32fk0oNw00HA7nxkkVlXa06QLQMw+gI9z0wq7ICwWDod6pDCGv5rTD4D1Fn1RFUCLjkdbOup8A7xzJXxCWs667YUc/sjp8lszHDl6/bT6QB8L6OqgOowO657NERHjxVLgoEl/xsssauyGk2F/0OiRhJA+BhBQUFyQDOV51DkXRmdkNh9dPmv1MRpauOcFbMBKaWqmOoQEDTYVu+TFKdQ1hHGgAPMwyjGfz7Pa66devWhqpDRMG/z2JndvxrfyB/WWN4/wCtM9FQGLpAdQhhHb8WB38IBJqpjqASxcU5vsAAuFB1AIUc//OpETs+o5U0g9zwOyRiJA2Ah5H3jy0tH3Md1RGi4OfvkQteO7sgo3UYmht+h0SMpAHwNr8uXQIAiMgNZ867IaNVHP/aNZ//DsEF3yMRO2kAPIx9/ubFhlFddYYo+Pl75Ibi4oaMliGfv36vkwZACCGE8CFpADyMgELVGVQiTTukOkMU/Pw9Oqw6QBTckNEy7PPX73XSAHibn4sLmNkNb15uyGgVx792w+e/Q3DB90jEThoAD2Ngt+oMShHtVR0hCntUB1DIBa+dXJDRQprh79fvcdIAeFkk8r3qCCpxKLRBdYYobFQdQCHHf38MJj9/f8BgX79+r5MGwMOYeQMAQ3UORQ43atSoQHWIsyJyfBG0kONf+7OtrtwC/14GMGokGr7+EOF10gB4WOPGjYsA/E91DkXyiYhVh4jCWtUBlCHKUx3hrIgYxOtUx1CBgR/08zsXq84hrCMNgMcx8IXqDCoQ8LnqDFFhXgrADY2K2Yyy1+4G8jskPEkaAK9jXqw6ggrE/JnqDNEgXd8FwPmfhM23inTdHRvMWPPl7xDDHb9DInbSAHhcJC7uU/hvH0CRpmnLVIeogI9VB1DgE9UBohXUsBSA35bCI4FQQBoAj5MGwOPOq1dvO/y3lPd+gwYNjqgOUQEzVQdQwDWveUKLzMNMWKA6h73404mXXLlLdQphLWkA/OGfqgPYiV32eknXc+GvzYD5pOvfqQ5REWSQq36mKo3d9TskYiMNgA/EBwLvADioOoctiLY1atDgI9UxYvC66gA2ell1gIoqLEpcBMD5t5Wa44AWLpqrOoSwnjQAPpCSklII5smqc9jCMCYSUVh1jApLSnoJwH7VMWywD0lJ01WHqKhpGRkhJjylOocdiOm5iZdc66ZLaCJG0gD4hWE8Be8faLInPhj8h+oQsaCsrMMAnledw3JEz5S9VtcJlB59Ed4/XvsIgiHv/xwKANIA+EajRo32gvk51TmsxESPp6SkuLfJSUh4Bt4uMDuRkODan8GJl1x7hAnZqnNYiZgmTWre2R23Z4pKkwbARzgSeZy9ezLg2p31609RHaIyaMyY/QBGq85hGaKRNHq0q/ei1NgRfpaB1apzWGTz4aJETzc44lTSAPhI48aNizSiYapzWIDJMP6cQRRSHaTSdP1VAG46wyBaS/Doo2+oDlFZeufOYQ3G/fDi6Y2E+6ZlZBxVHUPYRxoAn0lr0OB9Bl5RncNMxJydlpbmiaJJACMQuB3eumvjAIA7yCNFc1KrTkuIvbUhkBnTnmrZwWdnHQhpAHwoXFw8BMyrVOcwydfbU1P/pjqEmeiRR34A8CfVOUx0F+n6JtUhzFRtV3g0gC9V5zDJ2iNFSV5cGRRnIQ2AD51//vnFGtAfwD7VWSqFaBsikT6eWPr/BdL1dwBPfMqcQLo+R3UIs+mdO4cjTDcD2K46S2UQeC8IN8nSvz9JA+BTDRs2XM9AVwBuvd/3IIiub9So0VbVQSyj6yMAvKY6RiXMBDBGdQirPJue+ZMG7Rq49/yGIibu+VTLDhtVBxFqSAPgY41TU78B0A9AieosFVSoMXdvVL++Vy5jnBYBjNTUQQA+UJ0lBguQmjqQdN3TD6Ka2OrKtQTjRrivkS4hppueatnJK5cxRAykAfC5RqmpCxm4Du7ZdLYPmnZNw4YNc1QHsQPdc08IwA1w18bNN5Ca2rssu+dNatVpCRlaZ7jnDIdCAvWYlJ65SHUQoRapDiCcYdu2bW04EJgP5jTVWcrxXw4EujVOSfledRC7MUDQ9QkARqjOUg4G8CR0fbRXdvxXxAPrc5oHIvwBCE1UZzkTZmwlRvenLurg6dUzER1ZARAAgLS0tJWaYVwKwJGfCpjovVBxcXs/Fn/g2OUA0vWRAHrBmdecDwHoT7qe5cfiDwDPtsjcEIqPawPw26qznMGnhhGXIcVfHCcrAOIUzKwV7NgxggEdQJLyPMAhYs5q1LDhi6qzOAXrehMc2xzYQXGU45YgEBhIjzzi1VMmK2xY/tLBBIwHUE11FgBHwfToU62unAQiXzZn4vSkARCntXXr1kYIBJ4G8AeFMRaQYQxOS0vbojCDI5VdEhgA4EkAKYpi7AMwBro+3a+f+sszNH9JKoGyCRigMMYCTTP+MrFFJ2nOxK9IAyDKtW3nzqvZMB4G0MnGaReRpj2eVr++7FA+C9b1mgD+AuABALVtmnYviJ5FQsJzbj/b3w7D83IyGfwwCNfaNScDnxPz40+ld/zUrjmF+0gDIKJSUFCQaRDdB6AnrLk0UAhgjsb8XMOGDVdYML6nsa5XBTAIwJ0A0i2aZi2IXgHzdNJ19z51UZFh63MyYPBf6Ng+jqoWTFFEwPsRjV94pkVHTxyNLawlDYCokB/27auRWFr6B2a+kQ2jO2mx7yM1mFkjmsPM78Vp2twGDRq47V5qR+Jx49rAMG4xIuFbtUCwQWXGMiKR7Vog8AaAmaTr35kU0dcG5y2umkTBXgZwIxtGL03TYn4fNthAANp8Bt6LSyx+N7tpF1mREVGTBkDEZPXq1bVCTPuCwSDi4oIIBgIIBIMIBLRjt5aQBk0jsGGAARjMMCIRhMIRRMJhhEJhhMJhZFx6sfwMWmTP3QPHa5qWFZeQgEAwHoG4eGjBIDQKgDQNRMf+6ZkZbBgwOAIjFEIkfOxPqKQYhmFk153+mncfUaxYr0/e5vhgEAnx8Yg/8bsUhEYEKvsdMgwDBjOYGeFwGKFIBKWhEEpLQygJl6K0OFJ7Yfc/OvHOEOFwQdUBhHsxM0KhEEIhX5z34kpsRFBadBRArEe9S39mKeZjxVx+h4QCcg6AEEII4UPSAAghhBA+JA2AEEII4UPSAAghhBA+JA2AEEII4UPSAAghhBA+JA2AEEII4UPSAAghhBA+JA2AEEII4UPSAAghhBA+JA2AEEII4UPSAAghhBA+JA2AEEII4UPSAAghhBA+JA2AEEII4UPSAAghhBA+JA2AEEII4UPSAAghhBA+JA2AEEII4UPSAAillq9c00V1BiFU6PXJTPnZF0pJAyCUIuL5uSvXXK86hxB26vXJzC5g7X3VOYS/SQMgVEsA8bvSBAi/OKn4J6nOIvxNGgARk6NHkyImDpcA4tlyOcBcGnO40mMQzPw++54VxT9Qs2qlv8/Cn6QBEDH5zW8uOAyg1MQhk+RygMmICyo7hAFjuxlRhGWf/A/Ny7zhsInjCR+RBkDEhIgYwC6Th5WVABORga8qPQbz92Zk8TsLl/1XmDye8BFpAERlfGnBmLISYJJaL89YCWB1JYY4VDux5ucmxfEtK6/5M0M2EoqYSQMgYkag+RYNLSsBpjFGxfo3GTSVnn++xMw0fmPxhr/DiEt43YJxhU9IAyBixuGStwH8aNHwSUT8vjQBlVNn+j8/JOCFCv9FwiaOaE9YEMk3LN/tz5j+XudeBywZW/iCNAAiZhkZGSEivg1AyKIppAkwQa0DR4cy4Y2o/wJjh8Hctd4rr8jmshjZcKtfaZC0Zy0aW/gEqQ4g3C935ZrrQfwugASLpigB000ZbVovtGh8z2OA9t192zCAxgKoWs6XLorE0Z0pU17bYVc2r7Gh+IeIud+ca26ea9H4wiekARCmkCbAHXYPujWVOHAXMW4A4UIAQQCbGVhC0P5ZZ/qrVmzs9A0p/sJNpAEQppEmQPiZFH/hNtIACFNJEyD8SIq/cCNpAITppAkQfiLFX7iVNADCEtIECD+Q4i/cTBoAYRlpAoSXSfEXbicNgLCUNAHCi6T4Cy+QBkBYTpoA4SVS/IVXSAMgbCFNgPACKf7CS6QBELaRJkC4mRR/4TXSAAhbSRMg3EiKv/AiaQCE7aQJEG4ixV94lTQAQglpAoQbSPEXXiYNgFBGmgDhZFL8hddJAyCUkiZAOJEUf+EH0gAI5aQJEE4ixV/4hTQAwhGkCRBOIMVf+Ik0AMIxbGgCithAz/ZtL/7EovGFi/X+8O2O0PgDBqpYNIUUf+Eo0gAIR5EmQKggxV/4kTQAwnGkCRB2kuIv/EoaAOFI0gQIO0jxF34mDYBwLGkChJWk+Au/kwZAOJo0AcIKUvyFkAZAuIA0AcJMUvyFOMa2BmBQbm5yclJJM424ORg1QVyTgKoAwEAhmA4wsJ9BG6k6bXi68RVFdmUTzidNgDCDFH+hAufqyUg60gyE5mCtJphrAlS17P8WgugAgP2AsRHVwxuo8dO21D/LGoBR63MaRgz+PQidmdERQJMKzMcANgH4AsyLDcKnz7TquN2qrMIdVny3pjeD3wIQZ9EURYaBrpe1vfgLi8YXCvX6aFYnkLEIFh7yA6D/3C7951g0vnAJXj+qIQz8HozOQKz1j74AsBgU+JRa/Z8l9c/UBmDYli+T6FCkOwi3AegKIGDS0AYYX5GGGQGiNye0yDxs0rjCZaxvAmiPZgQy2rZttdma8YUKPT6cdX5QiywHqI5FU0jx9zneMiwJh4LdQXQb2OT6B3wFYAYCeJNaTDCt/pnSAAzfsLguh4P3gfAXALXMGLMch0F41WAeL6sC/mT15QAGv93+0kv6WzG2UKP3x2+9w8BNFg0vy/4+xhuG10U4cB9gU/0DXgUFx5uxKlCpBmDEqg+rRILJD9Oxwp9c2TAVdISJnj1yJPGJaRkZR22eWyhm8UqAEeBI0zZt2vxowdjCZjd++lZTMvA9rLnkKZ/8fYpXjaiCID0MkJL6B9CzKEp6gjL0mOufFutfHJ6/5EYjLjmfCKNh/4sHgCrE/NeqyUX5w/KW3KBgfqFQu0tbzyFQfxx7AzabZiBwvQXjCgWI+XpI8Rcm4vxRNyKo5QOkrP4B/FckHc3nvKyY61+FG4BhW75MenDd0mcZNBfAObFObKJziei9YflLZ4xY9aFVO3uFA7W7tPUcMPUCUGL64IQWpo8p1GC0tGDUEDH3k+LvL7xlWBLnjXoWDMfUP4Df47xRM3jViArXvwo1AEPXfNGSDkdywfhLRSeyGgEDjLjk/wzf8KW8cftIRpvWCwl0C0xeCTCAmmaOJ1SiaiYPGALQX675+wuvGdUSh+JzAefVPwADENT+w6vHVKj+Rd0AjMhb+hstoC0B0KrC0eyTzpHIl8PzcjJVBxH2sWIlgIBdZo0lFGPaa+Jo8snfhzhvxG+gYQnAjq5/CES+5LysqOtfVA3Ag+uWdjcInwGoG3M0+9Ri4g9H5C+Ra7g+ktGm9UIw3QSTmgBifGvGOMIBNNO+l7Lb34d4zcjugOaa+gfwh5yfFVX9O2sD8OD6nM5gvAM1Gx1ilWyA5gzPz+miOoiwj4mXA4rDpXH/NiOTUC9YSh+g8o2hLPv7EK8d1Rkaua7+gXkO5486a/0rtwEYsX7JxTB4Dqw7ftVK8Qx+Z2j+kraqgwj7mHM5gCf/5jctzVw2FgrN7tZ3NwgvVmIIWfb3IV4z4mIQXFv/wPQO548st/6dsQF4YM3X9Q2D/g13b4aqroHm3f/9knqqgwj7VPJywPpwcfI4szMJtYIB7WEAa2P4q7Ls70O85q/1oWkur39cHazN4+/HnLH+nbYB0Jm1QKB0BoBUy7LZJy0Y1t7SmWM+80C4T0ab1gs1Ddcw8GkF/tqqAEe6/va3Fx6yLJhQYnbnvoWGwd0AfgXRNoaE/azhBin+/sKsawhEPFL/OA2l4beY9dPWv9P+x0Prl2UBdI21wexDzL87vG7pCNU5hL3aXnzxkvaXXnw1iNsB+BeAwjN86T4CJpQeLbxcTv/zrvevvXnL3C4330WR0PkAxgPYdoYvLQVhNoe47Xu/77/IxojCCfKPZoHZM/UPoN9hXdFp69+vTscauWZZ00jAWAsg0fJc9iriIC56ulmHTaqDCDW+//77hP2Fxe0ChCYAJxvEh8C8qbBGjdWdzz+/WHU+YTNmuunTN1sbrF3AhLoEKmE2NsdFAqtnX9d3n+p4wn68ZmRTaOTJ+oeIdhFdPP6U+hf85VeFA/wsee/FA0ASRTAZx55SKHzowgsvLAHwZdkf4XdE/C6wGsf+CAFo9Cw8Wv8QMH5V/05ZARiWt/Q6Inh6yYuBLk+36vCJ6hxCCCGcg/NGXgeQp+sfyOhCrSaeqH+nrAAQ4SH7E9nuIQDSAAjXunHo0JpGSWJf1TlOpiUUz3rvmWcOqM4hROzIB/WPTql/JxqAYeuWdALD80foEnDVsLycDk+nZy5VnUWIWBjhpHQm4yXVOU5mhJPyACxTnUOIWPC6kZ1geL/+gekqzhvZgdKfXAqcchcA3acqk92IjCGqMwgRK8PgRqoz/AobjVVHECJmhn/qH0An6p8GAFk/fFyDGD46O59uGLpysYsPeBC+xpymOsIvMcN5TYkQUeAfsmoAfqp/uIFXDq0JlDUAoeKk/gCSlEayVyIlxN2kOoQQsdA0OK8BgDQAwqWK4bv6h4T4m4DjewDI6HmaIwE8jWD0vn7Bvyw72zu5Slxodue+Zzp4RoiYOfHTNgFyCUC4FPdUncB2zD0AvBzUFy8OHgJ5f/PDLxgGusUnBvaBrRk/HDbQ6+O3DjHwDTG/F0lOnjEv84bD1swmfIU5DeSwhp2c15QIcTa8WA8CRZmwqhA4Fl3F3CcQPNAgvr3GRnXVceymaYSEYBxKQpV9cmy5qhNwNYiuDhQVPd7r47depEjouTnXDdhu5aTC44gcdwkADlyVEO7CrGv7v9rUDRq6E+MKAPUB1EUUj62PVWFwC6qijlXDO1kN5J/fTgsYkQzVSVSJj4+3c7qaAEZzIO6/vT6ZedbnNAtxBgRnPqSkQZ8+uq2/UMI79n95W5sDX29aRYT5xLgHQGsAKbCw+ANAQIuzcnhnI2RoTNRcdQ5V4uN+dRKyHZLB2vvSBIhY9Hzgrylw5vPJtSMph53YmAiHO/D1rV1AyAFwkd1za1rA7imdg9FcA9BCdQ5V4gJKGgAASAJr83t//Kafbj0RJuBwyHnL/2WCFC+XAUSFHPj61i7M2vsAklXM7+8VAGqhMXCO6hyqBIPKGgAASGDQbFkJEBVBBjm3yMphQKICTir+ym7B8/cKAJ+rEVBNdQ5VSP1O6iS5HCAqRHPgBsAyTrw9UTiTE4o/ADjubhp7VdPg4wZA0yzdXxItuRwgosbs4AZADgMSUXBM8YcjPgSqVE2DN599HBXNOYcfyeUAESXnHQN8nBwGJM7GScUfAIgdUwNUSNYAFKlOoYrBhuoIJ5OVAHFWjv6ULYcBiXI4rfgDAMNRNcBmdEQD4NvT6Zgdd/qTrASIchGc9xyAE2QPgDgDJxZ/AGDfnQB4isMaAYdUp1DFcF4DAMjGQFE+JxdZOQxI/IpTiz8AwHBkDbAJH9IYvFl1DFVCkbDqCGcilwPEr/S8c1Q1OHvTrhwGJE7h6OIPwPD1JQD8qIFoveoUqoRCjm0AALkcIH4hkujoT/8A5DAg8TOnF38AiDj3Q6D1iNZrzNigOocqobDjv/lyOUCcEGTNudf/j5PDgATcUfwBwDAcXwOsw7xRg0bfqM6hSklpqeoI0ZAmQAAAGIbjGwCPHAbk63vDKsstxR8AwmFLnwbrcPy1trV5wUoA+1VHsZthGCh1/grAcdIECLALbrNz9G2KUeh57+hBPe7NWtlt8MgGqrO4kZuKPwBEOAR21u3gdtmLVlVWB2dT38iD+TlLAL5BdSI7UUB7Z+7V/fqYOWbvj9+8nkHvwpqntR3fGHjTnC43L7RgfM/qer9ePRgpeo+I3pg3efwrqvPEjCnN6Z9NyaUrAH2GDUsqLo2fzMx3AEAA2mfdBo/83QdTntyhOptbuK34AwAYCEdKOS6Y6PDfLNMtJtKNY2fhkvGe4jC20wwy/TXP6XLzQgLfBKDE7LHLJDDoXbk7IHplxf9DAJ2Z+eUeQ0a95Npb1VywAgDNfacBdhsypllxSfx/wLjjpP/csqwJkJWAKNhQ/EME6kfhcG2z/8QF4gZZlNnJ3gPKrnWNWPVhFSMueQeAqkoj2edIMYcbTEnvXGjF4BavBABACYFlJeAsTir+vz35vxOwgrVIn/kvTPyfomgx6TE4awWAtqpznEXB/CnZjt+rcFyPIVk3gPE6gBpn+JJ1ERiyElAOO4o/GP1qXTFjrhWD86oRVRDUfFX/gOQGlK4XagAw8ZJrjwDmfyJ2sHetKv6ArAQ4wZmKPwAw0A5GYHnPwaOvUxCtMpy/AuCSw4Cu0vVgjyGjxoMxF2cu/oCsBJTL7cUfAOiSiUeo9XaeAAAgAElEQVQA9k/9Y36X0vVCADjxODwDxtOAP85FZI2et3oOaQLUKa/4n6QOgz/oMWTUeF3XHfFYyPIMGjQoDkBd1Tmi4PjDgHreN6phtZ1HPwdTFqLb8S9NwGl4ofifQPBN/QP/XP9OvPE906rjtwA+URLIRgwserpFZq4dc0kTYL8oi/9xBKasFbuLPu715xEpVmerjF1a7TSc9PvqZE4+DKjnkKyObFAuiK6s4F+VJuAknir+AKjVk76ofwAWUesJJ+rfKW8oBONx+/PYi8je1yhNgH2OFf+j/0Z0xf9njN+FtcB/et43KsOaZJXHGjdUnSFabBh/6TlkVJeu999v1R6YWFCPe0dnMeMzALGuULQMIPBhj0HD3bASYxmvFf8TiDxf/2Cc+hp/tfz14Lqls8Aw9fY4x2DMfCq9wx9VTC0bA631c/GnyysxTAmAB+ZPyX7JrFyVpeu6lrvjaAY0uoeAO1XnqaAjYFoMMhYZrP174dTxm1SEuHHo0JqR0oTXAJh0qzOtRjj0+/nTJu0xZzz38GzxL8N5WbMA9mb9A8+k9CdPqX+/agCG5i9J1aCtA7i8jTFudDioUYsJLTILVAWQJsAaJhX/EwiYweGke+dP04+aMV5FXTVQT6xapbgrgf8AxjVwx7X/aGxg8JvM2j/taga63591CYXxLghNzR3Zf02A14s/AHD+X1PB4XUof2OoGx1GAC2oxYRT6t9pN8A8mL90CIAXbIllE2a69+n0zBdV55AmwFxmF/+f0WoCbpo3Zfx/zR33zBN2v290J83AnxjcE85+6l9lMYFyGMbriWF6Z/a07INWTNJj8OiBAE+BZQXLP02AH4r/cbw2awiIPVX/ANxL6RN+Vf/OuAN2WP7SdwnobW0mmxBmP9WyQ1/VMY6TJsAc1hX/Ew6CeeD8qRMsu0XoxqFDa0ZC8beB6c8AWlo1j4MVAfweEb04b3L2EjMGvGqgnlg1ueg5Au42Y7zyeb8J8FPxP47zR70L9kj9A82m9OzT1r8zNgBDVy6uqcUHV4DQxLpgduD/xiWUZGQ37WLJp4xYSRNQOTYU/+OYgScLU5Ie+lzXTXt4RM/7RmWwQX8GcDOAZLPGdblcIkw6VC/pnVj/rXvcN+J8MgKzGWhndrgz824T4MfiDwC8cmhNxMevANxe//BfJFIGNT39Klu598AOy/vyAqJIDoD6lkSz3p6IRpnPtsh05COPpQmITQVv9TPLkrhwoP+caf+3vTKD9BiclcnAowRcbVYwD/qRmP5+qH7iKxVpBLoPGdONYPwTjNpWhjsDz50Y6Nfifxznjb4AMFxd/xBAJrWYcMb6d9ZDMIavXdaeNeMzuO+YxKMGaVc/0/LKr1QHKY80ARVj4yf/09lusNFv4dQnl1bw71HPe7O6MeFh2Nu0uN06EMbMn5z9fnlf1KdPn0BJ3SY6Ex6C0kf5emclwO/F/zheO7o9yJ31D5pxNbWcWG79i+qXZVheTgcingegpinRrLefmHpOSs/MUR0kGtIEREdx8T8uzIysBVOzz3pymK7r2re7jt7IoIcBtLEnnid9ZICHLpwyYd0v/0fX+8fUC0aMfwFwyKOy3d8ESPE/FeeN7ACQq+ofQD0pPfus9S/qbnlYXk46wP8m5z+RbDsMdH3qog6rVAepCGkCyueQ4n8CAe+EAkl3LXpeP3S6/9/jz6N/B42fhPMf3uMWIYAmJO5OHDd7tl4KAD3uHfVbEGYB5LAnELq3CZDif3qcl5UO8L/h/OdxbAdTV7ooO6r6V6HlsgfXfNEYAe0tAFfEFM1qjGXBcLj/hEs6b1UdJRbSBJyeomv+0fhe03DT+y9krzn+H64fPKqlRjTWs4dpqZdHGg9ERGvLGj8PhlMfPOS6PQH7l93eERp/AKCKRVO4svgfx2sebIxA8C2wQ+sfsAxh9KdLJkRd/yp8vUxfvDh4KCX4MAiPwDlnkzMIzxceSRoxLSMjpDpMZUgTcCqnffI/jSMMvgdG3OfQwuMIuB1AQHUojzPgnPeecrhnJUCKf3R4sR5EytGHAYfVP+B5FB0YQRnTKlT/Yt4wMzwvJ5MJUwBuHesYZmBgNWs8+JkWHZepzGEmaQKOcUHxP1kJrPt+CddyfhMgxb/iOC8rs+yQKaX1D4TVMHgwXfRkTPUv5g5mUnpmTvWdobYEfhDA7ljHiRlhFwFDa+wMt/NS8QfkAULAycv+rij+gBR/cVp8MYLBJU59iqAU/9hQenYOdiW3BSuqf8AuEA/FzuR2sRZ/wKRbZkas+rAKxyUNYtBwAGlmjFmObQBNLDyaOG1aRoaSs9rt4teVAAdf8xciVo7bEyDF3xy8akQVBGgQSBsOsMX1j7aBeCKOJk+jjMo/q8TUe2b78KxAo3WpnQHcVnaMsFk/WMUAPgFjRmFR0ntuv85fEX5rAqT4Cw9zTBMgxd98zH0CWHduZ7B2G8yuf4RPwDwDRQffq+h1/vJYdmjGiFUfVuH4pExm+h0DnQhIR/SHKRQykEfAF0T8GZUW5Uy85NojVmV1Or80AVL8hQ8obwKk+Fvv2KpAIBMwfgfSOgFcofoHUB7Y+ALQPkMkkkOXTLSk/tl6ataoVYsbGUGtmQGtDjSuCdaqHAthFDLTQQ3GXi1sbHTrbXxW6vXxW70BvAUgzqIpisig6+Zc28+UB7JUlBR/4SPKmgAp/urwqlGNENSaAZE6YK0mNC77HnAhGAeBwF6EjY0VuY2vshQemykqyoYmYDcFw23ndL7V1gbMZbv9hTDDwvlTsrvbOeH+Lwd0AtEiyCE/ooxT7mMUUZjbpf8cAveCdXcH1ONQ4HGLxj6jYKRohhR/4SMlbPA4Oyc88J8B54PoXUjxFyeRBsBlyq7T3wLAmo2QRLf2/GSmrU+/Yo2eAWDao3aFcDIiDFvw4oRv7JyTDTwJoI5Fw0vxdylpAFxobpf+cwD0hzVNQCDA2rUWjHtGC14Y/zmYHrZzTiHU4DfnTc6eaueMB5bd3hSg3hYNL8XfxaQBcCmLLwc0s2DMcs2fOn4CgDl2zyuEfXhtSbJxt+2zarge1uz3kuLvctIAuJhVlwMYqG7meNFOS8U8EMB6BXMLYbVCA+j70URrbucqDwEtLRhWir8HSAPgctZcDqBd5o0VvXmvTDisaegLwNMnPArfYQbfsXDKhHVKJodRzeQhpfh7hDQAHmD25QCiyH/MGCcW77+QvYbBg1TNL4QFJi2YMuEdhfPvNXEsKf4eIg2AR5h4OWBPcWlNJYcBHbdgyoR/gXiaygxCmIO/Sg3v/6vaDPStSQNJ8fcYaQA8xIzLAcQ0flG3bladMxC1sFb0FwC5qnMIUQk7ScMfpk0z7+z2WARDgQ9Q+dVBKf4eJA2Ax1TucgDn1K194DnTQ8Vg0fPPlyCMmwA49jnqQpQjDDb6zXthQoHqINU6vrobjBcrMYQUf4+SBsCDYrwcsCMYCvSelnGPY560OH9a9k9EfAuAiOosQlQEE/11/tQnv1Cd47hQSdHDANbG8lel+HuXNAAeNbdL/zlk0NUAPo3iy4s0ogGzu/XdbXWuipo3ecLHAP2f6hxCRIuJ5i2YPH6i6hwnS+k8u9AIBLqB8AqiXx2U4u9x0gB42Jxr+y2Z26X/1aShHYB/ASj89VdxDiK4/N2r+31id75otUtJ1AH+t+ocQkThv0khvg0Aqw7yS3Uue3VLrd/OuCscZ5xPjPEAtp3my8JE+ArAWIONq6T4e5s8DdBHun7wQUJ8wsF2FNGaQEOhEaa1867r+1/VuaJx7V3DascnxK8AcJ7qLEKcQTEZdMW8F8evVB0kGsyg/f+5rTUxX8BEyRShn0KlR79N6Tz7NB8UhBdJAyBco/ufR11GGi0BkKA6ixC/RnfMnzL+NdUphIhWQHUAIaK1MXfZthbtrzwAUDfVWYQ4GYFfnD8l+wnVOYSoCNkDIFxl3pQJLxAwQ3UOIY4j4LuEhNCDqnMIUVHSAAjXKU6ODAaQpzqHEAD2sxbpPfvpp4tUBxGioqQBEK7z0cSJRzhi9AJwUHUW4WsGGH+c/8LE/6kOIkQspAEQrrTgpSe/B+F2OPB2K+EPBHps/tTsRapzCBEraQCEa82fnP0+gGdU5xC+9GnC7h8eUx1CiMqQBkC42uGUpFEEWqo6h/AT3oJwuP/s2bPliGrhanIOgHC9boNHNghA+xZAquoswvNCGnDV+1Oyv1QdRIjKkhUA4XofTHlyB2t0C4Cw6izC8yJGGFtVhxDCDNIACE8IUmQLgFLVOYTnJSKIsapDCGEGaQCE6+m6rkUigZcBJKvOInzhtp5/Ht1GdQghKksaAOF6K3YfvQ/gTqpzCN/QWDPkEdXC9WQToHC1sg2AGwBUV51F+AsRXzNv8oSPVecQIlayAiBcLcCBCZDiLxRgpmzIhyjhYtIACNfqPmTM5SC+VXUO4Vttug8ZfaPqEELEShoA4VpkGP8H+QQmFCLmRyA/g8Kl5AdXuNIN946+2iCW669RSkyIR1pKPdSqXhUJCfGompyExPh4AEBxaSkKjxahpKQU+w8VYtvO3SgulTsqo8WkXb9g8t8/UJ1DiIoKqg4gRCwMMsZJ/3p6CfFxaNX0PLRu1hQXntsIaSn1ULdWjQqNsWf/QWzbtRvf/7gFqzduwrpNP6KkNGRRYncjjjwMQBoA4TryDipcp+fgUZ0Z9JnqHE5SrUoyOmZcisy2rdH8vHMQDAZMHT8cjmD9/zZj2co1WJK7CoePHDV1fLdj4qsXTJ7wqeocQlSErAAI1zFIG0osTwEmIrRLb45rrmiPjPQWphf9kwWDAVx0YRNcdGET3NW7O5bnrcfHy77BivyNYPlegFh7BIA0AMJVZAVAuEq3IWOaBdhYBx9vYCUitL+oBfp3+z0uOKeR0iybC3Zg7idL8Pny72AYhtIsqpFBbee9OH6l6hxCRMu6jwxCWKBF+ytHA7hSdQ5V2l/UEg/fezu6d7oCtWuoP/6gZrWq+O0l6chsdzF27NmH7bv3qo6kDgEbly9boDqGENGSFQDhGn369AkU12uyGUCa6ix2q1OzOm674Tp0vqyt6ijlWr52HV56ex527duvOooKheFAUtqi5/VDqoMIEQ3ZAyBco7huk2vgw+LftcNvcWfv65EQH6c6ylm1v6glWjdripffXYAPc75RHcduVYORo7cCmKI6iBDRsLwBYF1PAdARROlgbgGgGYBaAGoCqFr2ZYUADgDYD2ADgPUgygPzUtL1XVZnFC5BPMBPi1ZJiQm475be6NDuEtVRKiQxPh5Dbu6Nti2b4bk33sWRoiLVkexDNATSAIgyvVbtSAmWxnUkDekAWoCpGcBnqH+0H+ANDKwnRl4oPrR07iUNLK1/lryb8rhx7WEYNwPoAiC9EvMwgDwAHwF4k3Q916SIwmW63q9XD0aKtsMnj/w9t2F9PHTPbWhQt47qKJVSsGsPnpg2A1u2+6ePJ03LnPfC35epziHU6PfNnvYcoJvB5tQ/Aj4izXjzrbb1TK9/pjUArOvVAQwCcCeAlmaN+wv5AF5FUtJLlJV12KI5hAP1GDzqLoD+oTqHHZqd1xiPDr4D1ap4o9cpPFqEx6a+hnWbNquOYgsGXlkwJfsu1TmEff749d7qoaA99a+42HhpXmY9U+pfpRsA1vXaAB4AcD+OLe3bYT+A55CQ8CyNGePL3UZ+02Nw1kc4tqLkae0vaolRd93iiuv9FVFSGkL2y/9C7tr1qqNYj7AvNbS/wbRp0+ToRI/r8+XB2lp8+AG2u/4xngsmBJ6deXHNStW/mBsABgi6PgDARAD1KhOiEvaBaByYnydd9/dNyB52zYgRVRKOBvYCSFCdxUqXtW6JMYMGIKB584iDSCSCJ6b90x9NAKPb/KnZi1THEBZhpn65ewcwYSJAyuofA+PS29V+XieKqf7F9E7Dun4BdD0HwOtQV/wBoDaYnwGwhB97rKnCHMJC8UcDv4PHi3/z88/BiDtv9mzxB4BAIIDRf/ojWjU9T3UUG3Bv1QmENfqs2HVBn2/35TDR6wqLPwDUJuCZ/BX7lvTLPRBT/avwuw2PHdsLwHIAV8QyoUWuRCSyknW9v+ogwnwEuk51Biud27A+Hh18x4mn83lZfFwcHrrnNjROTVEdxVJEdB38dMuKT/RZsacXcWA5sbPqHyOyst/yfRWuf1H/gLKuawAmARha0Uls9hSAkXJJwDt63Jv1XxA8ucKTmBCPp7PuR1p9lR8k7Ld9914MG/8cjhaXqI5iGcMItF744v+tVZ1DVJ7OrOXn7psEcnb9I+Cplu1qj4z2kkBUDQDrejyA1wDcXIlsdpqJ1NSBdM89sgnH5XreO6o5E3n2ovHwgf3Rqf2lqmMokfPtakx4eabqGBbit8E0D4SfAgZtjdubWDB7tl6qOpWomD55HE9F+16DS+ofgWfWQJ2B0zLorPXvrA1AWfGfC6CbGeFstBCpqb2kCXCfPoOyahTHoREMnAPCTQA8eUtV1w6/xb39b1QdQ6nJb87x04mBDGAHgK0AtgH0ExO2ksHbpElwprLi78r6VxO1e52tCSi3ASjb6f8agNvMTGajNwHcKpcDnKPPsGFJR4sTUoNAkwhxQ2JKhWY0gaE1JOJUBpri2ClZnlavdk1MfuRBX1z3L09JaQhDHnvKr88OOJP9IGxnRgERbyLWtoNRQMAmQ+PtJUmRHz+aOPGI6pCex0x9V+x/DWDX1r9W7WrfWt7lgPIbAF1/Gs6/5n82E0nXR6oO4Qc3Dh1aMxJKSIOBc6BRGjEaMfE5YKSB0AiMc/Dz8Ze+9tA9t+E3F7dSHcMRlq1cg+x//Et1DDc540pCaWnpvz98+el9ivN5Qt/le592+jX/KEyclVHnjPXvjA0Ajx3bB8yzrMlkM6Jb6NFH31Qdw+263q9XD4aLrmRCIw2UVlbcG4GQJsU9em1bNYM+5E7VMRxl3JRXkZu3QXUM19OYurw/dfwnqnO4Xb/cvX0Y8Eb9Y7plVvvap61/p70NkB97rCmYp1ubykbMU1nXm6iO4Xbx4eLLQPiAgGkMfhSMOwB0AaMVpPhHRdM03N2np+oYjnNHr+tBJHfNCfX65R5oyoB36h/x1JuWHzht/ftVA8AAIRKZAaCG5cHsUwPAayz35QrFrmzTGmkpdVXHcJzGqSm4/JJ01TGE3zGTQd6rfxpFXgPzr+rfr1cAdP0uOOuQH7N0wNixbt3MITyAiHBTl06qYzhW366/k1UAoVS/FfvuctghP6YgoEPfFXt/Vf9OaQDKHuzzd9tS2Y15Auu653eYC2dql94cTRo3VB3DsZo0aoi2rZqpjiF8qs+XB2uzl+sfaMKNK/efUv9+uQIwFICX1ydTAPxFdQjhT9dc0V51BMfrcrn8Gwk1KD7s+foXFzFOqX8nGgDW9eoA7rM9kv0e4OzsaqpDCH+pViUZ7dKbq47heJe1bolqVZJVxxA+88ev9/qi/hHwQM+c3Sfq38krAINg3/OMVaqNoqK7VYcQ/tIx41LEBYOqYzheMBjAlW1aq44hfCYU9E/9S0jUTtS/kxuA2xWEUcWTR8sK58psK0UtWpltL1YdQfiPb+ofnVT/NADgcePaA7hIWSL7teJx49qoDiH8ISE+Ds3Oa6w6hmu0bHou4uPiVMcQPtHvmz2+q3/9l+9vAxxfATAMVzzlyFSGcYvqCMIfWjU9T5b/KyAuGETLJueqjiF8ggPku/pn0LH6d/xd6RqFWZTgSOSPe+4eGLFyDo0QMcA7NebvD4a0xee/9lqxlfMJZ2rdrKnqCK7TulkTrNrwX9UxhCId38lrYxBdDkJD/FynLBEJG38MBE57KK6XXQ0AQdb1FAC+eyoJaVqqpmlZbFjXA3DZ0YMMQvU4Prz37ttfIkp4vPa0aQctm1Q4zoXnNlIdwXXkkok/Zc7Juw6gCQZgy6YZLaDBh8UfAC65OfdQXQ1AR/jxiFwixCUk2DljNQAjmEu+2zNoYAs7JxZqNaqfojqC66Sl1FMdQdiozywOXDl33XMALYJNxR8A4hN8+zhuMqi0owZ/bX44RSCo5Jt/HjF/vnvQrakqJhf2SoyPR+0acuxERdWtVQMJ8bIR0BeYaXtc/gxivt/uqePi/Ls3h5nSNQC+PZ0kEFT2BlNf4+CrqiYX9kmrX0/Ot48BEckqgE90mLtuBJiUbMoOxgVUTOsQ3FwDcKHqGKpo6hoAAHztvrtuv1JhAGGDWvLpP2Y1q8sTpr3uyvfXN2Tgb6rmD/r57hyiZhq8ffZxuTRN7eYPg/BHpQGE5ZLs3WfiKUmJ8m/ndWTw3QCUdXqa5uPVOUZdDcc2p/kSKW4AiNBZaQBhuST/bjKqNGmefIC5p8rpyc8NAFBNg8LuSzUi5bd/yL1OHiefYmOXnJioOoKwntJDMvy9P4erKa+APmeoDiCEEMKfNACFqkOowqy8/m5VHUBYq6i4RHUE1zpaLAdn+sAPKidnZpXTK0aHNQCHVcdQhQ21DQAzPlcaQFiuqKRUdQTXKiqR5snrCPS+yvnZ8HMDgMMagD2qU6hiKG4AiLQ3lAYQlpMiFjtZPfE+I0D/gMJVaMPPDQBhjwZgo+ocqhjhkMrpF9WZ/uqXKgMI6+0/6NsFtkqTfzvvW3ZDiwKAHlU1fzgcVjW1egZv0EC0QXUOVSKqGgDGjkgc3almcmGnbTt3+/w6Y2yYGQW7fbs46Ss5vVo8zYCS1dBwyMcNAGGDBmCt6hyqKGkACJsM4k4pU17bYf/kwm7FpaXYJ59kK2zP/oMoKVW6QifsQsQNwy0HAvSc3VOHSv3bADAhTwPzUgC+/IgSKrF1l/EhBmUb4cCl9abP8O1lFz/aunOX6gius23XbtURhI1m96VITu+WDzBwDUCr7Jq31L9NphHk+KVB0vVdrOt58NlTAY1weLthGDOsfBKyRogY4J3ExobaiTU/p+efl11NPvT95q24pPkFqmO4yoYft6iOIBRY1rvVxwAuzZyz9hIGXU6gRgAsO7DfiBgwIsZALaDVt2oOJ2Lwqjczqu85/g/7MXzWAGjB4Bt1p782WnUO4X1rNv6AP1xzleoYrrJmo9Lbw4ViOb0vWgXAlpWAviv2xoMxzI65nEJj+gQ4dhAQAMxUmEUVP75moUD+Dz8i5OfdxhVUGgpj/aafVMcQPqGR4btaYLA2EyhrAEjXc+GvzYD5pOvfqQ4h/KGkNIQN/5OCFq11m35Eaci312aFzd5qW8939W/2ZbW+A35eAQCA1xWFUeFl1QGEvyxbuUZ1BNfI+Xa16gjCf3xT//ik+vdzA5CU9BKA/SoC2WwfkpKmqw4h/GVJ7iq5DBCFcDiCL1f66cOYcILiYsM39a+k2DhR/040AJSVdRjA80oi2YnombLXKoRtDh85itw83565FbX/rMnH4SNHVccQPjMvs95h8kP9A56Zl1nvRP079XHACQnPAPDyDbg7kZBg+2ETQgDAx8u+UR3B8T7+crnqCMKnAvGBZwD2dP3jXxy2dEoDQGPG7Afg3VvjiEbS6NEHVccQ/pSbtwE/bNmmOoZjbdpagJXrvlcdw022g2kBiLMZuB2Ei9rUT/xMdSi3mnlxzf1g8mz9Y+aRszNqn1L/fnUKDgMEXV8K4ErbktljCXT9KvLpqYdmGDRoUNz2+DpNmSNpmoFGIJzDoDQAjQCcA0IaGLVV53SyzLYXY9Rdt6iO4Uh/n/4GvvpOrv+fxl4QVjFjDYHXkIZVXJqcP3+aLtdKzMZMfVfs8179YyyZlVH7KhCdUv9+dcISAcyBwO2IRFYAqGFbQGsdAHCHFP/KmTZtWgjA+rI/p9X1/vsTtHCVNI24ITGlMtAEhIYgTiVGEwYaAmgAK49gdLBlK9dg687daFS/nuoojrK5YCe+XpWnOoZqIRC+B5BHTPkGeAUz5S2cOn6T6mC+QcSUe+B2hrfqXwSBO35Z/IFy3oRZ1/8AYLalsexzE+n6HNUhxDF+bxLatLwQY++7S3UMRxk75VWs8Ncmye0M5BEon8sK/ZGixLzPX9NtfUCJOL0+y/f+gcgb9Y+Ib3q7Xd3T1r9y32BZ1ycBeNCSVPaZQLqepTqEqJg+w4YllRTHncOkDQD4IdV5zDbm7ltx+aW+On37jHK+XY0JL3v2MLZCAGtBvJoNWq1pWBMxaM3CqeP9cMuZq/XL3TuJ3V7/iCfMalf3jPWv/Abg2H6AVwAMNDuXTWYCGEC6bqgOImLTbcjwcwMc/FF1DrPVrVUDUx4ZjsSEeNVRlCoqLsHgxyZh74FDqqOYizDOMOj1hVPH/w9y6dGdmKnfin2vsEvrH4FntmxXZ4BOdMb6p53pfxwbAIzU1EEAPjA9nfUWIDV1oBR/d/tg8qTNKGfPgVvt2X8QL89ZoDqGcv94d4H3ij8QCUJ7ruzavRR/tyLiGqjtyvrH4AU1UGdgecUfOEsDAAB0zz0hADcAeMWscDZ4A6mpvcuyC/dbpDqAFT7M+Qaff7NSdQxllq5Y5dX7/pfPnfz3vapDiMqblkGhXYdr3wByUf1jfqMW6vSelkFnrX9RPWeZdD3MwJ+g6/sAjKh0QOswgCeh66Nlx793aMA7Brz5uM4pb83FBec28t1dAQW79uCFmR7dl8vebFj96vPOFAbzn/qu2Of8+kf85Kx2dUafbsf/6Zx1BeA4Aph0fSSAXnDmmcmHAPQnXc+S4u8t70/J/gqgzapzWKG4pBR/n/5PXx1/e6jwCB578XUUFZeojmINImkAvIaIZ2XUGQmwc+sfof+sdnWzoi3+QAUagONI198DkAFgaUX/roWWIBC4lHR9luogwhIMGO+oDmGVLdt3YeyUV1FcWqo6iuVKSkN4/KUZ2LbTsyeu7m6XkrhCdQhhjVkZdd+LcCCDnVT/GEs4Erh0Vrs6Fa5/Md9nXXaHwAAATwJIiXWcStoHYAx0fbp86ve2HveNaQHDyOsdznwAACAASURBVIdHzwYAgIyLWuChQQMQCARUR7FEJBLB4y/N8Pb9/kz/nD91/G2qYwiLMVO/3L0DmEhp/WOiMbPb1ppekU/9J6vwCsBxZZcEZgBoDuBRHCvGdtkLor8hMbEJ6fo0Kf7eN/+Fv68H4wvVOayUu3Y99CmvenJpvLi0FE94vfgDAPhN1QmEDYj47fZ1Z5QGtOasov4Bf2NQk9ntak+LtfgDJn6aYl2vCmAQgDsBpJs17i+sBdErYJ5Oul5o0RzCoXoMyeoLxtuqc1it2XmN8bd7B6J61Sqqo5ji8JGjeOzF17F+kye3cZxs5+GUpEaf63pYdRBhrz55u6qiKDAIwJ1kZf1jvMLJkemz01NMqX+WLKfyuHFtYBi3AOgCoDViX2kwAKwG8DGAmaTr35kUUbjQoEGD4rYHa/2IY0cFe1rj1BT8ddBtSEupqzpKpWzduRtPePua/0l40vwpE5y8S1zYoP/y/W0MMq/+EeNjg7WZsy+rZXr9s/x6Kut6XQAdAbQC0BJAMwC1AdQEULXsywpx7IE9+wBsALAeRHlgXkq6vsfqjMI9etyb9QQIf1Wdww5JiQkY3L8XOrW/VHWUmHz+zUpMeWsuiku8v7kRAIgjl8ybOnG16hzCOW7OPVTXoNKOzGhFQEuDqZlGqM2/qH8EHDAY+4h4A4D1TMgLcvzSNzOqW1r/PLuhSnhT2dHAPwDw5k6507g28zLc1bu7a44NLiouwT/eXeDVQ35Oi4Dv5k3JbqM6hxAV4Zs3UeEN3y//6mDz9le2Asg3T9L54adt+PTrFahRrQrOT0tVHadcy9euw7ipr2HNRr89wZYmbFye87XqFEJUhDQAwnVatu2YzxrfCx+tYBWVlODrVXnY8L+f0LRxGmpUc9YGwc0FOzHptbcw69+LcbTId0+0PYpw+I6NK77yz2lOwhN88wYqvKXn4Kw5fOxUSt8hIrS/qAX6df09Ljy3kdIsP27bjvc+XYrPl38Hw/Drc7doyvwp44eoTiFERUX1LAAhHMegx6DxjfBhE8vM+GbNOixfux5tWzVDl8vbo33rFogL2vPrHAqH8c2adfj4y+X4Nn+jLXM6mAGNnlcdQohY+O7NU3hHj8FZCwBcrzqHE1RNTkKHdhfjyjYXo0WTcxEfZ24zUBoKY/2mzcj5djVyvl2NwqNFpo7vYrPmT8nupzqEELGQFQDhWhppjxlsSAMAoPBoERYt/Q8WLf0P4uPi0LLJubi4eVNceG4jNEypi3q1aoIoun6fmbF7/wEU7NqDjT9uweqNP2D9ps0oDcn5Nr9gaBoeVx1CiFjJCoBwtR73jp4P4u6qczhdQnwc0lLqoWb1qkhKTECVpCQkxh+7rbC4pARHiotRVFyCA4cKsW3XbpSUnvVR4r5HoH/NmzL+VtU5hIiVrAAId9N4NBhdIXe0lKukNIRNWwtUx/CS4gjjb6pDCFEZMT8MSAgnmD85Ow/Mr6rOIfyFGBMXTh3vt8MOhMdIAyBcjwJ4FMAR1TmEPxCwtbhKZLzqHEJUliybCtfb8M2yw83bd0gE0El1FuF9BL7jg2eflDP/hevJCoDwBCo2ngRwUHUO4W3HNv5NmKM6hxBmkAZAeIKRqHUDUEN1DuFpuwNED6gOIYRZpAEQrtfz3lHNCTxNdQ7hebUiMNJVhxDCLNIACFfrM1ivyhrNAVBddRbheUFmzOp536iGqoMIYQZpAISrFaNoKhitVOcQvlHfMGj2oEGD4lQHEaKypAEQrtVjyKihAOQkNmErAq7YEaj5hOocQlSW3AYoXKnHvaN+C6J/QX6GhQpEVzRv12HtxtycdaqjCBEreRaAcJ1efx6REtECKxhopDqL8LXD0LTL5r/w9/WqgwgRC7kEIFxF13UtrAX+KcVfOEA1GMasHoP0ZNVBhIiFNADCVXJ3Fz8O4BrVOYQo0xpxRdNVhxAiFnL9VLhGjyEjuxPTZMilK+EsrZtldNi5MTcnV3UQISpC3kiFK3QbMvzcAAdXAKijOosQp1ECUIf5U8YvVx1EiGjJJQDheFcN1BMDHJwDKf7CuRIA490eg4bXVR1EiGgFVQcQ9sl8d2MTUKg7QM0A1AZoNwPfauHgB0v7Xrhbdb4zqZpcNBlAW9U5hCgfNeZg8M0+ffpcN3v27IjqNEKcjVwC8IGO89af///t3Xl4FeXZP/Dv/cxJSNgkQTQJ0Fe0lV1EgtYaEazWhR0apL6KtlqsKCooi23VqUtlE6wLKlpfXGqVCMjqLiqIVnEBZfWnVqGENWFPQs7M/fsjxIqE5JyTmXlmuT/X1et6r77kme9plvt7ZuY8Y1Vak4loEGr+nlcAeJQNddt7/dvt9TherfpeN/5qMMtNViIwGGwunD7pL7pz1GblypWNDtp0HsBdSakWYC4h0HqyK1897bTTfPtmQDhLCkDInT1n7TkAz+bETp+vUTHV591+7b5xPVgC+owc14UsvA8gU3cWIZJgg9FnwSMTX9Yd5MeWL1+emZbZaBwRjULNz8+oBGFmXNFtP+/ceavX+YS3pACEWI/Za3rYwGIQGiX+VbwuI57x8zeGnLTbvWR1633t+CxFvALAiTpzCJESQgnIyl/w0BRflGkAWLFiTS7F4vMY6J7AP99ECgO6nXLKx64HE9rITYAhldrwBwBqVxaruMOdVImHUMRPQoa/CCpGNmzjhYtGjmygOwpQ9c4/ieEPAK3Yxlsfr1z5c1eDCa2kAIRQwew159mEV5If/lUIuLbngvXa7mbuO2LsHwEM0HV8IRzSPRZvOE13CABIb9j4jiSGf7WmzPSqlIDwkgIQMj1mr+kB4CXU77p5RvygdZFDkZLSb8TYXgD5+gYqIRJGuLbftWOv0Blh+erV2QBGpvjlUgJCTApAiKR+2v9ITOjqRKZkDBr+x1wGPQfZoVKECBM90u8P4z3/farWoNK+GEB9nlcgJSCkpACERH1P+9eghUPrJGT48OFplTFrFoAcL48rhAcyWfELhcPHHaPj4DZxNweWkRIQQlIAQsCh0/6HIyp1bK0EFKdl3QegwMtjCuGhn5Wl0dPQ8MkrYsfKvJSAkJECEHAuvPMHAJDNnj3jvM+I8ZeAU75GKUQgEHO/fiPGj/b+yOzk5l5NmemNT1at6uHgmkITKQABVjB7zXkgzIfzG+XYNrDI4TWPihi9vTqWEDoxeEK/68Z5OjwZtMHhJRvZNhbImYDgkwIQUGfNWXO+S8MfAGYtH9zhWxfWrVGuVXIVgDleHU8IjWIM/l9Pj0i82IVV5XJACEgBCKCC2WvOI2Ae3Bn+2xHncS6se1QzZsyozNj+9RBmPO/lcYXQYE5u5a7rvTxg9y5d1sOdM3pyOSDgpAAEjIun/QGgjECFy4Z0/M6FtWtVVFRkZe74+jIpASLE5uTGS4fOmDGj0usDM/HNAPa4sLRcDggw7+5IZabCj0tbg7mtIjSzibLI5kYAwIr2K+ZSZi5lUhuKumVtBBF7li0gzpqz5nwX3/mXgdFv2eAOb7iwdsIKCwuNsmNPfJYIQ3XmEMJh2oZ/tRWfft4bxHMBpLmw/B4ivqBbly4fuLB24DEzFRcXt2bDaMu23QzMWcD3N27vB1EpKVVKlrUhNzd3I3k0/1wrAP2WbW/SIMPoQeBeIPQAoyMS34xiPwhrwHgHTEvKK6yl8wta+OoxtV6LwvCvJiVAhIz24V/tUAmYDcCNZxTsVwoXn3bKKe+6sHagbN++vUlFPN4DQC8APYAk5x+whoF3ACzJiMWWtmjhzvxztAAUzmKD2uzsRUoNY+bBqN/uUz/AFQy8rkBP25nZ84o60kFn1g2GKA3/alICREj4ZvhXkxLgDmY2Nm/b1ottexgAB+cfKgC8DuDp3SUl8zp27OjY/HOkABSu3taYyoxrANwMINeJNWtRDOC+BmmVjz7TJWe/y8fSLorDv9rw4cPTimNZzwMYpDtLHeIASuHx7onC93w3/KtJCXDOtm3bGh+0LE/nX4zo0Zyc+s+/ehWA4Ss4rZRKbyLmcQCa1zdMknYAmNAM2Q/MyCff/YI5IcrDv1oASkCxzfYl6Sq2Jg77ATAu1R0o5HYBaKY7RAJ8O/yrSQmonxXMablbttzEgLb5tyUn54F8Sn3+pVwAhnxS2gO2/TCATqmu4ZANzLi+qHvz1zXncJQM///ybwmgdyxYQxdPn7yl+r/pe+3YASB6CEBLjcHCaD8xpqGCJ9kZ6mICPwGgse5QR+H74V9NSkBqvtu8uYci8sX8I6Wub3n88SnNv6QLQM8lHDuuccmfQbgN/vkYIQN4kDOzx4Th/gAZ/kfy2T0BDNCDufGSW2r6I993uNmQYuVjGTwOQIaGfGFig+kfZNjj5z80aXP1f9nv2rFtmfAiQLr/AP9YYIZ/NSkBiWPm2KYtW/5M8Nf8I+YHd5WWjkn2/oCkCsDQT0tPsC37BQCnJxXPOx8w6JKi/GzPP8fuFBn+R+eTMwG7mei3Cx+eMLeuf9j72vEnKsV3gTEU/vljERxMC5VN4+Y9du+amv7fhSPMxuU48ARAl3gd7SgCN/yrSQmoW3Fx8QkW4Ov5p5gvycvLS3j+JVwALvmopBMTvwL/n9rcwra6qOj0rM90B0mWDP+66S0BtIot69cLH5v8ZTJf1f+aWzvYMdsEYzCkCNSFwbRIKbp73sP3/iuRL+h73dgbwDQF7ny+PVGBHf7VpAQc3XdbtnRSwCtg9vX8I2ALW9ZFrVq1Smj+JVQACj8sPYeUPQ+AludZp2AXlOo/67SswPywyfBPnI7LAQT6R3nD+DWvTZmS8p23A0aOOcmyjBsAvgpw9umNIcBgWgTCnQumT/go2S/ud/3YfLbViwD/jxvh6hD44V9NSsCRNhYXn3Pob3Mw5h/RLtu2+/8kL6/O/53rLACFH+04nYjehH9vuDmaA8rG+c+f3ny57iB1keGfPA/PBFQAuHHB9ImPObXgwOtubR5nHgbmK0Do4tS6AWUBPMu2Y39d9Ohfv6jPQgP/cMtxcWU8B+CXDmVLRGiGfzUpAf+1sbj4dAICOf9IqfNbHn98rfOv1gIw+NNtPzMsYxmA4xyN5p2dFrhgdv6xnj3bPlky/FPn/pkA3gjGkAWPTHJte9O+143rCPDlYLoCQI5bx/GhLSB+yrDUoy89OuHfTi1aWFhoVLQ46TYGe3GTVuiGfzUpAcDGbdt+RpYV6PmnmAvy8vKOOv+OWgAuXbUrK37Q+gTACW4k8woBX1cYqttLXbN26c7yYzL868+9MwH8SoyMy+Y+fO9OZ9etWU/TjDXeXvErsnkoiC9EODcVYgBvMfjRvPiueW4Ozj4jxvUl4CkAWS4dIrTDv1qUS8C3336bZaSnB37+Afi6sry8W5s2bWqcfzUXAGYa8nHJbAAD3UzmGeYFs/Kb9/fTA4Zk+DvH4RJgM/jO/OMa3mWapu3AekkzTVN9vK28G5gvAuEiAN0BGDqyOIO+JbZnxZXxxOKH793g1VF7Xzv+REX8IoCuDi8d+uFfLYolgJlp89ats5k5HPMPWNAyJ6d/TQ8YqrEAXLJix0gGPeB+Lu8Q6LoX8rOn684ByPB3g0MlYIetcNmihya+6lQuJwy87tbmcdseDcIfdWdJWNXDvBYrUi/Oe/jeD1H17t9zPa80Mxo3LHuYgN85tGRkhn+1qJWAjVu2jCTmkM0/XNcyN/eI+XdEARj0wc5WsRjWIng3PdRlL8e4fdGpx/5HZwgZ/u6pVwkgfIhKFC6YMdGXe0j0GzG2F4Pe0p2jLsS4my087rf/HfuOGHsVQA+hfhszRW74V4tKCdi0aVMrGEY451883r5169aHzb8jbpKJpeF+hO/FA0ATsmiKzgAy/N01Y8aMyoztXw9hxvNJfSHTMxnpB3v6bWgdhm1P7kWoL9u2n/bj/44Lpk/6uwX7TDC+SnGJyA5/AMjv2nkRmAaj6lMxTmtk21j8yapVPVxYOzmGEd75F4sdMf8OKwCFH5aec2izknBiDC1cUVKg49Ay/L1RVFRkZe74+rIES0A5EV214JEJw4qmTStzPVw9VMZUie4MiSBupPUMW20WT5/8WTyWeRqAOUl+aaSHf7Wwl4CNxcXnACGef8DQzZs3Hzb/Dj8DQPZtnsbRgJj/5PUxZfh7K8ES8CWxdcb8hyc86VmweohVNAxCAdi5YIZ5QHeI2rz8oLlnwfSJvybgJlQ9xrkuMvx/IMwl4ND+/qHGRIfNv+8LQNWGP55uoKEH4cJLPtzR3avDyfDXo7YSwETzjfSK0+c/MmWVjmypODRYy3XnqA0BG3VnSBDPnz7xb2D7PABbavl3MvxrEMYSsLG4+HR4u4GUFgxc+F1x8ffz7/sCQIQb9ETSwFAjvTiMDH+9aigBcTCNX/jwhAEv3X+/7/aFSICvzwIw0ybdGZKx4JHJ77Ady2egpt3SZPjXImwlQBFFZv4pYOQP/m+gcPW2xgD11xfJW8w8qOo1u0eGvz8UFRVZeVbpMBDPIMIvFzwyYSI0fSTNAf6+EZDYt9f/j2bho/f8Jy9e2hOHf+xZhn8CwlICtm3b1piZIzP/AAzatq1q/sUAQJUbhRzOOx+PphGVxwYAeNaNxWX4+8uhP+TX6M5Rf1Ti7+7CQbkEcJhDPx839rtu3Pts08W5VslVMvwTk9+186IVn34+2KWPCFaXAFc/IlhpWYWI2PyriMcHAHhWAQCDBmgOpAG78ppl+Au3ENjflwBAgSwA1eY/PPH5BY9MGCbDPzlBPxPAQOTmH1HVzI8VzmIDXHK27kBes2170Nlz1zD7+Q3V4coY6P+eDP/IYuadoISe4K0F2cG6B0A4J6hnApjZ+M+WLZGbfwB6MbOKGT/d0dW2lVsPzPAtRYpiaWmoPBiIsl81/Ad1eF13EKEPE5X4d/wDzFagzwCI+snv2nnRx599fimDnweQ5vDyjWwbb6z4bNU+JxdduWadcWx2s6ZOrhkQ2Zs3b+4SY9s43d/XFd2Tnh6IAiDDXwAACCjVnaE2ft4ESHij26md53z82edDXSoBaXD46Y7paTEnlwsUJjpDMdBOdxBdjJjvH7Amw198j/39KQDfbwIkvNHt1M5zCDQUgO/fXcUM388A9yjVVjG4re4cusTSff3NLwOjnwx/UY1s8u9NgAy5/i++1+3UznPANBDu3BjoGCMW3TMAYG6rCPgf3Tl08XH7K2Ogv9ztL36IlO3fAhDwTwAI57n86QBHGMYRz8OLkhMUgCjeAAEAIPLlN19O+4sa2YZ/zwAQ2XIGQBwhv2vnRQS6FD69HKDg59tqXUbUVAFoojuHLmT47psvp/3FUVlg394DwJBLAKJmfr4cQMp3M8AzzNxEwZ0NawJB+esz1XLaX9TKz08EDPomQMJdQbgcEDUENFLw+RPG3OSjXYDknb+ok5+fCCibAIm6+P1yQAQdUAD26k6hi237ogDIO3+RDF+eBZBNgEQi/HY5wEdvAnXYqwDs0Z1CF9ZfAOSGP5EsX94HIJsAiUT56UyAHe0CsEeB8J3uFLpYcUvn4eW0v0iBLz8JIJsAiaT4ZbMgzTNAKwK+VbBpve4gusTjcV2HltP+IiW+fCKgbAIkUuCHEmBZ0S0AYF6viOwIFwAt3/ztzDhX3vmLVLAv7wGQTwCI1PygBBzUcfx4lAsA0XoFoo9059ClssLz4vmmiqkz3hvc4QOvDyzCwY/PA5BNgER9dDu18xzEjZ8RMA0e35ReWantLLB2FvCR2ronewUieCMg2zYOevMkwFICzSfwgGWDOpz3br9233hxUBFOfnwioGwCJOorP7/jd91OPWW0wdZPiHkUwEvgQRmIx+N++TSY13a3zsn5JPZ2L4oPWbFzKYDeuhN5iowFSI9f4eYhYgeMyreHdHT0+dUi2hjY6avtqyCbAAnndO3adReA+w/9B8vWrWvS9OBBF5/Yw1CK/gHgIveO4T/M/DYRWTEAYKL5xBypAkDgl5b1OcV376aEqA3ZVALlr3cssgmQcEtBu3aunwXYtHnzSyCKVAFQSs0HgKqn4TBeAFCmM5DHyplotu4QQiTLj08EtAwpACK4KjIyIjf/ytPTZwNADACK8rN3D1mxcyGAQq2xvEJ4qahb9m7dMYRIVqXR8OP0ePn5unP8UMb2Bv/WnUGIVJ2Unb17U3FxdOYf8NJJ2VXz7/vLiUM+Ke0B235HXybvMOjsovzsZbpzCCGE0O+7zZt7KKJIzD/FfHZeXt4yoPoSAIBZp2W9y8BSfbG8Qktk+AshhKj2k7y8iMw/LKke/sAPCgAAEOEe7/N4Syk79K9RCCFEcpg5/LOB6LDXeFgBmNWt+asMXuhtIu8waN7zpx37pu4cQggh/OUneXmvAgjv/GOe1yon57D5d8TnKy1lXB+z7XMBNPQsmTfKYKlRukMIPfYsu6ytZajeBPwUwDHM2M7AhwbSXjnmF3/33Z31wl17f/vbFhUx7k3MXUFoQYQSm2l9zFKLmj355Ne68wk9FPP1NlEo51+aOnL+1binyJAVJeMAnuB+Jk+NmZXffIruEMJbO5Zf2c6APQV01I2u9hPjwb0ou7P1L4qi9FGgSNo58n+boix2FxOuIaBBDf+EAcxWBo3JenTmvz2OJ3xgY3HxOAJCNf8IGNMyN/eI+VdjATCZ1ZqPSxYDuMD1ZB5gwssdT8vuYxLZurMI75T864reZPNzAJom8M8/jqfZfVvkP1vsdi6hx66rL29jkVoEoH0C/3yHgv3rrMeficSd4eK/mFlt3rJlMYdk/gF4uWVOTh+qYf6pmv61SWRXplUOA7DZ9Wju2xTjtGEy/KOl9P3LB5HNc5HY8AeAbrFKY+HmFcPDdupPANj+u981sap2P0tk+APAsTbUyzt+P+w8N3MJ/yEi2yAKzfxTzMNqGv7AUQoAAMztkrONQRcC2OVaNPftUaz6/TO/6Q7dQYR3St+/fBBAzwNIS+4r+bTMePnNroQSWhlG/B4wOiX5ZZkEmi8lIHpycnK2MdGFIArs/GNgD9l2v7y8vKPOvzqfKzL0o+09bVIvA8hwNJ37DoK596zux76hO4jwTurD/3u7y9Iy8vLyZxxwMpfQZ8sfLj8uZqnvjnLNPxFlDO537ONPy9+SiNlYXNyTgEDOP1Kqd8vjj6/1Z/aoZwCqPd+9xdtgGgwgSH8Q94NpoAz/aHFg+APAMRkHy891KpPQLy2uetdj+ANyJiCyWufmvs1A4OYfAwPrGv5AAgUAAGZ1z17MzL0ABOFUegmYLpjVPXux7iDCOw4NfwAAgU9zIJLwCSLu6sAyUgIiqnVu7mIGAjP/yLYvaJ2bm9D8S6gAAEBR92M/ZLYLAHyecjSXMbCKLPvMWd2z39OdRXjHyeEPACA61pF1hC/YoGyHlpISEFGtc3M/JNvf8w/AKljWmS1btkx4/iVcAACgqHuL9Q337jkdwANJR3MZET1TjoozXzijxQbdWYR3HB/+AEBU6thawgfIySd/SgmIqJYtW66vLC8/nZh9N/8APKOYz2zVqlVS8y+pAgAAM3u1KZ+V3/xGEPUD8E2yX+80Ar4mor4vdMsetiA/L0jXaUQ9uTL8AbCNdU6uJ7Rz+vspJSCi2rRpU94yL+9GIurHPph/AL4GUd9WubnD8vKSn39JF4Bqs7plLyhDRScAdwPYl+o69bCPgDvtgwc6vdAtO7T7N4uauTX8AVQaiL3q8JpCo5ilFqFqhz8nSQmIsJY5OQsM5k4g0jb/GLiT4/FOrXJyUp5/dX4MMBED/7WneZqqHAnCDQCynFizFnsBnl5ppU+ee0bTnS4fS/iQi8MfBDzS7MynRzi9rtBr5++vKALwa6fXZaBCEQZnz3hqkdNri2DYtGlTczaMkQRv5h8B09myJrdq1are88+RAlCtcPnGTJXesI8NHkZVmwgd8bChFNkA3meipyvKrH/OL2ix16F1RcC4OfwBbIzZnN/krGe2ubC20Kj0D1eeYFv8EQA3bvCUfQIENm7cmEmxWB8AwwA4O/+I3odtP90gLe2fLVo4N/8cLQA/9JsPth5vGWnngvhcAs5h4CQkfsnBJuArBt4B01uV6QffnNslR/4oR5zLw38PEZ3b7OdPfezC2sIHSn9/+Tk21MsAMl1YXkqA+N7WrVuPjzOfC9s+l4FzQJTU/APzVwS8A6XeMoA3c3LcmX+uFYAfu3LJNxkVTY852WZuaxNlESML4MaHYuxjQqliLlVE6xvs2b1hZq825V5lE/7n9vC3SV3Q/OczP3BhbeEjpddc0cO2sRhAI6fXlssB4mi++eabjFjDhieTbbcFcxYTZRFRYwBg5n3EXAqiUlZqffzAgQ1t2ngz/zwrAEKkSoa/cJKUACGqSAEQvibDX7hBSoAQUgCEj8nwF26SEiCiTgqA8CUZ/sILUgJElEkBEL4jw194SUqAiCopAMJXZPgLHaQEiCiSAiB8Q4a/0ElKgIgaKQDCF2T4Cz+QEiCiRAqA0E6Gv/ATKQEiKqQACK1k+As/khIgokAKgNBGhr/wMykBIuykAAgtZPiLIJASIMJMCoDwnAx/ESRSAkRYSQEQnpLhL4JISoAIIykAwjMy/EWQSQkQYSMFQHhChr8IAykBIkykAAjXyfAXYSIlQISFFADhKhn+IoykBIgwkAIgXCPDX4SZlAARdFIAhCtk+IsokBIggkwKgHCcDH8RJVICRFBJARCOkuEvokhKgAgiKQDCMTL8RZRJCRBBIwVAOEKGfzD0e+2feQboahD6Azjp0H/9FRG/hHj8iTkXXl6sM1/QSQkQQSIFQNSbDP8AYKaBbzx/M4FMPvpw2gfCHXN/eck0ELGn+UJESoAICikAol5Klg37CRn4EkC6C8vvsW1c2Pysp993Ye3I6LlkSaxZfOtTBFya0BcQPxsrMa4sGjLEcjlaaO28+srzQTwPQKYLy5cp0C+yHp/5mQtriwhRugOIYCOFSc7CRgAAEUxJREFU0XBr+JO6QIZ//TWLb/1bwsMfAJguizfjqS5GCr3mT8x8HUz9AZS5sHymDX6K5Q2cqCf5ARIp27X00iyOxb4D0NjhpeW0v0MGvvHc+WD1WkpfTPZFc8+79BWHI0WKm2cCiKl39hMzFzu9rogOOQMgUsaxtCvhxvC3caEMf4ewuq8eX3uvg0kiqfkTM19XChcC2O/02ja4j9NrimiRAiBSRzzA4RXlmr+DBr/+z64AOtdjiVMHvvJ8F6fyRFXWY0+9C6aBcPhyABH/wsn1RPRIARCpY5zm4Gpyzd9hTHRmvRdRDqwhXDoTQLnOrSWiSAqASMn2Zb9rAudO/8tpfxcwI6/eixC3ciCKgCtnApo7tI6IKCkAIiVpXB5zaCl55+8Wovp/j5xYQ3zP4TMBhgNriAiTAiB0krv9ReRkPfbUu0rhYrhwY6AQyZACIHSplNP+Iqp+cDlACG2kAAhd9slpfxFlzZ+Y+bruDCLapAAIIYQQESQFQAghhIggKQBCCCFEBEkBEEIIISJICoAQQggRQVIAhBBCiAiSAiCEEEJEkBQAIYQQIoKkAAghhBARJAVACCGEiCApAEIIIUQESQEQQgghIkgKgBBCCBFBUgCEEEKICJICIIQQQkSQFAAhhBAigqQACCGEEBEkBUAIIYSIICkAQgghRATFdAcQQUaIxWIwVBqUisFQMSilAFIgEIgIzAyGDTDDti1YtgXbjiNuVxrMhQZRkaX7VYSZoQxkpKcjPT2GtFga0mIxECkoRTAUAQAsm2HbDGYbByvjqLQqUVlZifKKSlhsa34FIUeEWCwdRnoDGLE0GGlpUEYMRARSCkQKbNtgMNi2YVtxWJWVsOOViFdWgE0zRqYZ1/0yRDCR7gAiWHjV+CwYPATM/Rl8EVG9foRKAX4XTHMRwxxqN2mvUzmj7OYv3utuK/6NbccvNZRxfH3Wsmxrq0HGP9igf05rV7DCqYxRxhMnNkFZ2WAAA9m2+5JSqf8SMe8D0TsA5gOYRaa5y6mcIvykAIiE8JpxPcA8EkAfABkuHGI/wHPBxgPUacJHLqwfaiO//KBp2sH4cBD/DkB7lw6zBkz/FzPw2KR2BVLWksSmeTqAGwAMBNDQhUOUA1gA4CEyzXddWF+EjBQAUStePeZCgP4EoMCzgxK9Brbvpo6Tl3p2zIAatXp5toJ9IxOPBJDl0WFLwXgg3cLfJpxydqlHxwwsvvPOc2DbfwZwnoeHXQqie+iOO1718JgiYKQAiBrxqvEnwrAfBHCxthCEhWC6jjpO/E5bBr9iptFrl10OYAqAFppSlBBwZ5P2BQ+aRHKzwI+waeYBmADgco0x3oRhXEe33bZeYwbhU1IAxGGYTYU1B8YBuB3unOpP1l4w3UqdJj6sO4hfjFq9/KdE1lMAfqE7CwCA8Z5hqysmdz7rK91R/IABwl/+cj2Y/wqgse48AMpA9BcwTybTlKImvicFQHyPv7y1BQ5aTwO4UHeWI/E8WMZv6ZQJkT7lPGrN0oEEPAmgme4sP7KXwcOndejxvO4gOrFpNgXwBIBC3Vlq8BbS0i6jP/2pWHcQ4Q9SAAQAgNeO7wbbXgAgV3eWWnwNAxdTu0mRO51pMqs9a5feB9BNurPUijG1aYeCMVG8JMB33dUelrUYwAm6s9RiM5TqQ7ff/qnuIEI/KQAC/Pn4nlA8D+CmurMkoAQ29aXOE5frDuIVc/Xq9D1UMhPAb3RnSQjjuX1lmVfOyM+v1B3FK3znnd1h24ug736MZOwDMJhM8zXdQYReUgAijteM6w3m2QAa6M6ShH0AXxyFTwlUDf+dcwHSdzNmChi0aP+BjIFRKAGH7vJfBKCR7ixJqAAwiExzse4gQh/ZCjjCePUtZ4D5BQRr+ANAY0At5NVjTtUdxFXMtIdKHg/a8AcAAvdu3LDsKZM51H9j+M47O8O25yJYwx+o+p1/kU3Tu4/3Ct8J9S+nODr+fGx7QL2M4P3hOoSbArSIPx/dWncSt4xeu3QqgGG6c9TDb/asWzpRdwi3sGmeANt+Dd7tv+C0TAAv8V13tdUdROghBSCCeOUtjaDoRQT3D1e1PKi0Il5tpusO4rTRq5cW+v6Gv0Qw3XLz2qXBuHchCfzYY2kAngOQoztLPTWHZb3IpunGzoTC56QARFHMeAjgDrpjOIPPAO+/S3cKJ435/L2TQPS47hxOYaZHRm1YeqLuHI4qLp4I4EzdMRzSCcDfdIcQ3pMCEDG8ZuwAgK/UncNRRGN49bhwXMtkJsuwnwb4GN1RnMPHUBwzwRyKm47ZNHsCCP7ZmcNdzX/5S1/dIYS3pABECK8wG4IxTXcOFxDAj/KK4Wm6g9TXzWuXXgW/7PDnrLNHrXsvyPczAADYNGMAHkAYP0HF/BBPnhzQe4JEKqQAREnm/tvg701K6qMjMo65XneI+hi1enk2g+7VncMtBJ5006dL/LaDYXKIRgHorDuGS36C/fvH6w4hvCMFICJ47a3NAQr0gKwT0Z94temHvddTQhS/CcCxunO4hnEcZRg36I6RKp48uRGYx+rO4bJR/Ne/BmEzI+EAKQBRYVs3wx8PJnFTc9CBq3WHSMXILz9oGvqCBoCYbhy7blkT3TlSsn//tQhzQavSCAcPjtQdQnhDCkAE8LqxTQCM0J3DE0y38BIzpjtGstIOxocj+B/LTER2nPn3ukMk69DH/kbrzuGRkWwG90yaSJwUgCiweDCAEN1VXhtuieP3/0p3iqQRX6E7gmcYV+mOkLTi4ovg7wdlOakZgAG6Qwj3SQGIhst1B/CUTYF6vTd/8V53VH0WOyo6jF79TlfdIZIUqJ8pB0Tt9UaSFICQ43Vj8wDqqTuHpwj9eeUtgfk4k604dDvl1UnRpbojJIonTmwCIGqfkf8l33PP8bpDCHdJAQg7G79E9L7PmTCMwGwMRODgXbKoJ2I6T3eGhJWX90DwHphVXwbi8XN1hxDuitpgiB5GL90RtFAciNd9y8r3jgMQkm2ZE8dAl5vXLwnGHfUcjJ8lx0X1dUeIFIDw66E7gBYcjMseHLN6IIy7ytWNYKcF5WczKDmd1lN3AOEuKQAhxivMhgDa6M6hB3dk9v9gZVCUbv47DDM66s5QF64qZ+1159DkJJ46NVN3COEeKQBhlrn/ZET3e9wYG0bl6Q5RFyJE91nsZPv/tZtma4R/A62jUdi376e6Qwj3RHU4RIQ6WXcCreINfD9gGPiZ7gwaBeHnMwgZ3WMHoKSJlEkBCDPiYNxk5Rqrue4ECYju94gpCK89CBndQxSE3yGRIikAoUZRPXVZLQh7zgcho1uC8Nqj/TvEHITvkUiRFIBQ42j/8SJqqjtCAqL8PfL/cCHyf0Z3Rf31h5oUACGEECKCpACEGu3TnUAr5j26IyQgyt+jvboD1InZ/xndFfXXH2pSAEKNozxcgGD88QpCRrcE4bVH+3eIKAjfI5EiKQBhxrxddwS9jJ26EyRgh+4A2hAH4bUHIaObov76Q00KQLh9qTuAVrGK9bojJGCD7gDasJLvj98RRfv1h5wUgDBrGl8PwNYdQ5O9OHnaZt0h6kQIwhB0BYP9/9pNcyOiexnAhm1H+01EyEkBCDFqPa0MwDe6c+hBa4jAulPUjb/QnUCj1boD1IUABrBWdw5NviLTLNcdQrhHCkDo0Tu6E2hB/LbuCIlQB42lQBCKiuNsZcSX6g6RoGj+DgFv6w4g3CUFIPyW6A6ghcVv6Y6QiCldztqGALwTdh6tvK9tr6DcYBbN3yEgEL9DInVSAMKOjDcRvfsAymDze7pDJIpBr+vO4DUC3tCdIWGZmUsBRO1UuAUpAKEnBSDkqMNfi4FgnA53DGMedZmyX3eMhCk8pzuC1yymwLxmGjduL4CFunN47E0yzW26Qwh3SQGIhmd0B/CU4kC93mntClYAiNLNgGvu73jWZ7pDJClQP1MOiNrrjSQpAJHQ6EUAu3Wn8Ab9B1sbvaY7RdKYntIdwTOEv+uOkLTc3JcB+P9jpc7YhUaN5uoOIdwnBSACqKO5D6CHdefwBPEU6mXGdcdIVszAYwBKdefwQEmM6HHdIZJF11xTCaKpunN45AEaMyY4l9BEyqQARIVSUxH+DU12gBs+oTtEKia1K9hLTA/qzuE+un9Su4Jg7i/fsOGjAMK+vfZ+ABH4ORSAFIDIoPb37gToAd05XEV8d9XZjmBKs/h+hHvAbE1rUBbYn0EaM2Y/iCbqzuGy+8g0g/LxTFFPUgCipOnBuxHenQG/wIHd03WHqI8Jp5xdCsZ43TncQsCYiSedH+x7UZj/BmCV7hgu+RZA2AuO+AEpABFStTUwjdKdwwUM5j9Q/oxK3UHqa2qHgv8DIzB7GCSO3r2vfcGzulPUF5lmHMBIhHP3xuvJNA/oDiG8IwUgYqjjxHkAPak7h7N4InWaHI6hScSGra4AKNjvlA+3i2P8WxCFYmiSab4LIGw3BM4g04zaXgeRJwUgihpmXgdgpe4YDvkAZbtv1x3CSZM7n/UVsX217hxOIaKrpp189te6czhsPIDlukM45AsAYTwzKOogBSCCqI1ZDssYCqBEd5b6of8gjsIwnPr/sfs69ngRHIp3mZPua18wR3cIpx26FPAbAMW6s9TTTgCD5dR/NEkBiCg65d51AC5C1cd+gmg3GL2py6RNuoO4ZWqHglvANFN3jpQxnmvavuBW3THcQqb5HYBfIbj7N5QB6EemuUF3EKGHFIAIo46TPgTRJQAqdGdJ0j6A+lCniWG5jFEzIt5XljEc4MW6o6Rg4b6yzCtNolA/iIpM8wsAAxC8Il0BosFkmmG5jCFSIAUg4qjDxEWw1YUIzlbBJVD2r6jjxGW6g3hhRn5+ZdOtVn8AAbpxk57ddyBz0Iz8/NBdmqkJmea7UKoXgrOHwz4Q9aU77nhZdxChF+kOIPyBV4/vCvACgFvqzlKL/wfii6nD5C91B/EcM41et3QSmG7RHaUWDGDy1PYF48Nyx38y+K672sKyFgM4UXeWWmyCUn3o9tvDffZMJETOAAgAAHWc8Cli8VMB+PVdwUs4eLB7JIc/ABDx1PY9xhB4IPx5zXkPMw2d2uHscVEc/gBAt922HkBXAC/oznIUbyItLV+Gv6gmZwDEYZhNhbVlt4DZBJCpOw9AewAeRx0nPao7iV+M2rD0RIpjJoCzdWepQu8qZV05pd05Yd1lMmlsmiMATADQRHcWAAcA3AHTvI/CuYGRSJEUAFEjXjm2FWKYBuDX2kIQFsKKj6DOUzdqy+BXzDR67bLLQZgMxnGaUpQQ4db72hU8HtV3/bXhe+7JRWXlRACXa4yxEIZxA912m5QzcQQpAKJWvOaW88DqzwDO8fCwL8Omu6nzRLlDuQ43fbqkGWUYNxDTjQCyvTgmgXcy1N/SGpQ9EPi9/T3AplkA4M8ALvDwsG+D6G664443PTymCBgpACIhvHpcAcDXA+gHdy4N7APzHBjGA9R+wscurB9qI1YvaZyhYsPB+B2Aji4d5gsCP1nG1uPTO/YK7FMXdWHTzAdwA4CBABq7cIgyAPOg1EN0++3h2BpbuEoKgEgKfzXuGFTwr8Hoh6qzAsfUY7mdAL0N4CXErbnUZUrQPkvtS6NXv9MVii4F6HwwOiP1m31tAlYB9LrF9Nz9Hc/6zMmcUcWm2RhEA8E8AFW/Q83rsdwuAO8AmI+MjNk0fryckREJkwIgUsZcaGBNm24g5IOpHQhtwXwCgMYANQa4KYDdAO0DeB+Ab0C0FswbAPUvdMhYSWSGeqMY3W5ev+RY2Gk9bOYOxGgPwslgZIPQDP99F7oPjF0glIB4PTOtA7BaGfGl97XtJc+GdxGbpoJSXWDbZwBoC6AdgDao+t40RlXB3gNg36H//BvAegDroNRHaNfuExoyxNISXgTe/wfRBsPxR7GYbgAAAABJRU5ErkJggg==;" vertex="1" parent="1">
          <mxGeometry x="941" y="215" width="72" height="72" as="geometry" />
        </mxCell>
        <mxCell id="WWB7S82kn9Ua1kXxTO10-82" value="&lt;b&gt;Transformation:&lt;/b&gt;" style="text;html=1;align=center;verticalAlign=middle;whiteSpace=wrap;rounded=0;" vertex="1" parent="1">
          <mxGeometry x="444" y="633" width="108" height="30" as="geometry" />
        </mxCell>
      </root>
    </mxGraphModel>
  </diagram>
</mxfile>
